SplineFontDB: 3.0
FontName: MrsSheppards-Regular
FullName: Mrs Sheppards Regular
FamilyName: Mrs Sheppards
Weight: Normal
Copyright: Copyright (c) 2004 Alejandro Paul (sudtipos@sudtipos.com),\nwith Reserved Font Name "Mrs Sheppards"
Version: 001.001
ItalicAngle: 0
UnderlinePosition: -50
UnderlineWidth: 50
Ascent: 800
Descent: 200
sfntRevision: 0x00010000
LayerCount: 2
Layer: 0 1 "Back"  1
Layer: 1 1 "Fore"  0
NeedsXUIDChange: 1
XUID: [1021 288 713564382 5950922]
FSType: 0
OS2Version: 2
OS2_WeightWidthSlopeOnly: 0
OS2_UseTypoMetrics: 1
CreationTime: 1322383192
ModificationTime: 1322412022
PfmFamily: 17
TTFWeight: 400
TTFWidth: 5
LineGap: 0
VLineGap: 0
Panose: 2 0 6 3 0 0 0 2 0 4
OS2TypoAscent: 159
OS2TypoAOffset: 1
OS2TypoDescent: -178
OS2TypoDOffset: 1
OS2TypoLinegap: 0
OS2WinAscent: 0
OS2WinAOffset: 1
OS2WinDescent: 0
OS2WinDOffset: 1
HheadAscent: 0
HheadAOffset: 1
HheadDescent: 0
HheadDOffset: 1
OS2SubXSize: 700
OS2SubYSize: 650
OS2SubXOff: 0
OS2SubYOff: 140
OS2SupXSize: 700
OS2SupYSize: 650
OS2SupXOff: 0
OS2SupYOff: 477
OS2StrikeYSize: 50
OS2StrikeYPos: 250
OS2Vendor: 'SUDT'
OS2CodePages: 20000001.00000000
OS2UnicodeRanges: 80000027.5000004b.00000000.00000000
Lookup: 258 0 0 "'kern' Horizontal Kerning lookup 0"  {"'kern' Horizontal Kerning lookup 0 subtable"  } ['kern' ('DFLT' <'dflt' > 'grek' <'dflt' > 'latn' <'dflt' > ) ]
MarkAttachClasses: 1
DEI: 91125
TtTable: prep
PUSHW_1
 511
SCANCTRL
PUSHB_1
 4
SCANTYPE
EndTTInstrs
LangName: 1033 "" "" "" "AlejandroPaul: Mrs Sheppards Regular: 2004" "MrsSheppards-Regular" "Version 1.000" "" "Mrs Sheppards is a trademark of Alejandro Paul." "Alejandro Paul" "Alejandro Paul" "" "http://www.sudtipos.com" "http://www.sudtipos.com" "This Font Software is licensed under the SIL Open Font License,+AA0A-Version 1.1. This license is available with a FAQ at:+AA0A-http://scripts.sil.org/OFL" "http://scripts.sil.org/OFL" 
GaspTable: 1 65535 15
Encoding: UnicodeBmp
UnicodeInterp: none
NameList: Adobe Glyph List
DisplaySize: -36

StartChar: A
Encoding: 65 65 1
Width: 560
Flags: HMW
HStem: -11 21G<389.5 423.5> 0 108<86 262.5> 474 216<635.5 651.5> 563 127<614 667 497 670.5>
VStem: -1 231<118 182.5 118 293.5> 346 240<26 116.5> 621 141<482.5 640.5>
LayerCount: 2
Fore
SplineSet
725.5 671 m 128,-1,1
 762 652 762 652 762 612 c 128,-1,2
 762 572 762 572 712.5 523 c 128,-1,3
 663 474 663 474 642 474 c 128,-1,4
 621 474 621 474 621 487 c 0,5,6
 621 503 621 503 647.5 528.5 c 128,-1,7
 674 554 674 554 674 560 c 0,8,9
 674 563 674 563 669 563 c 0,10,11
 616 563 616 563 509.5 478 c 128,-1,12
 403 393 403 393 316.5 286.5 c 128,-1,13
 230 180 230 180 230 125 c 0,14,15
 230 108 230 108 242 108 c 0,16,17
 270 108 270 108 390 218 c 128,-1,18
 510 328 510 328 616 439 c 1,19,20
 626 441 626 441 633 441 c 128,-1,21
 640 441 640 441 649 435.5 c 128,-1,22
 658 430 658 430 662 424 c 128,-1,23
 666 418 666 418 665 409.5 c 128,-1,24
 664 401 664 401 652 373 c 128,-1,25
 640 345 640 345 624.5 315.5 c 128,-1,26
 609 286 609 286 586.5 248 c 128,-1,27
 564 210 564 210 548.5 185.5 c 128,-1,28
 533 161 533 161 514.5 131.5 c 0,29,30
 494 98.8108108108 494 98.8108108108 494 93.4054054054 c 128,-1,31
 494 88 494 88 497.5 88 c 128,-1,32
 501 88 501 88 503 89 c 128,-1,33
 505 90 505 90 514 96.5 c 128,-1,34
 523 103 523 103 535 111 c 128,-1,35
 547 119 547 119 553 124 c 128,-1,36
 559 129 559 129 566.5 129 c 128,-1,37
 574 129 574 129 580 124 c 128,-1,38
 586 119 586 119 586 112 c 0,39,40
 586 80 586 80 512 34.5 c 128,-1,41
 438 -11 438 -11 409.5 -11 c 128,-1,42
 381 -11 381 -11 363.5 4 c 128,-1,43
 346 19 346 19 346 40.5 c 128,-1,44
 346 62 346 62 358 93.5 c 2,45,-1
 370 125 l 1,46,47
 370 128 370 128 368 128 c 128,-1,48
 366 128 366 128 361 125 c 0,49,50
 204 0 204 0 127 0 c 0,51,52
 68 0 68 0 33.5 46 c 128,-1,53
 -1 92 -1 92 -1 164 c 128,-1,54
 -1 236 -1 236 39 317 c 128,-1,55
 79 398 79 398 145.5 463.5 c 128,-1,56
 212 529 212 529 293 581 c 128,-1,57
 374 633 374 633 462 661.5 c 128,-1,58
 550 690 550 690 619.5 690 c 128,-1,0
 689 690 689 690 725.5 671 c 128,-1,1
EndSplineSet
EndChar

StartChar: D
Encoding: 68 68 2
Width: 810
Flags: HMW
HStem: -38 217<238.5 397.5 238.5 478.5> -38 250<86.5 478.5> 200 209<341.5 353.5 339 355.5> 349 60 516 193<652.5 687.5 472 777>
VStem: 884 80<423.5 485.5>
LayerCount: 2
Fore
SplineSet
281 399 m 1,0,-1
 349 409 l 1,1,2
 367 409 367 409 367 398 c 0,3,4
 367 380 367 380 313.5 364.5 c 128,-1,5
 260 349 260 349 225 349 c 0,6,7
 169 349 169 349 134.5 383 c 128,-1,8
 100 417 100 417 94 476 c 1,9,10
 94 531 94 531 168 586 c 128,-1,11
 242 641 242 641 358 675 c 128,-1,12
 474 709 474 709 570.5 709 c 128,-1,13
 667 709 667 709 731.5 692 c 128,-1,14
 796 675 796 675 849.5 640 c 128,-1,15
 903 605 903 605 933.5 542.5 c 128,-1,16
 964 480 964 480 964 396 c 0,17,18
 964 294 964 294 851.5 181.5 c 0,19,20
 792 122 792 122 707.5 73.5 c 128,-1,21
 623 25 623 25 494 -6.5 c 128,-1,22
 365 -38 365 -38 214 -38 c 0,23,24
 176.444444444 -38 176.444444444 -38 94 -11.5 c 0,25,26
 52 2 52 2 21 29 c 128,-1,27
 -10 56 -10 56 -10 96.5 c 128,-1,28
 -10 137 -10 137 30.5 174.5 c 128,-1,29
 71 212 71 212 112 212 c 0,30,31
 120 212 120 212 175.5 195.5 c 128,-1,32
 231 179 231 179 298 179 c 128,-1,33
 365 179 365 179 472.5 211.5 c 128,-1,34
 580 244 580 244 669.5 289.5 c 128,-1,35
 759 335 759 335 821.5 385.5 c 128,-1,36
 884 436 884 436 884 469 c 0,37,38
 884 516 884 516 743.5 516 c 128,-1,39
 603 516 603 516 457.5 481.5 c 128,-1,40
 312 447 312 447 278 400 c 0,41,42
 277 399 277 399 278 399 c 2,43,-1
 281 399 l 1,0,-1
332 253 m 0,44,45
 486 447 486 447 497 458 c 1,46,47
 522 488 522 488 537.5 488 c 128,-1,48
 553 488 553 488 562 479.5 c 128,-1,49
 571 471 571 471 571 459 c 128,-1,50
 571 447 571 447 553 424.5 c 128,-1,51
 535 402 535 402 456.5 309 c 128,-1,52
 378 216 378 216 376.5 215 c 128,-1,53
 375 214 375 214 371 210 c 0,54,55
 361 200 361 200 350 200 c 128,-1,56
 339 200 339 200 331.5 210 c 128,-1,57
 324 220 324 220 324 231.5 c 128,-1,58
 324 243 324 243 332 253 c 0,44,45
EndSplineSet
EndChar

StartChar: C
Encoding: 67 67 3
Width: 481
Flags: HMW
HStem: -9 77<258 263.5> -9 227 547 140<642.5 693 524.5 694>
VStem: 36 206<113.5 166 79.5 360.5>
LayerCount: 2
Fore
SplineSet
503 218 m 0,0,1
 527 218 527 218 527 195 c 0,2,3
 527 181 527 181 494.5 148 c 128,-1,4
 462 115 462 115 415 79.5 c 128,-1,5
 368 44 368 44 304 17.5 c 128,-1,6
 240 -9 240 -9 179 -9 c 128,-1,7
 118 -9 118 -9 77 37.5 c 128,-1,8
 36 84 36 84 36 185 c 128,-1,9
 36 286 36 286 78 371.5 c 128,-1,10
 120 457 120 457 185 513.5 c 128,-1,11
 250 570 250 570 330.5 610.5 c 0,12,13
 482.555555556 687 482.555555556 687 628 687 c 0,14,15
 802 687 802 687 802 596 c 0,16,17
 802 539 802 539 742 474 c 128,-1,18
 682 409 682 409 644 409 c 0,19,20
 618 409 618 409 618 424 c 0,21,22
 618 442 618 442 632 458 c 1,23,24
 681 507 681 507 691.5 521 c 128,-1,25
 702 535 702 535 702 541 c 128,-1,26
 702 547 702 547 691 547 c 0,27,28
 655 547 655 547 580 497 c 128,-1,29
 505 447 505 447 430 377 c 128,-1,30
 355 307 355 307 298.5 225 c 128,-1,31
 242 143 242 143 242 87 c 0,32,33
 242 68 242 68 263 68 c 0,34,35
 294 68 294 68 394.5 143 c 128,-1,36
 495 218 495 218 503 218 c 0,0,1
EndSplineSet
EndChar

StartChar: E
Encoding: 69 69 4
Width: 573
Flags: HMW
HStem: -49 227<162.5 247 162.5 276> 563 196<657 706.5>
VStem: -21 159<97 212> 685 170<478 691> 724 131<540.5 691>
LayerCount: 2
Fore
SplineSet
688 759 m 0,0,1
 855 759 855 759 855 665 c 0,2,3
 855 625 855 625 824 575.5 c 128,-1,4
 793 526 793 526 757.5 494.5 c 128,-1,5
 722 463 722 463 705 463 c 0,6,7
 698 463 698 463 691.5 469.5 c 128,-1,8
 685 476 685 476 685 486.5 c 128,-1,9
 685 497 685 497 704.5 519 c 128,-1,10
 724 541 724 541 724 552 c 128,-1,11
 724 563 724 563 699 563 c 0,12,13
 634 563 634 563 488.5 509.5 c 128,-1,14
 343 456 343 456 342 429 c 1,15,16
 343 422 343 422 368.5 422 c 128,-1,17
 394 422 394 422 426.5 427 c 128,-1,18
 459 432 459 432 476 432 c 0,19,20
 521 432 521 432 521 408 c 0,21,22
 521 394.714285714 521 394.714285714 506 386.857142857 c 128,-1,23
 491 379 491 379 480.5 374.5 c 128,-1,24
 470 370 470 370 451 362.5 c 128,-1,25
 432 355 432 355 419.5 349 c 128,-1,26
 407 343 407 343 383 332.5 c 2,27,-1
 343 315 l 2,28,29
 303 297.5 303 297.5 273.5 282.75 c 128,-1,30
 244 268 244 268 223.5 258 c 128,-1,31
 203 248 203 248 189 240 c 128,-1,32
 175 232 175 232 162.5 223.5 c 0,33,34
 138 206.84 138 206.84 138 198 c 0,35,36
 138 178 138 178 170 178 c 0,37,38
 238 178 238 178 319 203 c 128,-1,39
 400 228 400 228 456.5 252.5 c 128,-1,40
 513 277 513 277 521 277 c 0,41,42
 556 276 556 276 579.5 242 c 128,-1,43
 603 208 603 208 603 174 c 0,44,45
 603 126 603 126 537 73 c 128,-1,46
 471 20 471 20 372.5 -14.5 c 128,-1,47
 274 -49 274 -49 188 -49 c 128,-1,48
 102 -49 102 -49 46 -13.5 c 128,-1,49
 -10 22 -10 22 -21 97 c 1,50,51
 -21 142 -21 142 29 192 c 128,-1,52
 79 242 79 242 145 278.5 c 128,-1,53
 211 315 211 315 267 340 c 128,-1,54
 323 365 323 365 343 368 c 1,55,56
 349 370 349 370 349 372 c 0,57,58
 349 380 349 380 337 382 c 0,59,60
 272 389 272 389 268 390 c 0,61,62
 214 402 214 402 192 437.5 c 128,-1,63
 170 473 170 473 170 503 c 0,64,65
 170 564 170 564 257 625 c 128,-1,66
 344 686 344 686 465 722.5 c 128,-1,67
 586 759 586 759 688 759 c 0,0,1
EndSplineSet
EndChar

StartChar: F
Encoding: 70 70 5
Width: 296
Flags: HMW
HStem: -21 21G<-19.5 -4.5> 427 200<153.5 169.5 153.5 186> 721 20G<599.5 702>
LayerCount: 2
Fore
SplineSet
353 455 m 1,0,-1
 359 435 l 1,1,2
 359 426 359 426 336.5 401 c 128,-1,3
 314 376 314 376 314 371.5 c 128,-1,4
 314 367 314 367 320.5 367 c 128,-1,5
 327 367 327 367 392.5 376.5 c 128,-1,6
 458 386 458 386 481.5 386 c 128,-1,7
 505 386 505 386 515 371.5 c 128,-1,8
 525 357 525 357 525 341.5 c 128,-1,9
 525 326 525 326 494 311 c 0,10,11
 479.175066313 302.763925729 479.175066313 302.763925729 276.5 254 c 2,12,-1
 210 238 l 1,13,-1
 30 10 l 1,14,-1
 23 2.5 l 2,15,16
 1.06666666667 -21 1.06666666667 -21 -11.4666666667 -21 c 128,-1,17
 -24 -21 -24 -21 -34 -15.5 c 128,-1,18
 -44 -10 -44 -10 -44 2 c 128,-1,19
 -44 14 -44 14 -32.5 34 c 128,-1,20
 -21 54 -21 54 31.5 121 c 128,-1,21
 84 188 84 188 89.5 193.5 c 128,-1,22
 95 199 95 199 95 202.5 c 128,-1,23
 95 206 95 206 91 206 c 128,-1,24
 87 206 87 206 23 189.5 c 128,-1,25
 -41 173 -41 173 -58 173 c 128,-1,26
 -75 173 -75 173 -83 181.5 c 128,-1,27
 -91 190 -91 190 -99 204 c 128,-1,28
 -107 218 -107 218 -107 226 c 0,29,30
 -107 248 -107 248 -77 259 c 0,31,32
 29.5280235988 300.306784661 29.5280235988 300.306784661 162.5 332.5 c 2,33,-1
 210 344 l 1,34,35
 287 431.098360656 287 431.098360656 287 437.049180328 c 128,-1,36
 287 443 287 443 278 443 c 0,37,38
 277 443 277 443 259.5 439 c 0,39,40
 207 427 207 427 148 427 c 128,-1,41
 89 427 89 427 40.5 464.5 c 128,-1,42
 -8 502 -8 502 -8 546.5 c 128,-1,43
 -8 591 -8 591 74.5 649.5 c 128,-1,44
 157 708 157 708 183 708 c 128,-1,45
 209 708 209 708 209 690 c 0,46,47
 209 681 209 681 187.5 662.5 c 128,-1,48
 166 644 166 644 157.5 640.5 c 128,-1,49
 149 637 149 637 149 632 c 128,-1,50
 149 627 149 627 156 627 c 128,-1,51
 163 627 163 627 260.5 655.5 c 128,-1,52
 358 684 358 684 484 712.5 c 128,-1,53
 610 741 610 741 686 741 c 0,54,55
 720 741 720 741 772 710 c 128,-1,56
 824 679 824 679 824 636 c 0,57,58
 824 606 824 606 616.5 534.5 c 128,-1,59
 409 463 409 463 360 462 c 0,60,61
 353 462 353 462 353 455 c 1,0,-1
EndSplineSet
EndChar

StartChar: G
Encoding: 71 71 6
Width: 691
Flags: HMW
HStem: -21 87<128.5 340> 151 208<432.5 701> 451 249<794.5 823.5 635 825> 568 132<790 823.5 635 846.5>
VStem: 36 243<140 216 87.5 331.5> 783 171<466.5 637.5>
LayerCount: 2
Fore
SplineSet
809 264 m 0,0,1
 809 239 809 239 751 216 c 128,-1,2
 693 193 693 193 633.5 179 c 2,3,-1
 574 165 l 1,4,5
 482 65 482 65 383 22 c 128,-1,6
 284 -21 284 -21 207 -21 c 0,7,8
 163 -21 163 -21 129.5 -5 c 128,-1,9
 96 11 96 11 79 32.5 c 128,-1,10
 62 54 62 54 51.5 81 c 0,11,12
 36 120.857142857 36 120.857142857 36 152 c 0,13,14
 36 238 36 238 71.5 316.5 c 128,-1,15
 107 395 107 395 166.5 454 c 128,-1,16
 226 513 226 513 302 560.5 c 128,-1,17
 378 608 378 608 460 638 c 0,18,19
 629.466666667 700 629.466666667 700 769 700 c 0,20,21
 854 700 854 700 904 676 c 128,-1,22
 954 652 954 652 954 606 c 0,23,24
 954 573 954 573 895 512 c 128,-1,25
 836 451 836 451 802 451 c 0,26,27
 783 451 783 451 783 471 c 128,-1,28
 783 491 783 491 817 524.5 c 128,-1,29
 851 558 851 558 851 563 c 128,-1,30
 851 568 851 568 845 568 c 0,31,32
 811 568 811 568 744 542.5 c 128,-1,33
 677 517 677 517 598 470.5 c 128,-1,34
 519 424 519 424 447 366.5 c 128,-1,35
 375 309 375 309 327 236.5 c 128,-1,36
 279 164 279 164 279 95 c 0,37,38
 279 66 279 66 307 66 c 0,39,40
 352 66 352 66 416 101.5 c 128,-1,41
 480 137 480 137 481 152 c 1,42,43
 466 151 466 151 456 151 c 0,44,45
 418 151 418 151 390.5 171.5 c 128,-1,46
 363 192 363 192 363 226.5 c 128,-1,47
 363 261 363 261 410 291.5 c 128,-1,48
 457 322 457 322 526.5 340.5 c 128,-1,49
 596 359 596 359 661.5 359 c 128,-1,50
 727 359 727 359 768 336 c 128,-1,51
 809 313 809 313 809 264 c 0,0,1
EndSplineSet
EndChar

StartChar: H
Encoding: 72 72 7
Width: 655
Flags: HMW
HStem: -34 21G<75.5 134.5> 668 20G<896.5 947.5>
LayerCount: 2
Fore
SplineSet
357 238 m 1,0,1
 159.181818182 -34 159.181818182 -34 103 -34 c 0,2,3
 78 -34 78 -34 59 -7.5 c 0,4,5
 25 39.9210526316 25 39.9210526316 25 104 c 128,-1,6
 25 168 25 168 130 306 c 128,-1,7
 235 444 235 444 353.5 554.5 c 128,-1,8
 472 665 472 665 513 665 c 0,9,10
 537 665 537 665 553 638 c 128,-1,11
 569 611 569 611 569 593 c 128,-1,12
 569 575 569 575 559 552.5 c 128,-1,13
 549 530 549 530 523.5 488 c 128,-1,14
 498 446 498 446 477.5 415 c 128,-1,15
 457 384 457 384 414 318 c 1,16,17
 524 341 524 341 569 348 c 1,18,19
 675.702702703 469.945945946 675.702702703 469.945945946 714.351351351 510.972972973 c 128,-1,20
 753 552 753 552 799 597.5 c 0,21,22
 890.494505495 688 890.494505495 688 937 688 c 0,23,24
 946 688 946 688 951.5 682 c 128,-1,25
 957 676 957 676 958 664 c 1,26,27
 949 624 949 624 926 590 c 128,-1,28
 903 556 903 556 845.5 486.5 c 128,-1,29
 788 417 788 417 742 354 c 1,30,31
 816 328 816 328 816 294 c 0,32,33
 816 281 816 281 806.5 273 c 128,-1,34
 797 265 797 265 784.5 264.5 c 128,-1,35
 772 264 772 264 732 262.5 c 128,-1,36
 692 261 692 261 664 259 c 0,37,38
 652 258 652 258 608 194.5 c 128,-1,39
 564 131 564 131 513.5 67.5 c 128,-1,40
 463 4 463 4 434.5 4 c 128,-1,41
 406 4 406 4 386.5 62.5 c 128,-1,42
 367 121 367 121 362 179.5 c 2,43,-1
 357 238 l 1,0,1
399 216 m 1,44,-1
 412 145 l 1,45,46
 434 183 434 183 479 240 c 1,47,48
 477 240 477 240 469.5 239 c 128,-1,49
 462 238 462 238 456 237.5 c 128,-1,50
 450 237 450 237 441 235.5 c 128,-1,51
 432 234 432 234 425.5 232.5 c 128,-1,52
 419 231 419 231 412.5 228.5 c 0,53,54
 399 223.307692308 399 223.307692308 399 216 c 1,44,-1
EndSplineSet
EndChar

StartChar: I
Encoding: 73 73 8
Width: 387
Flags: HMW
HStem: -41 21G<88 165.5> 648 20G<556 604.5>
LayerCount: 2
Fore
SplineSet
12 71 m 0,0,1
 12 128 12 128 65.5 209.5 c 128,-1,2
 119 291 119 291 197.5 368.5 c 128,-1,3
 276 446 276 446 358 515 c 128,-1,4
 440 584 440 584 503.5 626 c 128,-1,5
 567 668 567 668 585 668 c 0,6,7
 614 668 614 668 643 642.5 c 128,-1,8
 672 617 672 617 672 593 c 0,9,10
 672 569 672 569 555.5 413.5 c 128,-1,11
 439 258 439 258 300 108.5 c 128,-1,12
 161 -41 161 -41 111 -41 c 0,13,14
 77 -41 77 -41 44.5 -4.5 c 128,-1,15
 12 32 12 32 12 71 c 0,0,1
EndSplineSet
EndChar

StartChar: J
Encoding: 74 74 9
Width: 674
Flags: HMW
HStem: -267 63<-22.5 89> 269 64 492 201<679 736 587 739>
VStem: 183 189<327 467> 762 95<449.5 599>
LayerCount: 2
Fore
SplineSet
857 546 m 0,0,1
 857 447 857 447 679 233 c 1,2,3
 743 189 743 189 743 156 c 0,4,5
 743 134 743 134 722 129 c 0,6,7
 624 105 624 105 525 67 c 1,8,9
 378 -77 378 -77 235 -172 c 128,-1,10
 92 -267 92 -267 4 -267 c 0,11,12
 -33 -267 -33 -267 -61 -228.5 c 128,-1,13
 -89 -190 -89 -190 -89 -151 c 0,14,15
 -89 -79 -89 -79 -38.5 -12 c 128,-1,16
 12 55 12 55 90 103 c 128,-1,17
 168 151 168 151 260 188 c 0,18,19
 441.513513514 261 441.513513514 261 583 261 c 0,20,21
 595 261 595 261 617 259 c 1,22,23
 762 416 762 416 762 468 c 0,24,25
 762 492 762 492 728 492 c 0,26,27
 681 492 681 492 594.5 461.5 c 128,-1,28
 508 431 508 431 440 391.5 c 128,-1,29
 372 352 372 352 372 330 c 0,30,31
 372 323 372 323 394 323 c 1,32,-1
 472 333 l 1,33,34
 499 333 499 333 499 315 c 0,35,36
 499 295 499 295 457.5 282 c 128,-1,37
 416 269 416 269 379 269 c 0,38,39
 300 269 300 269 241.5 306.5 c 128,-1,40
 183 344 183 344 183 410 c 0,41,42
 183 465 183 465 266.5 532.5 c 128,-1,43
 350 600 350 600 470 646.5 c 128,-1,44
 590 693 590 693 677.5 693 c 0,45,46
 857 693 857 693 857 546 c 0,0,1
69 -201 m 0,47,48
 69 -204 69 -204 73 -204 c 0,49,50
 96 -204 96 -204 170.5 -149.5 c 128,-1,51
 245 -95 245 -95 342 -9 c 1,52,53
 222 -66 222 -66 145.5 -118.5 c 128,-1,54
 69 -171 69 -171 69 -201 c 0,47,48
EndSplineSet
EndChar

StartChar: L
Encoding: 76 76 10
Width: 802
Flags: HMW
HStem: -104 57<7 46.5 7 68> 39 220 325 110 648 54
VStem: -105 105<-16 -15.5 -44 76> 959 114<620 645>
LayerCount: 2
Fore
SplineSet
507 249 m 1,0,1
 623.852140078 235.13618677 623.852140078 235.13618677 712 192 c 0,2,3
 759 169 759 169 786.5 130 c 128,-1,4
 814 91 814 91 814 41 c 0,5,6
 814 11.3333333333 814 11.3333333333 791 7.5 c 0,7,8
 782 6 782 6 735.5 6 c 128,-1,9
 689 6 689 6 549.5 21.5 c 128,-1,10
 410 37 410 37 308 39 c 1,11,12
 148 -104 148 -104 19 -104 c 0,13,14
 -35 -104 -35 -104 -70 -68.5 c 128,-1,15
 -105 -33 -105 -33 -105 14 c 0,16,17
 -105 118 -105 118 4.5 188.5 c 128,-1,18
 114 259 114 259 344 259 c 0,19,20
 388 259 388 259 443 255 c 1,21,22
 463 278 463 278 501 324 c 1,23,24
 458 326 458 326 429 343 c 128,-1,25
 400 360 400 360 389 405 c 1,26,27
 389 435 389 435 420 435 c 0,28,29
 513 435 513 435 618 460 c 1,30,31
 722 575 722 575 812.5 638 c 128,-1,32
 903 701 903 701 997 702 c 1,33,34
 1073 695 1073 695 1073 636 c 0,35,36
 1073 563 1073 563 997 493 c 128,-1,37
 921 423 921 423 805 378 c 128,-1,38
 689 333 689 333 571 325 c 1,39,40
 529 275 529 275 507 249 c 1,0,1
959 644 m 0,41,42
 959 648 959 648 953 648 c 0,43,44
 861 648 861 648 711 486 c 1,45,46
 817 521 817 521 888 565 c 128,-1,47
 959 609 959 609 959 644 c 0,41,42
0 -42 m 0,48,49
 0 -47 0 -47 9 -47 c 0,50,51
 110 -47 110 -47 223 36 c 1,52,53
 136 30 136 30 68 11.5 c 128,-1,54
 0 -7 0 -7 0 -42 c 0,48,49
EndSplineSet
EndChar

StartChar: M
Encoding: 77 77 11
Width: 822
Flags: HMW
HStem: -44 171 2 125<-90.5 -8.5> 755 20G<1137 1174>
LayerCount: 2
Fore
SplineSet
18.5 204 m 128,-1,1
 -21 145 -21 145 -21 136 c 128,-1,2
 -21 127 -21 127 -15 127 c 128,-1,3
 -9 127 -9 127 19 151 c 128,-1,4
 47 175 47 175 115.5 236 c 128,-1,5
 184 297 184 297 245 350 c 128,-1,6
 306 403 306 403 405.5 508 c 128,-1,7
 505 613 505 613 565 678 c 128,-1,8
 625 743 625 743 634 743 c 0,9,10
 664 743 664 743 695.5 691 c 128,-1,11
 727 639 727 639 727 618 c 128,-1,12
 727 597 727 597 687 509.5 c 2,13,-1
 647 422 l 1,14,15
 647 418 647 418 649.5 418 c 128,-1,16
 652 418 652 418 892.5 596.5 c 128,-1,17
 1133 775 1133 775 1160 775 c 0,18,19
 1180 775 1180 775 1199 754 c 128,-1,20
 1218 733 1218 733 1218 711.5 c 128,-1,21
 1218 690 1218 690 1106 554 c 128,-1,22
 994 418 994 418 881.5 284 c 128,-1,23
 769 150 769 150 769 131 c 0,24,25
 769 128 769 128 774 128 c 128,-1,26
 779 128 779 128 797 143.5 c 128,-1,27
 815 159 815 159 827 159 c 0,28,29
 848 159 848 159 848 139.5 c 128,-1,30
 848 120 848 120 799 77 c 128,-1,31
 750 34 750 34 674.5 -5 c 128,-1,32
 599 -44 599 -44 545 -44 c 128,-1,33
 491 -44 491 -44 470.5 -20.5 c 128,-1,34
 450 3 450 3 450 38 c 0,35,36
 450 94 450 94 525.5 192 c 128,-1,37
 601 290 601 290 660 335 c 0,38,39
 665 340 665 340 665 342.5 c 128,-1,40
 665 345 665 345 662 345 c 0,41,42
 652 345 652 345 556.5 260.5 c 0,43,44
 270 7 270 7 231 7 c 0,45,46
 217 7 217 7 198 29 c 128,-1,47
 179 51 179 51 179 63 c 0,48,49
 179 114.421875 179 114.421875 276 267.5 c 0,50,51
 308 318 308 318 308 320 c 1,52,-1
 305 322 l 1,53,54
 303 322 303 322 300 319 c 2,55,-1
 203 224 l 2,56,57
 -23.6736842105 2 -23.6736842105 2 -80 2 c 0,58,59
 -108 2 -108 2 -108 49.5 c 128,-1,60
 -108 97 -108 97 -55.5 197.5 c 128,-1,61
 -3 298 -3 298 32 298 c 0,62,63
 58 298 58 298 58 272 c 0,64,0
 58 263 58 263 18.5 204 c 128,-1,1
EndSplineSet
EndChar

StartChar: N
Encoding: 78 78 12
Width: 545
Flags: HMW
HStem: -12 21G<292 355.5> 730 20G<571.5 638>
LayerCount: 2
Fore
SplineSet
595.5 396.5 m 128,-1,1
 567 335 567 335 567 329.5 c 128,-1,2
 567 324 567 324 570 324 c 0,3,4
 578 324 578 324 587 334.5 c 128,-1,5
 596 345 596 345 694 452 c 0,6,7
 922.645919339 701.644013973 922.645919339 701.644013973 1003 732 c 1,8,9
 1029 743 1029 743 1044 743 c 128,-1,10
 1059 743 1059 743 1074.5 732.5 c 128,-1,11
 1090 722 1090 722 1090 712.5 c 128,-1,12
 1090 703 1090 703 1081 695 c 2,13,-1
 1063.5 681.5 l 2,14,15
 901.715935335 556.695150115 901.715935335 556.695150115 738 381 c 0,16,17
 711 351 711 351 665.5 301 c 128,-1,18
 620 251 620 251 592 220 c 128,-1,19
 564 189 564 189 525 148 c 128,-1,20
 486 107 486 107 459.5 82.5 c 128,-1,21
 433 58 433 58 404.5 34 c 0,22,23
 349.875 -12 349.875 -12 316.4375 -12 c 128,-1,24
 283 -12 283 -12 248 35.5 c 128,-1,25
 213 83 213 83 213 113 c 128,-1,26
 213 143 213 143 271 266.5 c 128,-1,27
 329 390 329 390 382 442 c 0,28,29
 395 455 395 455 395 462.5 c 128,-1,30
 395 470 395 470 386.5 470 c 128,-1,31
 378 470 378 470 370 460.5 c 128,-1,32
 362 451 362 451 325.5 408.5 c 128,-1,33
 289 366 289 366 262 335.5 c 128,-1,34
 235 305 235 305 191.5 256.5 c 128,-1,35
 148 208 148 208 112.5 174 c 128,-1,36
 77 140 77 140 39 106 c 0,37,38
 -39.2352941176 36 -39.2352941176 36 -81 36 c 1,39,40
 -116 38 -116 38 -116 86 c 128,-1,41
 -116 134 -116 134 -77 223 c 128,-1,42
 -38 312 -38 312 -5 312 c 0,43,44
 17 312 17 312 17 293 c 0,45,46
 17 278 17 278 -12.5 220 c 128,-1,47
 -42 162 -42 162 -42 154.5 c 128,-1,48
 -42 147 -42 147 -38 147 c 0,49,50
 -29 147 -29 147 31 202.5 c 128,-1,51
 91 258 91 258 146.5 313.5 c 2,52,-1
 202 369 l 1,53,54
 275.662269129 437.960422164 275.662269129 437.960422164 436 615 c 0,55,56
 484 668 484 668 534 709 c 128,-1,57
 584 750 584 750 615 750 c 128,-1,58
 646 750 646 750 664 710 c 128,-1,59
 682 670 682 670 682 638 c 128,-1,60
 682 606 682 606 653 532 c 128,-1,0
 624 458 624 458 595.5 396.5 c 128,-1,1
EndSplineSet
EndChar

StartChar: O
Encoding: 79 79 13
Width: 554
Flags: HMW
HStem: -19 108<301.5 309> 540 172<594.5 617> 587 125<568.5 774>
VStem: 36 245<112.5 180 112.5 319> 780 103<578 581.5 551.5 660>
LayerCount: 2
Fore
SplineSet
786 660 m 1,0,1
 812 675 812 675 835.5 675 c 128,-1,2
 859 675 859 675 871 659 c 128,-1,3
 883 643 883 643 883 615.5 c 128,-1,4
 883 588 883 588 849 526 c 128,-1,5
 815 464 815 464 760 393 c 128,-1,6
 705 322 705 322 630 248.5 c 128,-1,7
 555 175 555 175 478 115.5 c 128,-1,8
 401 56 401 56 319.5 18.5 c 128,-1,9
 238 -19 238 -19 177.5 -19 c 128,-1,10
 117 -19 117 -19 76.5 27 c 128,-1,11
 36 73 36 73 36 163 c 128,-1,12
 36 253 36 253 81.5 339.5 c 128,-1,13
 127 426 127 426 199 491.5 c 128,-1,14
 271 557 271 557 357 608 c 128,-1,15
 443 659 443 659 527.5 685.5 c 128,-1,16
 612 712 612 712 681 712 c 128,-1,17
 750 712 750 712 780 660 c 1,18,-1
 786 660 l 1,0,1
281 125 m 0,19,20
 281 89 281 89 311 89 c 0,21,22
 363 89 363 89 477 186 c 128,-1,23
 591 283 591 283 685 402 c 128,-1,24
 779 521 779 521 780 578 c 0,25,26
 780 587 780 587 772 587 c 0,27,28
 751 587 751 587 691 519 c 128,-1,29
 631 451 631 451 623 427 c 0,30,31
 622 426 622 426 619.5 422 c 128,-1,32
 617 418 617 418 614.5 414.5 c 0,33,34
 607.714285714 405 607.714285714 405 593.857142857 405 c 128,-1,35
 580 405 580 405 571 413.5 c 128,-1,36
 562 422 562 422 562 435 c 128,-1,37
 562 448 562 448 590.5 491 c 128,-1,38
 619 534 619 534 619 537 c 128,-1,39
 619 540 619 540 616 540 c 0,40,41
 594 540 594 540 512.5 460.5 c 128,-1,42
 431 381 431 381 356 278.5 c 128,-1,43
 281 176 281 176 281 125 c 0,19,20
EndSplineSet
EndChar

StartChar: K
Encoding: 75 75 14
Width: 752
Flags: HMW
HStem: -78 21G<552 679.5> -3 21G<106.5 159> 715 20G<1037.5 1072>
LayerCount: 2
Fore
SplineSet
60.5 45 m 128,-1,1
 25 93 25 93 25 129 c 128,-1,2
 25 165 25 165 99 263.5 c 128,-1,3
 173 362 173 362 272 463 c 128,-1,4
 371 564 371 564 481.5 641.5 c 128,-1,5
 592 719 592 719 656 719 c 0,6,7
 694 719 694 719 701 663 c 1,8,-1
 701 661 l 2,9,10
 701 630 701 630 639 542 c 128,-1,11
 577 454 577 454 542 414 c 1,12,13
 533 402 533 402 533 398.5 c 128,-1,14
 533 395 533 395 537.5 395 c 128,-1,15
 542 395 542 395 559 400 c 0,16,17
 633 424 633 424 736 481 c 128,-1,18
 839 538 839 538 902.5 580 c 128,-1,19
 966 622 966 622 974.5 629 c 128,-1,20
 983 636 983 636 983 638.5 c 128,-1,21
 983 641 983 641 979.5 641 c 128,-1,22
 976 641 976 641 928.5 619 c 128,-1,23
 881 597 881 597 871 597 c 128,-1,24
 861 597 861 597 842.5 607.5 c 128,-1,25
 824 618 824 618 824 634 c 0,26,27
 824 661 824 661 921.5 698 c 128,-1,28
 1019 735 1019 735 1051 735 c 0,29,30
 1122 735 1122 735 1122 699 c 0,31,32
 1122 655 1122 655 1047 593.5 c 128,-1,33
 972 532 972 532 870.5 479 c 0,34,35
 683.870967742 381.548387097 683.870967742 381.548387097 615 354 c 1,36,37
 608 350 608 350 608 344 c 1,38,39
 747 27 747 27 747 -18 c 0,40,41
 747 -46 747 -46 720.5 -62 c 128,-1,42
 694 -78 694 -78 645 -78 c 128,-1,43
 596 -78 596 -78 552 -47 c 128,-1,44
 508 -16 508 -16 483.5 28 c 128,-1,45
 459 72 459 72 442.5 116 c 128,-1,46
 426 160 426 160 415.5 191 c 128,-1,47
 405 222 405 222 399.75 222 c 128,-1,48
 394.5 222 394.5 222 388.25 216.5 c 128,-1,49
 382 211 382 211 357.5 185.5 c 128,-1,50
 333 160 333 160 303.5 130.5 c 128,-1,51
 274 101 274 101 240.5 69.5 c 0,52,53
 163.396825397 -3 163.396825397 -3 129.698412698 -3 c 128,-1,0
 96 -3 96 -3 60.5 45 c 128,-1,1
EndSplineSet
EndChar

StartChar: product
Encoding: 8719 8719 15
Width: 500
Flags: HMW
HStem: -238 21G<132 163> 561 127<635.5 671 577 717.5>
LayerCount: 2
Fore
SplineSet
341 151 m 0,0,1
 341 153 341 153 336.5 153 c 128,-1,2
 332 153 332 153 319.5 145 c 128,-1,3
 307 137 307 137 272.5 117.5 c 128,-1,4
 238 98 238 98 161.5 65.5 c 128,-1,5
 85 33 85 33 42.5 33 c 128,-1,6
 0 33 0 33 -32 61.5 c 128,-1,7
 -64 90 -64 90 -68 161 c 1,8,9
 -68 205 -68 205 -49 254 c 128,-1,10
 -30 303 -30 303 -5 341 c 128,-1,11
 20 379 20 379 52.5 417 c 0,12,13
 105.498652291 478.967654987 105.498652291 478.967654987 140 507 c 1,14,15
 205 563 205 563 278 602 c 128,-1,16
 351 641 351 641 418 658 c 0,17,18
 536.235294118 688 536.235294118 688 615.617647059 688 c 128,-1,19
 695 688 695 688 745.5 660.5 c 128,-1,20
 796 633 796 633 796 592 c 0,21,22
 796 563 796 563 737 492 c 128,-1,23
 678 421 678 421 640 421 c 0,24,25
 627 421 627 421 621.5 427 c 128,-1,26
 616 433 616 433 617 441.5 c 128,-1,27
 618 450 618 450 644 481 c 128,-1,28
 670 512 670 512 693 536.5 c 128,-1,29
 716 561 716 561 714 561 c 0,30,31
 641 561 641 561 519 481 c 128,-1,32
 397 401 397 401 306.5 309 c 128,-1,33
 216 217 216 217 216 179 c 0,34,35
 216 164 216 164 232 164 c 0,36,37
 273 164 273 164 474 301 c 0,38,39
 498 317 498 317 517 335.5 c 128,-1,40
 536 354 536 354 545 361.5 c 128,-1,41
 554 369 554 369 566.5 369 c 128,-1,42
 579 369 579 369 588.5 359.5 c 128,-1,43
 598 350 598 350 600 338 c 1,44,45
 600 326 600 326 587 297.5 c 128,-1,46
 574 269 574 269 570.5 265 c 128,-1,47
 567 261 567 261 548.5 236.5 c 0,48,49
 505.109090909 179.036363636 505.109090909 179.036363636 445.554545455 94.0181818182 c 128,-1,50
 386 9 386 9 295.5 -99.5 c 128,-1,51
 205 -208 205 -208 187.5 -223 c 128,-1,52
 170 -238 170 -238 147.5 -238 c 128,-1,53
 125 -238 125 -238 110.5 -215.5 c 128,-1,54
 96 -193 96 -193 96 -172 c 0,55,56
 98 -127 98 -127 131 -75 c 1,57,58
 170.142857143 -16.2857142857 170.142857143 -16.2857142857 304.5 111 c 0,59,60
 333 138 333 138 337 142.5 c 128,-1,61
 341 147 341 147 341 151 c 0,0,1
EndSplineSet
EndChar

StartChar: P
Encoding: 80 80 16
Width: 496
Flags: HMW
HStem: -8 21G<174 189> 245 162<246 307 246 331> 319 88 546 188<600 666 458.5 727.5>
VStem: -7 168<387 415.5 384 507> 810 62
LayerCount: 2
Fore
SplineSet
302 318 m 2,0,-1
 357 315 l 1,1,2
 378 315 378 315 390 316 c 1,3,4
 417 349 417 349 452.5 391.5 c 0,5,6
 519.372093023 471.558139535 519.372093023 471.558139535 525 480 c 0,7,8
 549 514 549 514 570 514 c 0,9,10
 581 514 581 514 590 507 c 128,-1,11
 599 500 599 500 599 486.5 c 128,-1,12
 599 473 599 473 481 328 c 1,13,14
 608 353 608 353 709.016806723 407.079704609 c 128,-1,15
 810.033613445 461.159409218 810.033613445 461.159409218 810.033613445 520.866605466 c 0,16,17
 810.033613445 546 810.033613445 546 706.516806723 546 c 128,-1,18
 603 546 603 546 475 519 c 128,-1,19
 347 492 347 492 254 453 c 128,-1,20
 161 414 161 414 161 385 c 0,21,22
 161 382 161 382 168.5 382 c 128,-1,23
 176 382 176 382 211 394.5 c 128,-1,24
 246 407 246 407 258 407 c 128,-1,25
 270 407 270 407 273 399 c 1,26,27
 273 374 273 374 217.5 346.5 c 128,-1,28
 162 319 162 319 109 319 c 128,-1,29
 56 319 56 319 24.5 345 c 128,-1,30
 -7 371 -7 371 -7 428 c 0,31,32
 -7 504 -7 504 88 576.5 c 128,-1,33
 183 649 183 649 321 691.5 c 128,-1,34
 459 734 459 734 587 734 c 128,-1,35
 715 734 715 734 793.5 685 c 128,-1,36
 872 636 872 636 872 534 c 0,37,38
 872 497 872 497 841.5 453.5 c 128,-1,39
 811 410 811 410 756 368.5 c 128,-1,40
 701 327 701 327 611.5 294.5 c 128,-1,41
 522 262 522 262 417 251 c 1,42,43
 317.186440678 130.711864407 317.186440678 130.711864407 268.593220339 73.3559322034 c 128,-1,44
 220 16 220 16 210.5 4 c 128,-1,45
 201 -8 201 -8 186 -8 c 128,-1,46
 171 -8 171 -8 163.5 2.5 c 128,-1,47
 156 13 156 13 156 23.5 c 128,-1,48
 156 34 156 34 162 42 c 0,49,50
 245 141 245 141 331 245 c 1,51,-1
 307 245 l 2,52,53
 290 245 290 245 274.5 254 c 128,-1,54
 259 263 259 263 259 281.5 c 128,-1,55
 259 300 259 300 272.5 309 c 128,-1,56
 286 318 286 318 302 318 c 2,0,-1
EndSplineSet
EndChar

StartChar: Q
Encoding: 81 81 17
Width: 805
Flags: HMW
HStem: -42 47<68 104.5 68 122> -2 21G<821.5 857.5> 64 199<225.5 239> 324 41<350 366.5 349.5 375.5> 503 179<543.5 789.5>
VStem: 186 159<389.5 392 368 493.5> 821 69<486 492>
LayerCount: 2
Fore
SplineSet
921 37 m 0,0,1
 921 -2 921 -2 840 -2 c 0,2,3
 817.035714286 -2 817.035714286 -2 633.017857143 20.5 c 128,-1,4
 449 43 449 43 385 50 c 1,5,6
 194 -42 194 -42 84 -42 c 0,7,8
 14.5208333333 -42 14.5208333333 -42 -32.5 -5 c 0,9,10
 -63 19 -63 19 -63 56 c 0,11,12
 -63 110 -63 110 -31.5 151 c 128,-1,13
 0 192 0 192 55.5 216 c 0,14,15
 164.1875 263 164.1875 263 311.59375 263 c 128,-1,16
 459 263 459 263 590 235 c 1,17,18
 690 310 690 310 755 380 c 128,-1,19
 820 450 820 450 821 486 c 0,20,21
 821 503 821 503 775 503 c 0,22,23
 681 503 681 503 513 452.5 c 128,-1,24
 345 402 345 402 345 369 c 0,25,26
 345 365 345 365 356.5 365 c 128,-1,27
 368 365 368 365 415 376.5 c 128,-1,28
 462 388 462 388 468 388 c 0,29,30
 491 388 491 388 494 375 c 1,31,32
 494 353 494 353 444.5 338.5 c 128,-1,33
 395 324 395 324 336 324.5 c 128,-1,34
 277 325 277 325 231.5 350.5 c 128,-1,35
 186 376 186 376 186 419 c 0,36,37
 186 490 186 490 259 552 c 128,-1,38
 332 614 332 614 437 648 c 128,-1,39
 542 682 542 682 647.5 682 c 128,-1,40
 753 682 753 682 821.5 640 c 128,-1,41
 890 598 890 598 890 512 c 0,42,43
 890 453 890 453 826.5 375.5 c 128,-1,44
 763 298 763 298 658 219 c 1,45,46
 776 187 776 187 848.5 139 c 128,-1,47
 921 91 921 91 921 37 c 0,0,1
293 60 m 1,48,49
 239 64 239 64 218 64 c 128,-1,50
 197 64 197 64 155 53 c 128,-1,51
 113 42 113 42 86.5 29 c 128,-1,52
 60 16 60 16 60 9 c 0,53,54
 60 5 60 5 72 5 c 0,55,56
 165 5 165 5 293 60 c 1,48,49
EndSplineSet
EndChar

StartChar: S
Encoding: 83 83 18
Width: 651
Flags: HMW
HStem: -55 219 522 198<660 706>
LayerCount: 2
Fore
SplineSet
456 325 m 2,0,-1
 245 329 l 2,1,2
 184 330 184 330 144 362 c 128,-1,3
 104 394 104 394 104 443 c 0,4,5
 104 510 104 510 202.5 576.5 c 128,-1,6
 301 643 301 643 436.5 681.5 c 128,-1,7
 572 720 572 720 669.5 720 c 0,8,9
 864 720 864 720 864 621 c 0,10,11
 864 589 864 589 795.5 502 c 128,-1,12
 727 415 727 415 693 415 c 0,13,14
 686 415 686 415 679.5 421.5 c 128,-1,15
 673 428 673 428 673 438 c 128,-1,16
 673 448 673 448 697.5 474.5 c 128,-1,17
 722 501 722 501 722 513 c 0,18,19
 722 522 722 522 699 522 c 0,20,21
 637 522 637 522 503 475.5 c 128,-1,22
 369 429 369 429 369 402 c 0,23,24
 369 391 369 391 391 388.5 c 128,-1,25
 413 386 413 386 469 384.5 c 128,-1,26
 525 383 525 383 567 377 c 128,-1,27
 609 371 609 371 635.5 359.5 c 128,-1,28
 662 348 662 348 676.5 335 c 128,-1,29
 691 322 691 322 699.5 305 c 0,30,31
 713 278 713 278 713 251 c 0,32,33
 713 179 713 179 614.5 106 c 128,-1,34
 516 33 516 33 377.5 -11 c 128,-1,35
 239 -55 239 -55 131 -55 c 0,36,37
 -93 -55 -93 -55 -93 86 c 0,38,39
 -93 151 -93 151 10 193 c 1,40,41
 42.625 164 42.625 164 155 164 c 1,42,43
 237 169 237 169 306 187.5 c 128,-1,44
 375 206 375 206 414 228.5 c 128,-1,45
 453 251 453 251 475 271.5 c 128,-1,46
 497 292 497 292 500 306 c 1,47,48
 498 325 498 325 456 325 c 2,0,-1
EndSplineSet
EndChar

StartChar: T
Encoding: 84 84 19
Width: 190
Flags: HMW
HStem: -63 21G<-46 -31> 425 200<128.5 144.5 128.5 151.5> 719 20G<574.5 677>
VStem: -33 217<516 694.5>
LayerCount: 2
Fore
SplineSet
799 634 m 0,0,1
 799 604 799 604 593 533 c 128,-1,2
 387 462 387 462 336 460 c 1,3,4
 366 456 366 456 366 435 c 0,5,6
 366 422 366 422 338.5 389.5 c 128,-1,7
 311 357 311 357 208 232 c 0,8,9
 202.585365854 223.87804878 202.585365854 223.87804878 104.792682927 97.4390243902 c 128,-1,10
 7 -29 7 -29 0 -36 c 0,11,12
 -27 -63 -27 -63 -39.5 -63 c 128,-1,13
 -52 -63 -52 -63 -64 -54.5 c 128,-1,14
 -76 -46 -76 -46 -76 -31 c 0,15,16
 -76 5 -76 5 -28 76.5 c 128,-1,17
 20 148 20 148 68.5 201.5 c 2,18,-1
 117 255 l 1,19,20
 191 339 191 339 290 438 c 0,21,22
 304 451 304 451 309 454 c 1,23,24
 184 425 184 425 124 425 c 128,-1,25
 64 425 64 425 15.5 462.5 c 128,-1,26
 -33 500 -33 500 -33 544.5 c 128,-1,27
 -33 589 -33 589 49.5 647.5 c 128,-1,28
 132 706 132 706 158 706 c 128,-1,29
 184 706 184 706 184 688 c 0,30,31
 184 679 184 679 162.5 660.5 c 128,-1,32
 141 642 141 642 132.5 638.5 c 128,-1,33
 124 635 124 635 124 630 c 128,-1,34
 124 625 124 625 131 625 c 128,-1,35
 138 625 138 625 235.5 653.5 c 128,-1,36
 333 682 333 682 459 710.5 c 128,-1,37
 585 739 585 739 661 739 c 0,38,39
 695 739 695 739 747 708 c 128,-1,40
 799 677 799 677 799 634 c 0,0,1
EndSplineSet
EndChar

StartChar: U
Encoding: 85 85 20
Width: 660
Flags: HMW
HStem: -21 21G<406 464.5> 694 20G<528 590.5>
LayerCount: 2
Fore
SplineSet
462 696 m 128,-1,1
 526 714 526 714 564.5 714 c 128,-1,2
 603 714 603 714 628 692 c 128,-1,3
 653 670 653 670 653 637 c 0,4,5
 653 568 653 568 585 490 c 1,6,7
 467 358 467 358 465.5 356.5 c 128,-1,8
 464 355 464 355 464 351 c 0,9,10
 464 341 464 341 473 341 c 0,11,12
 478 341 478 341 482 344.5 c 128,-1,13
 486 348 486 348 591.5 427 c 0,14,15
 893.292225201 652.986595174 893.292225201 652.986595174 915.646112601 672.493297587 c 128,-1,16
 938 692 938 692 957.5 692 c 128,-1,17
 977 692 977 692 988 683.5 c 128,-1,18
 999 675 999 675 999 656.5 c 128,-1,19
 999 638 999 638 972 605 c 0,20,21
 971 604 971 604 894 518 c 128,-1,22
 817 432 817 432 750.5 356 c 0,23,24
 523 96 523 96 523 69 c 0,25,26
 523 63 523 63 528.5 63 c 128,-1,27
 534 63 534 63 539 65.5 c 128,-1,28
 544 68 544 68 593.5 100 c 128,-1,29
 643 132 643 132 656.5 132 c 128,-1,30
 670 132 670 132 670 121 c 0,31,32
 670 96 670 96 625 62 c 128,-1,33
 580 28 580 28 522 3.5 c 128,-1,34
 464 -21 464 -21 428 -21 c 0,35,36
 356 -21 356 -21 347 58 c 1,37,38
 350 117 350 117 435 228 c 1,39,40
 442 235 442 235 442 239.5 c 128,-1,41
 442 244 442 244 439 244 c 0,42,43
 427 244 427 244 351.5 187 c 128,-1,44
 276 130 276 130 189.5 73 c 128,-1,45
 103 16 103 16 64.5 16 c 128,-1,46
 26 16 26 16 5 51 c 128,-1,47
 -16 86 -16 86 -16 128 c 128,-1,48
 -16 170 -16 170 23 229.5 c 128,-1,49
 62 289 62 289 122.5 348.5 c 128,-1,50
 183 408 183 408 241 459.5 c 128,-1,51
 299 511 299 511 354 556 c 128,-1,52
 409 601 409 601 417 608.5 c 128,-1,53
 425 616 425 616 425 619.5 c 128,-1,54
 425 623 425 623 416.5 623 c 128,-1,55
 408 623 408 623 364.5 599 c 128,-1,56
 321 575 321 575 308 575 c 128,-1,57
 295 575 295 575 292 589 c 1,58,59
 292 618 292 618 345 648 c 128,-1,0
 398 678 398 678 462 696 c 128,-1,1
EndSplineSet
EndChar

StartChar: V
Encoding: 86 86 21
Width: 438
Flags: HMW
HStem: -40 21G<84.5 115 115 116> 722 20G<503 592>
LayerCount: 2
Fore
SplineSet
-10 127 m 1,0,1
 -10 213 -10 213 36 306.5 c 128,-1,2
 82 400 82 400 153 475 c 128,-1,3
 224 550 224 550 305 612 c 128,-1,4
 386 674 386 674 460.5 708 c 128,-1,5
 535 742 535 742 582 742 c 0,6,7
 600 742 600 742 621.5 728 c 128,-1,8
 643 714 643 714 643 695.5 c 128,-1,9
 643 677 643 677 606 626.5 c 128,-1,10
 569 576 569 576 516.5 512 c 128,-1,11
 464 448 464 448 411 380 c 128,-1,12
 358 312 358 312 321 246 c 128,-1,13
 284 180 284 180 284 139 c 0,14,15
 284 123 284 123 300 123 c 0,16,17
 330 123 330 123 392 183.5 c 128,-1,18
 454 244 454 244 529.5 330.5 c 128,-1,19
 605 417 605 417 686.5 503.5 c 128,-1,20
 768 590 768 590 854.5 650.5 c 128,-1,21
 941 711 941 711 1007 711 c 0,22,23
 1026 711 1026 711 1047 700.5 c 128,-1,24
 1068 690 1068 690 1068 677.5 c 128,-1,25
 1068 665 1068 665 1057 658 c 128,-1,26
 1046 651 1046 651 1019.5 638 c 128,-1,27
 993 625 993 625 956 604.5 c 128,-1,28
 919 584 919 584 859 540.5 c 128,-1,29
 799 497 799 497 729 438 c 0,30,31
 562.02283105 297.262100457 562.02283105 297.262100457 348 56 c 0,32,33
 262 -40 262 -40 116 -40 c 2,34,-1
 115 -40 l 2,35,36
 71 -40 71 -40 31.5 15.5 c 128,-1,37
 -8 71 -8 71 -10 127 c 1,0,1
EndSplineSet
EndChar

StartChar: R
Encoding: 82 82 22
Width: 744
Flags: HMW
HStem: -84 21G<602.5 707> -1 21G<184 194> 339 67 529 183<591 620.5 400 722.5>
VStem: -7 161<412 419.5 393 532> 810 78<459.5 500.5>
LayerCount: 2
Fore
SplineSet
159 392 m 2,0,-1
 291 406 l 2,1,2
 300 406 300 406 308.5 401 c 128,-1,3
 317 396 317 396 317 388 c 128,-1,4
 317 380 317 380 298 372 c 0,5,6
 214 339 214 339 150 339 c 128,-1,7
 86 339 86 339 39.5 367.5 c 128,-1,8
 -7 396 -7 396 -7 453 c 0,9,10
 -7 528 -7 528 75 589 c 128,-1,11
 157 650 157 650 277 681 c 128,-1,12
 397 712 397 712 511 712 c 128,-1,13
 625 712 625 712 704.5 691.5 c 128,-1,14
 784 671 784 671 836 624 c 128,-1,15
 888 577 888 577 888 509 c 0,16,17
 888 463 888 463 833.5 418.5 c 128,-1,18
 779 374 779 374 707.5 346.5 c 128,-1,19
 636 319 636 319 567 308 c 1,20,21
 549 302 549 302 549 296 c 0,22,23
 549 288 549 288 665.5 149.5 c 128,-1,24
 782 11 782 11 782 -15 c 128,-1,25
 782 -41 782 -41 751.5 -62.5 c 128,-1,26
 721 -84 721 -84 683.5 -84 c 128,-1,27
 646 -84 646 -84 616 -74.5 c 128,-1,28
 586 -65 586 -65 557.5 -45 c 128,-1,29
 529 -25 529 -25 507 -7 c 128,-1,30
 485 11 485 11 458.5 42.5 c 128,-1,31
 432 74 432 74 419 90.5 c 0,32,33
 373.5 148.25 373.5 148.25 353 179 c 1,34,35
 237 36 237 36 227.5 27.5 c 128,-1,36
 218 19 218 19 213 14.5 c 128,-1,37
 208 10 208 10 205 7 c 0,38,39
 197 -1 197 -1 185 -1 c 128,-1,40
 173 -1 173 -1 159 24 c 1,41,42
 164 37 164 37 216 112 c 128,-1,43
 268 187 268 187 295 216 c 1,44,45
 308 235 308 235 308 240 c 128,-1,46
 308 245 308 245 296 253 c 1,47,48
 276 269 276 269 276 287.5 c 128,-1,49
 276 306 276 306 304 311 c 2,50,-1
 383 326 l 1,51,52
 475 445 475 445 494 464 c 128,-1,53
 513 483 513 483 532 483 c 128,-1,54
 551 483 551 483 551 465 c 0,55,56
 551 452 551 452 530 424 c 2,57,-1
 474 345 l 1,58,59
 483 345 483 345 561.5 365 c 128,-1,60
 640 385 640 385 725 420 c 128,-1,61
 810 455 810 455 810 485 c 0,62,63
 810 529 810 529 686 529 c 0,64,65
 594 529 594 529 466.5 506 c 128,-1,66
 339 483 339 483 246.5 450.5 c 128,-1,67
 154 418 154 418 154 394 c 0,68,69
 154 392 154 392 159 392 c 2,0,-1
EndSplineSet
EndChar

StartChar: W
Encoding: 87 87 23
Width: 676
Flags: HMW
HStem: -42 21G<332 401> 707 20G<380 444>
LayerCount: 2
Fore
SplineSet
328 337 m 2,0,-1
 334 339 l 1,1,2
 405.823529412 391.235294118 405.823529412 391.235294118 552 540.5 c 0,3,4
 623 613 623 613 667 655 c 1,5,6
 695 680 695 680 709 682 c 1,7,8
 745 682 745 682 774.5 652.5 c 128,-1,9
 804 623 804 623 804 582 c 0,10,11
 804 563 804 563 780 515 c 0,12,13
 746.333333333 447.666666667 746.333333333 447.666666667 673.5 336.5 c 2,14,-1
 645 293 l 2,15,16
 640 286 640 286 640 282 c 128,-1,17
 640 278 640 278 642 278 c 0,18,19
 646 278 646 278 669 301 c 128,-1,20
 692 324 692 324 782 404.5 c 128,-1,21
 872 485 872 485 948.5 552 c 128,-1,22
 1025 619 1025 619 1029 623 c 0,23,24
 1087 681 1087 681 1137 681 c 0,25,26
 1158 681 1158 681 1180.5 659.5 c 128,-1,27
 1203 638 1203 638 1203 621 c 0,28,29
 1203 600 1203 600 1155.5 578.5 c 128,-1,30
 1108 557 1108 557 936 422 c 0,31,32
 901 394 901 394 760 266 c 128,-1,33
 619 138 619 138 507.5 48 c 128,-1,34
 396 -42 396 -42 359.5 -42 c 128,-1,35
 323 -42 323 -42 301 -2 c 128,-1,36
 279 38 279 38 279 78.5 c 128,-1,37
 279 119 279 119 346 238 c 0,38,39
 356 254 356 254 356 259 c 128,-1,40
 356 264 356 264 355 264 c 0,41,42
 351 264 351 264 343 256.5 c 128,-1,43
 335 249 335 249 271.5 185.5 c 0,44,45
 91.1428571429 5.14285714286 91.1428571429 5.14285714286 66 2 c 1,46,47
 33 9 33 9 -5 47.5 c 128,-1,48
 -43 86 -43 86 -43 123 c 0,49,50
 -43 191 -43 191 15.5 297.5 c 128,-1,51
 74 404 74 404 152.5 497.5 c 128,-1,52
 231 591 231 591 314.5 659 c 128,-1,53
 398 727 398 727 444 727 c 1,54,55
 464 723 464 723 482.5 696.5 c 128,-1,56
 501 670 501 670 501 647 c 0,57,58
 501 590 501 590 334 357 c 0,59,60
 325 344 325 344 325 340.5 c 128,-1,61
 325 337 325 337 328 337 c 2,0,-1
EndSplineSet
EndChar

StartChar: X
Encoding: 88 88 24
Width: 605
Flags: HMW
HStem: -50 21G<3.5 73.5> 700 20G<195 220.5>
LayerCount: 2
Fore
SplineSet
587 2 m 1,0,1
 544 2 544 2 477 137 c 1,2,3
 457 170 457 170 417 241 c 1,4,5
 381 210 381 210 324.5 157.5 c 128,-1,6
 268 105 268 105 234.5 75.5 c 128,-1,7
 201 46 201 46 159.5 13 c 0,8,9
 80.2727272727 -50 80.2727272727 -50 27 -50 c 0,10,11
 -7 -50 -7 -50 -40 -11.5 c 128,-1,12
 -73 27 -73 27 -73 58 c 0,13,14
 -73 147 -73 147 29 253.5 c 128,-1,15
 131 360 131 360 288 464 c 1,16,-1
 175 657 l 1,17,18
 170 672 170 672 170 683.5 c 128,-1,19
 170 695 170 695 180 707.5 c 128,-1,20
 190 720 190 720 208 720 c 0,21,22
 233 720 233 720 253 676 c 0,23,24
 256 667 256 667 351 504 c 1,25,26
 462 573 462 573 562.5 621.5 c 128,-1,27
 663 670 663 670 685 670 c 0,28,29
 695.777777778 670 695.777777778 670 718.388888889 664.5 c 128,-1,30
 741 659 741 659 755 652 c 128,-1,31
 769 645 769 645 780.5 630 c 128,-1,32
 792 615 792 615 792 595.5 c 128,-1,33
 792 576 792 576 776 552.5 c 128,-1,34
 760 529 760 529 726 497.5 c 128,-1,35
 692 466 692 466 658.5 439 c 128,-1,36
 625 412 625 412 568.5 367 c 128,-1,37
 512 322 512 322 473 290 c 1,38,39
 552.260273973 153.095890411 552.260273973 153.095890411 566.130136986 132.547945205 c 128,-1,40
 580 112 580 112 588.5 98 c 0,41,42
 614 56 614 56 614 37 c 128,-1,43
 614 18 614 18 607 11 c 128,-1,44
 600 4 600 4 587 2 c 1,0,1
EndSplineSet
EndChar

StartChar: Y
Encoding: 89 89 25
Width: 544
Flags: HMW
HStem: -368 21G<99.5 130.5> 508 175
LayerCount: 2
Fore
SplineSet
535 483 m 2,0,1
 475 410 475 410 379.5 312 c 128,-1,2
 284 214 284 214 282 211 c 1,3,-1
 281 204 l 1,4,5
 281 195 281 195 287 195 c 128,-1,6
 293 195 293 195 310 205 c 128,-1,7
 327 215 327 215 415.5 275.5 c 128,-1,8
 504 336 504 336 646 448.5 c 128,-1,9
 788 561 788 561 880 658 c 0,10,11
 895 673 895 673 913 673 c 0,12,13
 943 673 943 673 943 638 c 0,14,15
 943 616.384615385 943 616.384615385 908 576 c 0,16,17
 895 561 895 561 875.5 539 c 128,-1,18
 856 517 856 517 850.5 511 c 128,-1,19
 845 505 845 505 797.5 451 c 128,-1,20
 750 397 750 397 697 337 c 128,-1,21
 644 277 644 277 572.5 195 c 128,-1,22
 501 113 501 113 440.5 43 c 0,23,24
 308.464169381 -109.768729642 308.464169381 -109.768729642 267.732084691 -165.384364821 c 128,-1,25
 227 -221 227 -221 206.5 -252 c 128,-1,26
 186 -283 186 -283 174.5 -302 c 128,-1,27
 163 -321 163 -321 152 -337.5 c 0,28,29
 131.666666667 -368 131.666666667 -368 112.833333333 -368 c 128,-1,30
 94 -368 94 -368 77 -339 c 128,-1,31
 60 -310 60 -310 60 -288 c 0,32,33
 60 -244 60 -244 113 -172 c 0,34,35
 143 -131 143 -131 289 31.5 c 128,-1,36
 435 194 435 194 468 225 c 0,37,38
 474 232 474 232 474 235 c 128,-1,39
 474 238 474 238 470 238 c 128,-1,40
 466 238 466 238 453 229 c 128,-1,41
 440 220 440 220 404 196 c 128,-1,42
 368 172 368 172 341.5 155 c 128,-1,43
 315 138 315 138 271.5 112 c 128,-1,44
 228 86 228 86 195 69.5 c 0,45,46
 112 28 112 28 68.5 28 c 128,-1,47
 25 28 25 28 0.5 62 c 128,-1,48
 -24 96 -24 96 -24 132 c 128,-1,49
 -24 168 -24 168 -10 198 c 0,50,51
 7 237 7 237 167 385 c 128,-1,52
 327 533 327 533 349 574 c 0,53,54
 351 578 351 578 351 580 c 128,-1,55
 351 582 351 582 345.5 582 c 128,-1,56
 340 582 340 582 336 579 c 128,-1,57
 332 576 332 576 312 564 c 128,-1,58
 292 552 292 552 272 540.5 c 0,59,60
 215.47826087 508 215.47826087 508 206.739130435 508 c 128,-1,61
 198 508 198 508 190.5 515.5 c 128,-1,62
 183 523 183 523 183 534 c 0,63,64
 183 560 183 560 227.5 595 c 128,-1,65
 272 630 272 630 338 656.5 c 128,-1,66
 404 683 404 683 459 683 c 0,67,68
 572 683 572 683 572 570 c 0,69,70
 572 550 572 550 563 528 c 128,-1,71
 554 506 554 506 544.5 494.5 c 2,72,-1
 535 483 l 2,0,1
EndSplineSet
EndChar

StartChar: Z
Encoding: 90 90 26
Width: 592
Flags: HMW
HStem: -18 246<30 427> 26 202<415.5 427 321.5 499> 409 216<177 367> 691 20G<312 354.5>
LayerCount: 2
Fore
SplineSet
558 21 m 1,0,-1
 484 26 l 1,1,2
 413 26 413 26 265 4 c 128,-1,3
 117 -18 117 -18 64.5 -18 c 128,-1,4
 12 -18 12 -18 -29 13.5 c 128,-1,5
 -70 45 -70 45 -70 88.5 c 128,-1,6
 -70 132 -70 132 24 197 c 128,-1,7
 118 262 118 262 230.5 316.5 c 128,-1,8
 343 371 343 371 437 416 c 128,-1,9
 531 461 531 461 531 466 c 0,10,11
 531 469 531 469 526 469 c 128,-1,12
 521 469 521 469 463 454 c 0,13,14
 289 409 289 409 212 409 c 0,15,16
 161 409 161 409 132 435.5 c 128,-1,17
 103 462 103 462 103 503.5 c 128,-1,18
 103 545 103 545 199 628 c 128,-1,19
 295 711 295 711 347 711 c 0,20,21
 368 711 368 711 368 695 c 0,22,23
 368 682 368 682 361 675 c 128,-1,24
 354 668 354 668 342 659.5 c 0,25,26
 310 636.833333333 310 636.833333333 310 632 c 0,27,28
 310 625 310 625 337.5 625 c 128,-1,29
 365 625 365 625 468.5 646.5 c 128,-1,30
 572 668 572 668 617 668 c 128,-1,31
 662 668 662 668 698 660 c 128,-1,32
 734 652 734 652 763 628.5 c 128,-1,33
 792 605 792 605 792 570 c 0,34,35
 792 550 792 550 774 532 c 128,-1,36
 756 514 756 514 737.5 503.5 c 128,-1,37
 719 493 719 493 680.5 476 c 128,-1,38
 642 459 642 459 446.5 358.5 c 128,-1,39
 251 258 251 258 212.5 237 c 128,-1,40
 174 216 174 216 174 210 c 0,41,42
 174 206 174 206 188 206 c 0,43,44
 206 206 206 206 216.5 209.5 c 128,-1,45
 227 213 227 213 228 213 c 0,46,47
 298 228 298 228 350.5 228 c 128,-1,48
 403 228 403 228 454 207.5 c 128,-1,49
 505 187 505 187 536 157.5 c 128,-1,50
 567 128 567 128 585 98 c 128,-1,51
 603 68 603 68 603 47 c 0,52,53
 603 21 603 21 558 21 c 1,0,-1
EndSplineSet
EndChar

StartChar: a
Encoding: 97 97 27
Width: 402
Flags: HMW
HStem: -23 111<214 297> -23 225<268.5 405.5> -8 21G<70 120.5> 301 20G<268 378>
VStem: 38 168<96.5 112> 237 212
LayerCount: 2
Fore
SplineSet
319 40 m 0,0,1
 319 34.75 319 34.75 326 33 c 1,2,3
 333.258064516 33 333.258064516 33 374.629032258 61.5 c 128,-1,4
 416 90 416 90 421.5 93 c 128,-1,5
 427 96 427 96 432 96 c 0,6,7
 446 96 446 96 446 82.5 c 128,-1,8
 446 69 446 69 375.5 23 c 128,-1,9
 305 -23 305 -23 276 -23 c 0,10,11
 264 -23 264 -23 250.5 -13 c 128,-1,12
 237 -3 237 -3 237 10.5 c 128,-1,13
 237 24 237 24 244 40 c 128,-1,14
 251 56 251 56 251 61.5 c 128,-1,15
 251 67 251 67 248 67 c 128,-1,16
 245 67 245 67 242 65 c 0,17,18
 145 -8 145 -8 99 -8 c 0,19,20
 73 -8 73 -8 58 11 c 128,-1,21
 43 30 43 30 40.5 49 c 2,22,-1
 38 68 l 1,23,24
 38 101 38 101 63.5 144.5 c 128,-1,25
 89 188 89 188 130.5 227.5 c 128,-1,26
 172 267 172 267 232.5 294 c 128,-1,27
 293 321 293 321 356 321 c 0,28,29
 390 321 390 321 419.5 303 c 128,-1,30
 449 285 449 285 449 261 c 128,-1,31
 449 237 449 237 402 232 c 1,32,33
 367 224 367 224 286.5 174.5 c 128,-1,34
 206 125 206 125 206 99 c 0,35,36
 206 88 206 88 217 88 c 0,37,38
 237 88 237 88 311.5 145 c 128,-1,39
 386 202 386 202 401 202 c 128,-1,40
 416 202 416 202 416 184 c 0,41,42
 416 171.071428571 416 171.071428571 406.5 159.535714286 c 128,-1,43
 397 148 397 148 393 143 c 0,44,45
 385 133 385 133 352 98.5 c 128,-1,46
 319 64 319 64 319 40 c 0,0,1
EndSplineSet
EndChar

StartChar: b
Encoding: 98 98 28
Width: 352
Flags: HMW
HStem: -14 65<89 197.5> 157 27<416.5 427> 671 20G<576.5 624>
VStem: 321 46
LayerCount: 2
Fore
SplineSet
339 273 m 1,0,-1
 381 277 l 1,1,2
 395 277 395 277 395 261 c 0,3,4
 395 254 395 254 378 195 c 1,5,6
 402 184 402 184 431.5 184 c 128,-1,7
 461 184 461 184 478 211 c 1,8,9
 488 211 488 211 488 201 c 0,10,11
 487 181 487 181 463 169 c 128,-1,12
 439 157 439 157 414 157 c 128,-1,13
 389 157 389 157 367 162 c 1,14,15
 366 116 366 116 275 51 c 128,-1,16
 184 -14 184 -14 112 -14 c 0,17,18
 33 -14 33 -14 33 78 c 0,19,20
 33 144 33 144 162.5 295 c 128,-1,21
 292 446 292 446 434 568.5 c 128,-1,22
 576 691 576 691 616 691 c 0,23,24
 627 691 627 691 632 666 c 128,-1,25
 637 641 637 641 637 616 c 0,26,27
 637 599 637 599 562.5 523.5 c 128,-1,28
 488 448 488 448 413.5 371 c 128,-1,29
 339 294 339 294 339 273 c 1,0,-1
299 220 m 2,30,-1
 299 231 l 1,31,32
 287 232 287 232 224.5 148.5 c 128,-1,33
 162 65 162 65 162 55 c 0,34,35
 162 51 162 51 166 51 c 0,36,37
 214 51 214 51 267.5 94.5 c 128,-1,38
 321 138 321 138 321 179 c 1,39,40
 316 184 316 184 312 187 c 128,-1,41
 308 190 308 190 305.5 193.5 c 128,-1,42
 303 197 303 197 302 200 c 0,43,44
 299 209 299 209 299 220 c 2,30,-1
EndSplineSet
EndChar

StartChar: c
Encoding: 99 99 29
Width: 330
Flags: HMW
HStem: -17 69<69.5 202.5> 141 182<282 306.5> 228 95<305 330.5>
VStem: 7 159<63.5 88.5 63.5 120>
LayerCount: 2
Fore
SplineSet
429 158 m 1,0,1
 428 148 428 148 364 105.5 c 128,-1,2
 300 63 300 63 216 23 c 128,-1,3
 132 -17 132 -17 95.5 -17 c 0,4,5
 59 -17 59 -17 33 5.5 c 128,-1,6
 7 28 7 28 7 57 c 0,7,8
 7 117 7 117 60.5 180.5 c 128,-1,9
 114 244 114 244 184.5 283.5 c 128,-1,10
 255 323 255 323 304.5 323 c 0,11,12
 354 323 354 323 379 310.5 c 128,-1,13
 404 298 404 298 404 264 c 0,14,15
 404 230 404 230 360.5 185.5 c 128,-1,16
 317 141 317 141 286 141 c 0,17,18
 266 141 266 141 266 153 c 0,19,20
 266 161 266 161 276 167 c 0,21,22
 287 173 287 173 311 195 c 128,-1,23
 335 217 335 217 335 225 c 0,24,25
 335 228 335 228 329 228 c 0,26,27
 294 228 294 228 230 164 c 128,-1,28
 166 100 166 100 166 68 c 0,29,30
 166 52 166 52 183.5 52 c 0,31,32
 201 52 201 52 240 72.5 c 128,-1,33
 279 93 279 93 336 128 c 128,-1,34
 393 163 393 163 401.5 167.5 c 0,35,36
 410 172 410 172 415 172 c 0,37,38
 429 172 429 172 429 158 c 1,0,1
EndSplineSet
EndChar

StartChar: d
Encoding: 100 100 30
Width: 450
Flags: HMW
HStem: -50 162<208 287> 19 93<84 231.5> 235 107<319 336.5> 666 20G<776.5 805>
LayerCount: 2
Fore
SplineSet
236 68 m 1,0,1
 236 72 236 72 231.5 72 c 128,-1,2
 227 72 227 72 179.5 45.5 c 128,-1,3
 132 19 132 19 104 19 c 128,-1,4
 76 19 76 19 60 39 c 128,-1,5
 44 59 44 59 44 81 c 0,6,7
 44 146 44 146 100.5 209 c 128,-1,8
 157 272 157 272 228 307 c 128,-1,9
 299 342 299 342 352 342 c 0,10,11
 385 342 385 342 402 334 c 128,-1,12
 419 326 419 326 421 326 c 2,13,-1
 423 326 l 2,14,15
 425 326 425 326 425 327 c 0,16,17
 514 435 514 435 640.5 560.5 c 128,-1,18
 767 686 767 686 805 686 c 1,19,20
 821 684 821 684 834.5 660 c 128,-1,21
 848 636 848 636 849 608 c 1,22,23
 843 586 843 586 682 421.5 c 128,-1,24
 521 257 521 257 501.5 228 c 128,-1,25
 482 199 482 199 398 84 c 128,-1,26
 314 -31 314 -31 304 -40.5 c 128,-1,27
 294 -50 294 -50 278 -50 c 128,-1,28
 262 -50 262 -50 243 -30.5 c 128,-1,29
 224 -11 224 -11 224 8 c 128,-1,30
 224 27 224 27 230 47.5 c 2,31,-1
 236 68 l 1,0,1
334 235 m 0,32,33
 312 235 312 235 257.5 186 c 128,-1,34
 203 137 203 137 203 121 c 0,35,36
 203 112 203 112 211 112 c 0,37,38
 238 112 238 112 291 163.5 c 128,-1,39
 344 215 344 215 344 228 c 0,40,41
 344 235 344 235 334 235 c 0,32,33
EndSplineSet
EndChar

StartChar: e
Encoding: 101 101 31
Width: 358
Flags: HMW
HStem: -17 64<82.5 225.5> -17 216<82.5 287> 363 20G<316.5 393.5>
VStem: 41 138<54 68.5 54 80.5> 99 101<204.5 214.5 200 265.5> 155 45<161 214.5> 155 157<161 174>
LayerCount: 2
Fore
SplineSet
229 194 m 1,0,-1
 278 199 l 1,1,2
 312 199 312 199 312 165 c 0,3,4
 312 147 312 147 279 125 c 128,-1,5
 246 103 246 103 212.5 84.5 c 128,-1,6
 179 66 179 66 179 56 c 0,7,8
 179 49 179 49 195 47 c 1,9,10
 230 47 230 47 328 103 c 128,-1,11
 426 159 426 159 433 159 c 0,12,13
 447 159 447 159 447 145 c 1,14,15
 446 135 446 135 383.5 95.5 c 128,-1,16
 321 56 321 56 237.5 19.5 c 128,-1,17
 154 -17 154 -17 110 -17 c 0,18,19
 41 -17 41 -17 41 56 c 0,20,21
 41 77 41 77 69.5 102 c 128,-1,22
 98 127 98 127 126.5 145 c 128,-1,23
 155 163 155 163 155 167.5 c 128,-1,24
 155 172 155 172 141 178 c 0,25,26
 99 196 99 196 99 226 c 0,27,28
 99 282 99 282 192.5 332.5 c 128,-1,29
 286 383 286 383 366 383 c 0,30,31
 410 383 410 383 439 366.5 c 128,-1,32
 468 350 468 350 468 316.5 c 128,-1,33
 468 283 468 283 421.5 254 c 128,-1,34
 375 225 375 225 355 225 c 0,35,36
 347 225 347 225 340.5 229 c 128,-1,37
 334 233 334 233 334 238 c 128,-1,38
 334 243 334 243 361.5 254.5 c 128,-1,39
 389 266 389 266 389 276 c 0,40,41
 389 281 389 281 374.5 281 c 128,-1,42
 360 281 360 281 280 249.5 c 128,-1,43
 200 218 200 218 200 205 c 0,44,45
 200 194 200 194 229 194 c 1,0,-1
EndSplineSet
EndChar

StartChar: f
Encoding: 102 102 32
Width: 257
Flags: HMW
HStem: -281 107<-177 8.5> 688 20G<569.5 592>
VStem: 201 48<-20 87.5>
LayerCount: 2
Fore
SplineSet
194 94 m 0,0,1
 185 94 185 94 82 -27 c 128,-1,2
 -21 -148 -21 -148 -21 -165 c 0,3,4
 -21 -174 -21 -174 -7 -174 c 0,5,6
 7 -174 7 -174 39 -152.5 c 128,-1,7
 71 -131 71 -131 107.5 -97 c 128,-1,8
 144 -63 144 -63 172.5 -13.5 c 128,-1,9
 201 36 201 36 201 84 c 0,10,11
 201 94 201 94 194 94 c 0,0,1
450 247 m 0,12,13
 450 237 450 237 398 203.5 c 128,-1,14
 346 170 346 170 293.5 141.5 c 2,15,-1
 241 113 l 1,16,17
 249 93 249 93 249 64 c 0,18,19
 249 5 249 5 200.5 -60 c 128,-1,20
 152 -125 152 -125 85 -172 c 128,-1,21
 18 -219 18 -219 -51 -250 c 128,-1,22
 -120 -281 -120 -281 -161 -281 c 0,23,24
 -184 -281 -184 -281 -197 -263.5 c 128,-1,25
 -210 -246 -210 -246 -210 -220 c 128,-1,26
 -210 -194 -210 -194 -198 -169 c 0,27,28
 -167 -98 -167 -98 137 229 c 0,29,30
 156 249 156 249 321 441.5 c 128,-1,31
 486 634 486 634 494 643.5 c 0,32,33
 502 653 502 653 515 665.5 c 128,-1,34
 528 678 528 678 549.5 693 c 128,-1,35
 571 708 571 708 584 708 c 0,36,37
 603 708 603 708 603 677 c 0,38,39
 603 620 603 620 564 542 c 0,40,41
 551 517 551 517 410.5 351 c 128,-1,42
 270 185 270 185 267 181.5 c 0,43,44
 264 178 264 178 264 173.5 c 0,45,46
 264 169 264 169 268 169 c 0,47,48
 285 169 285 169 359 215 c 128,-1,49
 433 261 433 261 436 261 c 0,50,51
 450 261 450 261 450 247 c 0,12,13
EndSplineSet
EndChar

StartChar: g
Encoding: 103 103 33
Width: 356
Flags: HMW
HStem: -357 21G<-56.5 52> 23 72<86 224> 314 20G<252.5 365.5>
VStem: 38 150<101.5 125.5> 249 166<8 219.5>
LayerCount: 2
Fore
SplineSet
210 60 m 0,0,1
 150 23 150 23 113 23 c 128,-1,2
 76 23 76 23 57 49 c 128,-1,3
 38 75 38 75 38 96 c 128,-1,4
 38 117 38 117 51 144 c 128,-1,5
 64 171 64 171 91.5 204 c 128,-1,6
 119 237 119 237 155 266 c 128,-1,7
 191 295 191 295 243.5 314.5 c 128,-1,8
 296 334 296 334 353 334 c 0,9,10
 377 334 377 334 408 316.5 c 128,-1,11
 439 299 439 299 439 274 c 0,12,13
 439 257 439 257 411 250 c 0,14,15
 335 229 335 229 261.5 185.5 c 128,-1,16
 188 142 188 142 188 105 c 0,17,18
 188 95 188 95 197 95 c 0,19,20
 229 95 229 95 313.5 164 c 128,-1,21
 398 233 398 233 401 233 c 0,22,23
 415 233 415 233 415 214 c 0,24,25
 415 170 415 170 370 76 c 128,-1,26
 325 -18 325 -18 259.5 -114.5 c 128,-1,27
 194 -211 194 -211 108 -284 c 128,-1,28
 22 -357 22 -357 -50 -357 c 0,29,30
 -61 -357 -61 -357 -76.5 -334.5 c 128,-1,31
 -92 -312 -92 -312 -92 -298 c 128,-1,32
 -92 -284 -92 -284 -91 -281 c 0,33,34
 -81.1294797688 -244.808092486 -81.1294797688 -244.808092486 38 -158.5 c 0,35,36
 87 -123 87 -123 135 -85.5 c 128,-1,37
 183 -48 183 -48 216 -5.5 c 128,-1,38
 249 37 249 37 249 74 c 0,39,40
 249 76 249 76 242 76 c 128,-1,41
 235 76 235 76 210 60 c 0,0,1
EndSplineSet
EndChar

StartChar: h
Encoding: 104 104 34
Width: 488
Flags: HMW
HStem: -30 62<320 427> -4 21G<58 81.5> 651 20G<514.5 559.5>
VStem: 269 135<39.5 56 39.5 61.5>
LayerCount: 2
Fore
SplineSet
425.5 -5 m 128,-1,1
 376 -30 376 -30 342.5 -30 c 128,-1,2
 309 -30 309 -30 289 -10 c 128,-1,3
 269 10 269 10 269 39 c 0,4,5
 269 87 269 87 338 168 c 0,6,7
 344 174 344 174 344 177.5 c 128,-1,8
 344 181 344 181 342 181 c 128,-1,9
 340 181 340 181 327.5 176.5 c 128,-1,10
 315 172 315 172 259 130.5 c 128,-1,11
 203 89 203 89 150 42.5 c 128,-1,12
 97 -4 97 -4 74.5 -4 c 128,-1,13
 52 -4 52 -4 41.5 15 c 128,-1,14
 31 34 31 34 31 58 c 0,15,16
 31 132 31 132 146.5 283 c 128,-1,17
 262 434 262 434 388 552.5 c 128,-1,18
 514 671 514 671 549 671 c 0,19,20
 566 671 566 671 581.5 656.5 c 128,-1,21
 597 642 597 642 597 617.5 c 128,-1,22
 597 593 597 593 537 509 c 128,-1,23
 477 425 477 425 403 332.5 c 0,24,25
 310 216.25 310 216.25 310 206 c 0,26,27
 310 202 310 202 314 202 c 128,-1,28
 318 202 318 202 348 218.5 c 128,-1,29
 378 235 378 235 413 249.5 c 128,-1,30
 448 264 448 264 461.5 266.5 c 128,-1,31
 475 269 475 269 493.5 269 c 128,-1,32
 512 269 512 269 530.5 261 c 128,-1,33
 549 253 549 253 549 237.5 c 128,-1,34
 549 222 549 222 476.5 138.5 c 128,-1,35
 404 55 404 55 404 43.5 c 128,-1,36
 404 32 404 32 414 32 c 0,37,38
 435.363636364 32 435.363636364 32 496 75.5 c 0,39,40
 519 92 519 92 523 94 c 128,-1,41
 527 96 527 96 532 96 c 0,42,43
 546 96 546 96 546 82 c 0,44,45
 546 74 546 74 510.5 47 c 128,-1,0
 475 20 475 20 425.5 -5 c 128,-1,1
EndSplineSet
EndChar

StartChar: i
Encoding: 105 105 35
Width: 228
Flags: HMW
HStem: -26 21G<48 91.5> 443 20G<370 398.5>
LayerCount: 2
Fore
SplineSet
26 -11.5 m 128,-1,1
 41 -26 41 -26 65 -26 c 128,-1,2
 89 -26 89 -26 147 32 c 128,-1,3
 205 90 205 90 250 153 c 128,-1,4
 295 216 295 216 295 233 c 0,5,6
 295 286 295 286 250 286 c 1,7,8
 178 273 178 273 94.5 184 c 128,-1,9
 11 95 11 95 11 25 c 0,10,0
 11 3 11 3 26 -11.5 c 128,-1,1
313 318 m 1,11,12
 296 318 296 318 286 330 c 128,-1,13
 276 342 276 342 274.5 353.5 c 2,14,-1
 273 365 l 1,15,16
 278 413 278 413 316 438 c 128,-1,17
 354 463 354 463 382 463 c 0,18,19
 423 463 423 463 423 422 c 0,20,21
 423 396 423 396 392 359.5 c 128,-1,22
 361 323 361 323 313 318 c 1,11,12
EndSplineSet
EndChar

StartChar: j
Encoding: 106 106 36
Width: 257
Flags: HMW
HStem: -281 21G<-148.5 -33> 358 161<333.5 442.5>
VStem: -234 57<-238.5 -173.5> 85 248<213.5 282.5> 162 171<194.5 282.5> 307 159<401.5 485.5>
LayerCount: 2
Fore
SplineSet
290 327 m 1,0,1
 307 327 307 327 320 308 c 128,-1,2
 333 289 333 289 333 278 c 0,3,4
 333 267 333 267 312 223.5 c 128,-1,5
 291 180 291 180 256.5 118 c 128,-1,6
 222 56 222 56 174.5 -14 c 128,-1,7
 127 -84 127 -84 77 -143.5 c 128,-1,8
 27 -203 27 -203 -29 -242 c 128,-1,9
 -85 -281 -85 -281 -132 -281 c 0,10,11
 -154 -281 -154 -281 -174 -276.5 c 128,-1,12
 -194 -272 -194 -272 -214 -254 c 128,-1,13
 -234 -236 -234 -236 -234 -209 c 0,14,15
 -234 -182 -234 -182 -214 -140.5 c 128,-1,16
 -194 -99 -194 -99 -160 -69 c 0,17,18
 -150 -61 -150 -61 -142 -61 c 0,19,20
 -134 -61 -134 -61 -129 -65 c 128,-1,21
 -124 -69 -124 -69 -124 -74.5 c 0,22,23
 -124 -80 -124 -80 -150.5 -126 c 128,-1,24
 -177 -172 -177 -172 -177 -186 c 0,25,26
 -177 -189 -177 -189 -175 -189 c 0,27,28
 -159 -189 -159 -189 1.5 -0.5 c 128,-1,29
 162 188 162 188 162 207 c 0,30,31
 162 215 162 215 154 215 c 0,32,33
 149 215 149 215 132 207 c 128,-1,34
 115 199 115 199 108 199 c 128,-1,35
 101 199 101 199 93 205 c 128,-1,36
 85 211 85 211 85 219 c 0,37,38
 85 231 85 231 136.5 258 c 128,-1,39
 188 285 188 285 239 306 c 2,40,-1
 290 327 l 1,0,1
428 519 m 0,41,42
 466 519 466 519 466 476.5 c 0,43,44
 466 434 466 434 427.5 396 c 128,-1,45
 389 358 389 358 358 358 c 0,46,47
 327 358 327 358 317 374.5 c 128,-1,48
 307 391 307 391 307 411.5 c 0,49,50
 307 432 307 432 343 475.5 c 128,-1,51
 379 519 379 519 428 519 c 0,41,42
EndSplineSet
EndChar

StartChar: k
Encoding: 107 107 37
Width: 442
Flags: HMW
HStem: -76 236<275 436> 262 55<403.5 492.5> 645 20G<538.5 610.5>
VStem: 442 79<245.5 252.5>
LayerCount: 2
Fore
SplineSet
623 577 m 1,0,-1
 378 298 l 1,1,2
 378 292 378 292 384 292 c 128,-1,3
 390 292 390 292 423.5 304.5 c 128,-1,4
 457 317 457 317 479 317 c 0,5,6
 521 317 521 317 521 276 c 0,7,8
 521 214 521 214 346 140 c 1,9,10
 346 132 346 132 409.5 57 c 128,-1,11
 473 -18 473 -18 473 -36 c 0,12,13
 473 -76 473 -76 406.5 -76 c 128,-1,14
 340 -76 340 -76 281 -17 c 128,-1,15
 222 42 222 42 222 106 c 0,16,17
 222 116 222 116 218.5 116 c 128,-1,18
 215 116 215 116 209.5 110.5 c 128,-1,19
 204 105 204 105 186 85.5 c 128,-1,20
 168 66 168 66 154 51.5 c 0,21,22
 113.931034483 10 113.931034483 10 91.9655172414 10 c 128,-1,23
 70 10 70 10 49 29 c 128,-1,24
 28 48 28 48 28 76 c 0,25,26
 28 120 28 120 100.5 220 c 128,-1,27
 173 320 173 320 267.5 417.5 c 128,-1,28
 362 515 362 515 459 590 c 128,-1,29
 556 665 556 665 600 665 c 0,30,31
 614 665 614 665 623 643.5 c 128,-1,32
 632 622 632 622 632 607 c 128,-1,33
 632 592 632 592 623 577 c 1,0,-1
442 249 m 0,34,35
 442 262 442 262 424 262 c 128,-1,36
 406 262 406 262 366 239 c 128,-1,37
 326 216 326 216 297 192.5 c 128,-1,38
 268 169 268 169 268 164.5 c 128,-1,39
 268 160 268 160 278 160 c 0,40,41
 312 160 312 160 377 190.5 c 128,-1,42
 442 221 442 221 442 249 c 0,34,35
EndSplineSet
EndChar

StartChar: l
Encoding: 108 108 38
Width: 330
Flags: HMW
HStem: -4 62<91.5 225.5> -4 174 515 80<556.5 576.5>
VStem: 30 152<67 90 67 192> 579 76<490.5 512.5>
LayerCount: 2
Fore
SplineSet
259 213 m 1,0,1
 182 109 182 109 182 71 c 0,2,3
 182 58 182 58 195 58 c 0,4,5
 230 58 230 58 328 114 c 128,-1,6
 426 170 426 170 433 170 c 0,7,8
 447 170 447 170 447 158 c 2,9,-1
 447 156 l 1,10,11
 446 150 446 150 391 112 c 128,-1,12
 336 74 336 74 254 35 c 128,-1,13
 172 -4 172 -4 117 -4 c 0,14,15
 30 -4 30 -4 30 97 c 0,16,17
 30 188 30 188 127.5 307.5 c 128,-1,18
 225 427 225 427 356 511 c 128,-1,19
 487 595 487 595 579 595 c 0,20,21
 619 595 619 595 637 572 c 128,-1,22
 655 549 655 549 655 529 c 0,23,24
 655 489 655 489 605.5 436 c 128,-1,25
 556 383 556 383 489 337.5 c 128,-1,26
 422 292 422 292 357.5 257.5 c 128,-1,27
 293 223 293 223 259 213 c 1,0,1
575 515 m 0,28,29
 559 515 559 515 498.5 463 c 128,-1,30
 438 411 438 411 386 358.5 c 2,31,-1
 334 306 l 2,32,33
 326 298 326 298 326 293.5 c 0,34,35
 326 289 326 289 335 289 c 0,36,37
 375 289 375 289 477 384 c 128,-1,38
 579 479 579 479 579 511 c 0,39,40
 579 515 579 515 575 515 c 0,28,29
EndSplineSet
EndChar

StartChar: m
Encoding: 109 109 39
Width: 622
Flags: HMW
HStem: -23 93<485 614> -9 194 282 20G<254 271>
VStem: 430 143<22 78.5> 430 192<36 56.5>
LayerCount: 2
Fore
SplineSet
26 21 m 128,-1,1
 13 37 13 37 13 61.5 c 128,-1,2
 13 86 13 86 35 121 c 128,-1,3
 57 156 57 156 88.5 185.5 c 0,4,5
 154.162548765 246.993498049 154.162548765 246.993498049 205 280.5 c 2,6,-1
 227 295 l 1,7,8
 243 302 243 302 260.5 302 c 128,-1,9
 278 302 278 302 292 290.5 c 128,-1,10
 306 279 306 279 306 264 c 128,-1,11
 306 249 306 249 301 237 c 128,-1,12
 296 225 296 225 290.5 217.5 c 0,13,14
 274 195 274 195 271 191.5 c 128,-1,15
 268 188 268 188 268 184.5 c 128,-1,16
 268 181 268 181 272.5 181 c 128,-1,17
 277 181 277 181 313.5 210.5 c 0,18,19
 424.237288136 300 424.237288136 300 472 300 c 0,20,21
 491 300 491 300 504.5 288.5 c 128,-1,22
 518 277 518 277 518 263 c 128,-1,23
 518 249 518 249 512 238.5 c 128,-1,24
 506 228 506 228 495 215 c 0,25,26
 477 193.727272727 477 193.727272727 477 189.363636364 c 128,-1,27
 477 185 477 185 484.5 185 c 128,-1,28
 492 185 492 185 549 231 c 128,-1,29
 606 277 606 277 628 277 c 128,-1,30
 650 277 650 277 662.5 259.5 c 128,-1,31
 675 242 675 242 675 224 c 128,-1,32
 675 206 675 206 624 141.5 c 128,-1,33
 573 77 573 77 573 68 c 128,-1,34
 573 59 573 59 580 59 c 1,35,36
 586 60 586 60 594 65 c 128,-1,37
 602 70 602 70 609 70 c 0,38,39
 622 70 622 70 622 59 c 0,40,41
 622 26 622 26 585 1.5 c 128,-1,42
 548 -23 548 -23 510 -23 c 0,43,44
 430 -23 430 -23 430 47 c 0,45,46
 430 61 430 61 438.5 82 c 128,-1,47
 447 103 447 103 456 112 c 1,48,49
 459 118 459 118 459 120.5 c 128,-1,50
 459 123 459 123 455.25 123 c 128,-1,51
 451.5 123 451.5 123 446.75 120.5 c 128,-1,52
 442 118 442 118 404.5 84.5 c 0,53,54
 299.835820896 -9 299.835820896 -9 261 -9 c 0,55,56
 240 -9 240 -9 229 6.5 c 128,-1,57
 218 22 218 22 218 39 c 0,58,59
 218 70 218 70 248 107 c 0,60,61
 251 111.5 251 111.5 251 116.25 c 128,-1,62
 251 121 251 121 247 121 c 128,-1,63
 243 121 243 121 238 117 c 0,64,65
 100 5 100 5 58 5 c 0,66,0
 39 5 39 5 26 21 c 128,-1,1
EndSplineSet
EndChar

StartChar: n
Encoding: 110 110 40
Width: 456
Flags: HMW
HStem: -27 21G<305 354> 303 20G<259.5 286>
VStem: 250 148<50 56.5> 250 204<28.5 49 28.5 56.5>
LayerCount: 2
Fore
SplineSet
409 45 m 1,0,-1
 440 57 l 1,1,2
 454 57 454 57 454 46 c 0,3,4
 454 20 454 20 411.5 -3.5 c 128,-1,5
 369 -27 369 -27 330.5 -27 c 128,-1,6
 292 -27 292 -27 271 -10.5 c 128,-1,7
 250 6 250 6 250 40 c 128,-1,8
 250 74 250 74 289 124 c 0,9,10
 294 129 294 129 294 132.5 c 128,-1,11
 294 136 294 136 290 136 c 128,-1,12
 286 136 286 136 283 134 c 128,-1,13
 280 132 280 132 240.5 107 c 0,14,15
 143.85106383 45.829787234 143.85106383 45.829787234 103 22 c 0,16,17
 86 13 86 13 71 13 c 128,-1,18
 56 13 56 13 38 32 c 128,-1,19
 20 51 20 51 20 70 c 0,20,21
 20 110 20 110 133 216.5 c 128,-1,22
 246 323 246 323 286 323 c 1,23,24
 301 321 301 321 312 306 c 128,-1,25
 323 291 323 291 323 270.5 c 128,-1,26
 323 250 323 250 308 226 c 0,27,28
 286.333333333 191.333333333 286.333333333 191.333333333 272.666666667 177.666666667 c 128,-1,29
 259 164 259 164 259 160.5 c 128,-1,30
 259 157 259 157 262 157 c 128,-1,31
 265 157 265 157 270.5 160.5 c 128,-1,32
 276 164 276 164 365.5 222.5 c 128,-1,33
 455 281 455 281 466 287.5 c 128,-1,34
 477 294 477 294 490 294 c 128,-1,35
 503 294 503 294 524 281.5 c 128,-1,36
 545 269 545 269 545 248 c 128,-1,37
 545 227 545 227 508.5 186 c 128,-1,38
 472 145 472 145 435 107 c 128,-1,39
 398 69 398 69 398 53 c 0,40,41
 398 45 398 45 409 45 c 1,0,-1
EndSplineSet
EndChar

StartChar: o
Encoding: 111 111 41
Width: 334
Flags: HMW
HStem: -22 68<92 187> 179 31<361 382> 312 20G<246.5 292>
VStem: 33 130<60 96 60 152.5>
LayerCount: 2
Fore
SplineSet
338 237 m 0,0,1
 338 210 338 210 370 210 c 0,2,3
 400 210 400 210 436 225 c 128,-1,4
 472 240 472 240 475 240 c 128,-1,5
 478 240 478 240 481.5 235 c 128,-1,6
 485 230 485 230 485 225 c 0,7,8
 485 214 485 214 438.5 196.5 c 128,-1,9
 392 179 392 179 371 179 c 128,-1,10
 350 179 350 179 341.5 179.5 c 128,-1,11
 333 180 333 180 328 169 c 0,12,13
 253.566666667 30.2833333333 253.566666667 30.2833333333 181 -6 c 0,14,15
 149 -22 149 -22 113.5 -22 c 128,-1,16
 78 -22 78 -22 55.5 1.5 c 128,-1,17
 33 25 33 25 33 76 c 0,18,19
 33 147 33 147 79.5 208.5 c 128,-1,20
 126 270 126 270 185 301 c 128,-1,21
 244 332 244 332 292 332 c 1,22,23
 373 323 373 323 373 283 c 0,24,25
 373 272 373 272 367.5 263.5 c 128,-1,26
 362 255 362 255 358.5 253.5 c 128,-1,27
 355 252 355 252 350.5 251 c 0,28,29
 338 248.222222222 338 248.222222222 338 237 c 0,0,1
193.5 130 m 128,-1,31
 163 93 163 93 163 69.5 c 128,-1,32
 163 46 163 46 176 46 c 0,33,34
 196 46 196 46 249.5 107.5 c 128,-1,35
 303 169 303 169 303 209 c 0,36,37
 303 215 303 215 295.5 215 c 128,-1,38
 288 215 288 215 256 191 c 128,-1,30
 224 167 224 167 193.5 130 c 128,-1,31
EndSplineSet
EndChar

StartChar: p
Encoding: 112 112 42
Width: 411
Flags: HMW
HStem: -366 21G<-143 -103.5> -6 78<220.5 228.5 201 301> 250 68<367 449> 250 167<305.5 385.5>
VStem: 392 111<225.5 276.5>
LayerCount: 2
Fore
SplineSet
-182 -294 m 0,0,1
 -182 -246 -182 -246 -134.5 -157 c 128,-1,2
 -87 -68 -87 -68 -19.5 25.5 c 0,3,4
 123.803956835 224.002517986 123.803956835 224.002517986 229.5 347.5 c 2,5,-1
 277 403 l 1,6,7
 292 417 292 417 307 417 c 128,-1,8
 322 417 322 417 329 406 c 128,-1,9
 336 395 336 395 336 386.5 c 128,-1,10
 336 378 336 378 324.5 349 c 128,-1,11
 313 320 313 320 297 282.5 c 128,-1,12
 281 245 281 245 279.5 241.5 c 128,-1,13
 278 238 278 238 278 234 c 128,-1,14
 278 230 278 230 284.5 230 c 128,-1,15
 291 230 291 230 316.5 252 c 0,16,17
 393 318 393 318 432 318 c 0,18,19
 503 318 503 318 503 246 c 1,20,21
 498 209 498 209 458 150 c 128,-1,22
 418 91 418 91 357.5 42.5 c 128,-1,23
 297 -6 297 -6 246 -6 c 0,24,25
 224 -6 224 -6 208 5 c 128,-1,26
 192 16 192 16 184 27 c 128,-1,27
 176 38 176 38 173.5 38 c 128,-1,28
 171 38 171 38 167.5 33 c 128,-1,29
 164 28 164 28 -27 -287 c 1,30,31
 -77 -366 -77 -366 -125 -366 c 0,32,33
 -150 -366 -150 -366 -166 -343.5 c 128,-1,34
 -182 -321 -182 -321 -182 -294 c 0,0,1
384 250 m 0,35,36
 359 250 359 250 278.5 172 c 128,-1,37
 198 94 198 94 198 74 c 0,38,39
 198 72 198 72 202 72 c 0,40,41
 240 72 240 72 316 143.5 c 128,-1,42
 392 215 392 215 392 244 c 0,43,44
 392 250 392 250 384 250 c 0,35,36
EndSplineSet
EndChar

StartChar: q
Encoding: 113 113 43
Width: 377
Flags: HMW
HStem: -378 21G<-39 1> -11 21G<88 127.5> 270 20G<292 374.5>
VStem: 26 155<72.5 92.5 72.5 126>
LayerCount: 2
Fore
SplineSet
250.5 272 m 128,-1,1
 304 290 304 290 344.5 290 c 128,-1,2
 385 290 385 290 411 265.5 c 128,-1,3
 437 241 437 241 437 222.5 c 128,-1,4
 437 204 437 204 351 188 c 0,5,6
 314 181 314 181 247.5 140 c 128,-1,7
 181 99 181 99 181 76 c 0,8,9
 181 66 181 66 191 66 c 0,10,11
 227 66 227 66 359 152 c 0,12,13
 366 156 366 156 374 163 c 0,14,15
 388.857142857 176 388.857142857 176 395.428571429 176 c 128,-1,16
 402 176 402 176 407 168.5 c 128,-1,17
 412 161 412 161 412 153.5 c 128,-1,18
 412 146 412 146 402.5 135.5 c 128,-1,19
 393 125 393 125 287 -0.5 c 128,-1,20
 181 -126 181 -126 171.5 -136.5 c 128,-1,21
 162 -147 162 -147 114 -210 c 0,22,23
 61 -279.5625 61 -279.5625 61 -282.78125 c 128,-1,24
 61 -286 61 -286 66 -286 c 128,-1,25
 71 -286 71 -286 99 -268.5 c 128,-1,26
 127 -251 127 -251 134 -250 c 1,27,28
 149 -251 149 -251 149 -263 c 0,29,30
 149 -290 149 -290 81 -334 c 128,-1,31
 13 -378 13 -378 -17 -378 c 128,-1,32
 -47 -378 -47 -378 -66 -358.5 c 128,-1,33
 -85 -339 -85 -339 -86 -314.5 c 128,-1,34
 -87 -290 -87 -290 -55.5 -245 c 128,-1,35
 -24 -200 -24 -200 3.5 -169.5 c 128,-1,36
 31 -139 31 -139 71.5 -102.5 c 128,-1,37
 112 -66 112 -66 143 -40.5 c 0,38,39
 221.034482759 23.6896551724 221.034482759 23.6896551724 235 33 c 0,40,41
 245 40 245 40 245 43.5 c 128,-1,42
 245 47 245 47 241.5 47 c 128,-1,43
 238 47 238 47 184.5 18 c 128,-1,44
 131 -11 131 -11 104.5 -11 c 128,-1,45
 78 -11 78 -11 52 11.5 c 128,-1,46
 26 34 26 34 26 62 c 0,47,48
 26 107 26 107 61 151 c 128,-1,49
 96 195 96 195 146.5 224.5 c 128,-1,0
 197 254 197 254 250.5 272 c 128,-1,1
EndSplineSet
EndChar

StartChar: r
Encoding: 114 114 44
Width: 295
Flags: HMW
HStem: -32 21G<127.5 170> 353 20G<242 247>
VStem: 73 161<58.5 230.5> 73 209<39.5 230.5>
LayerCount: 2
Fore
SplineSet
242 373 m 1,0,1
 249 373 249 373 255 366.5 c 128,-1,2
 261 360 261 360 261 351.5 c 0,3,4
 261 343 261 343 251 330 c 0,5,6
 212 282 212 282 199.5 269.5 c 0,7,8
 187 257 187 257 187 253 c 128,-1,9
 187 249 187 249 193.5 249 c 0,10,11
 200 249 200 249 247 266.5 c 128,-1,12
 294 284 294 284 309 284 c 0,13,14
 324 284 324 284 340 271.5 c 128,-1,15
 356 259 356 259 356 239.5 c 0,16,17
 356 220 356 220 295 150.5 c 128,-1,18
 234 81 234 81 234 60 c 0,19,20
 234 56 234 56 237 56 c 0,21,22
 242 56 242 56 255 62.5 c 128,-1,23
 268 69 268 69 271 69 c 0,24,25
 282 69 282 69 282 61 c 0,26,27
 282 30 282 30 233 -1 c 128,-1,28
 184 -32 184 -32 150.5 -32 c 0,29,30
 117 -32 117 -32 96 -13.5 c 128,-1,31
 75 5 75 5 75 36 c 0,32,33
 75 67 75 67 105.5 105.5 c 128,-1,34
 136 144 136 144 168.5 160 c 0,35,36
 201 176 201 176 201 186 c 0,37,38
 201 189 201 189 200 190 c 1,39,40
 156 172 156 172 128 172 c 0,41,42
 73 172 73 172 73 204 c 0,43,44
 73 241 73 241 137 301 c 128,-1,45
 201 361 201 361 242 373 c 1,0,1
EndSplineSet
EndChar

StartChar: s
Encoding: 115 115 45
Width: 321
Flags: HMW
HStem: -14 195<103 247> 147 34<183 247> 252 97<333.5 346 268 356>
VStem: 95 85<195 200.5 186 259.5> 95 224<63.5 259.5>
LayerCount: 2
Fore
SplineSet
206 147 m 0,0,1
 164 147 164 147 129.5 166 c 128,-1,2
 95 185 95 185 95 224 c 0,3,4
 95 275 95 275 167 312 c 128,-1,5
 239 349 239 349 316 349 c 0,6,7
 364 349 364 349 394 331.5 c 128,-1,8
 424 314 424 314 423.5 279.5 c 0,9,10
 423 245 423 245 371.5 217.5 c 128,-1,11
 320 190 320 190 303 190 c 0,12,13
 286 190 286 190 286 197 c 128,-1,14
 286 204 286 204 292.5 207.5 c 0,15,16
 299 211 299 211 321 221 c 128,-1,17
 343 231 343 231 353 237.5 c 0,18,19
 363 244 363 244 363 248 c 128,-1,20
 363 252 363 252 354 252 c 0,21,22
 321 252 321 252 250.5 228.5 c 128,-1,23
 180 205 180 205 180 190 c 0,24,25
 180 181 180 181 220 181 c 0,26,27
 319 181 319 181 319 102 c 0,28,29
 319 67 319 67 277 38.5 c 128,-1,30
 235 10 235 10 191 -2 c 128,-1,31
 147 -14 147 -14 120.5 -14 c 0,32,33
 94 -14 94 -14 62 10 c 128,-1,34
 30 34 30 34 30 58 c 0,35,36
 30 82 30 82 93 93 c 0,37,38
 121 97 121 97 167 111.5 c 128,-1,39
 213 126 213 126 213 139 c 0,40,41
 213 147 213 147 206 147 c 0,0,1
EndSplineSet
EndChar

StartChar: t
Encoding: 116 116 46
Width: 266
Flags: HMW
HStem: -17 21G<91.5 133> 378 72 574 20G<527 533>
LayerCount: 2
Fore
SplineSet
87 403 m 0,0,1
 87 418.740458015 87 418.740458015 173 431.870229008 c 128,-1,2
 259 445 259 445 357 450 c 1,3,4
 439 524 439 524 505 576.5 c 2,5,-1
 527 594 l 1,6,7
 542 594 542 594 542 572 c 2,8,-1
 544 523 l 1,9,10
 541 512 541 512 502 454 c 1,11,-1
 551 454 l 2,12,13
 662 454 662 454 679.5 432.5 c 128,-1,14
 697 411 697 411 697 398 c 0,15,16
 697 381 697 381 663 380 c 128,-1,17
 629 379 629 379 450 379 c 1,18,19
 307.189842805 232.330108827 307.189842805 232.330108827 225.5 118.5 c 0,20,21
 195 76 195 76 172 43 c 128,-1,22
 149 10 149 10 136.5 -3.5 c 128,-1,23
 124 -17 124 -17 113 -17 c 0,24,25
 80 -17 80 -17 57 5 c 128,-1,26
 34 27 34 27 34 59 c 0,27,28
 34 147 34 147 279 378 c 1,29,-1
 125 378 l 2,30,31
 87 378 87 378 87 403 c 0,0,1
EndSplineSet
EndChar

StartChar: u
Encoding: 117 117 47
Width: 453
Flags: HMW
HStem: -18 133<221.5 334> 272 20G<237.5 257.5>
VStem: 34 180<50 138.5>
LayerCount: 2
Fore
SplineSet
526 151 m 0,0,1
 540 151 540 151 540 136 c 128,-1,2
 540 121 540 121 496 83.5 c 128,-1,3
 452 46 452 46 391.5 14 c 128,-1,4
 331 -18 331 -18 292 -18 c 0,5,6
 243 -18 243 -18 243 35 c 0,7,8
 243 48 243 48 253 63.5 c 128,-1,9
 263 79 263 79 263 81 c 0,10,11
 263 87 263 87 256 87 c 128,-1,12
 249 87 249 87 246.5 86 c 128,-1,13
 244 85 244 85 212 65.5 c 0,14,15
 120.923076923 10 120.923076923 10 95.9615384615 10 c 128,-1,16
 71 10 71 10 52.5 26.5 c 128,-1,17
 34 43 34 43 34 64 c 0,18,19
 34 106 34 106 64 150 c 128,-1,20
 94 194 94 194 133 224 c 128,-1,21
 172 254 172 254 205.5 273 c 128,-1,22
 239 292 239 292 251 292 c 128,-1,23
 263 292 263 292 281 275 c 128,-1,24
 299 258 299 258 299 242.5 c 128,-1,25
 299 227 299 227 288 218 c 0,26,27
 214 153 214 153 214 128 c 0,28,29
 214 115 214 115 226 115 c 0,30,31
 255 115 255 115 309 162.5 c 128,-1,32
 363 210 363 210 397 249 c 1,33,34
 424 277 424 277 444 277 c 128,-1,35
 464 277 464 277 483.5 262.5 c 128,-1,36
 503 248 503 248 503 236.5 c 128,-1,37
 503 225 503 225 498 216.5 c 128,-1,38
 493 208 493 208 458 163.5 c 128,-1,39
 423 119 423 119 413.5 107 c 128,-1,40
 404 95 404 95 404 87 c 128,-1,41
 404 79 404 79 408 79 c 128,-1,42
 412 79 412 79 415.5 79.5 c 128,-1,43
 419 80 419 80 440.5 95 c 128,-1,44
 462 110 462 110 485.5 127.5 c 0,45,46
 517.057142857 151 517.057142857 151 526 151 c 0,0,1
EndSplineSet
EndChar

StartChar: v
Encoding: 118 118 48
Width: 300
Flags: HMW
HStem: -43 21G<36.5 57.5> 329 20G<451 488.5>
LayerCount: 2
Fore
SplineSet
14.5 -23 m 128,-1,1
 -2 -3 -2 -3 -2 13.5 c 128,-1,2
 -2 30 -2 30 26.5 101 c 128,-1,3
 55 172 55 172 100.5 240.5 c 128,-1,4
 146 309 146 309 182 309 c 0,5,6
 205 309 205 309 223.5 287.5 c 128,-1,7
 242 266 242 266 241.5 252 c 128,-1,8
 241 238 241 238 211.5 187 c 128,-1,9
 182 136 182 136 182 126 c 128,-1,10
 182 116 182 116 186.5 116 c 128,-1,11
 191 116 191 116 198.5 122.5 c 128,-1,12
 206 129 206 129 233.5 156 c 128,-1,13
 261 183 261 183 293 213 c 128,-1,14
 325 243 325 243 362 275 c 0,15,16
 447.5625 349 447.5625 349 480 349 c 0,17,18
 492 349 492 349 502.5 334.5 c 128,-1,19
 513 320 513 320 513 313 c 128,-1,20
 513 306 513 306 508 305 c 0,21,22
 453.178323545 294.847837694 453.178323545 294.847837694 342 201.5 c 0,23,24
 239.972577697 115.835466179 239.972577697 115.835466179 169.486288848 49.9177330896 c 128,-1,25
 99 -16 99 -16 83.5 -29.5 c 128,-1,26
 68 -43 68 -43 49.5 -43 c 128,-1,0
 31 -43 31 -43 14.5 -23 c 128,-1,1
EndSplineSet
EndChar

StartChar: w
Encoding: 119 119 49
Width: 550
Flags: HMW
HStem: -23 21G<270 299.5> 341 20G<274 310 721.5 737.5>
VStem: 233 240<16 274>
LayerCount: 2
Fore
SplineSet
330 345 m 1,0,-1
 325 322 l 2,1,2
 325 320 325 320 330.5 308.5 c 128,-1,3
 336 297 336 297 335.5 287 c 128,-1,4
 335 277 335 277 301 240 c 128,-1,5
 267 203 267 203 267 197 c 128,-1,6
 267 191 267 191 269 191 c 0,7,8
 280.114754098 191 280.114754098 191 389 273 c 0,9,10
 414 292 414 292 443.5 292 c 128,-1,11
 473 292 473 292 473 264 c 0,12,13
 473 220 473 220 414 131.5 c 0,14,15
 405 118 405 118 401.5 113 c 128,-1,16
 398 108 398 108 398 103.5 c 128,-1,17
 398 99 398 99 401 99 c 128,-1,18
 404 99 404 99 413 104.5 c 128,-1,19
 422 110 422 110 539.5 214.5 c 128,-1,20
 657 319 657 319 686 340 c 128,-1,21
 715 361 715 361 728 361 c 128,-1,22
 741 361 741 361 749.5 355.5 c 128,-1,23
 758 350 758 350 758 340 c 128,-1,24
 758 330 758 330 730 312.5 c 128,-1,25
 702 295 702 295 627 231 c 128,-1,26
 552 167 552 167 479 102 c 128,-1,27
 406 37 406 37 396 29 c 0,28,29
 334 -23 334 -23 288 -23 c 0,30,31
 262 -23 262 -23 247.5 -7.5 c 128,-1,32
 233 8 233 8 233 35.5 c 128,-1,33
 233 63 233 63 258 103 c 128,-1,34
 283 143 283 143 283 147 c 128,-1,35
 283 151 283 151 280 151 c 0,36,37
 271.836065574 148.278688525 271.836065574 148.278688525 242.918032787 128.139344262 c 0,38,39
 158.98245614 69.6842105263 158.98245614 69.6842105263 119.99122807 44.8421052632 c 128,-1,40
 81 20 81 20 68 20 c 128,-1,41
 55 20 55 20 40.5 39 c 128,-1,42
 26 58 26 58 26 72 c 0,43,44
 26 109 26 109 81.5 179 c 128,-1,45
 137 249 137 249 206 305 c 128,-1,46
 275 361 275 361 310 361 c 1,47,48
 330 359 330 359 330 345 c 1,0,-1
EndSplineSet
EndChar

StartChar: y
Encoding: 121 121 50
Width: 366
Flags: HMW
HStem: -280 21G<46 58.5> 298 20G<244.5 267>
LayerCount: 2
Fore
SplineSet
28 91 m 0,0,1
 28 133 28 133 80.5 189 c 128,-1,2
 133 245 133 245 187.5 281.5 c 128,-1,3
 242 318 242 318 256 318 c 0,4,5
 270 318 270 318 277.5 298 c 128,-1,6
 285 278 285 278 285 263.5 c 0,7,8
 285 249 285 249 283.5 244 c 128,-1,9
 282 239 282 239 280.5 237 c 128,-1,10
 279 235 279 235 275.5 232 c 128,-1,11
 272 229 272 229 268.5 225.5 c 0,12,13
 265 222 265 222 235 187.5 c 128,-1,14
 205 153 205 153 201.5 147.5 c 0,15,16
 198 142 198 142 198 133.5 c 0,17,18
 198 125 198 125 205 125 c 0,19,20
 212 125 212 125 217 129 c 0,21,22
 254 152 254 152 386 260 c 1,23,24
 413 279 413 279 422 279 c 0,25,26
 431 279 431 279 440.5 270.5 c 128,-1,27
 450 262 450 262 450 257 c 0,28,29
 450 228 450 228 387.5 138.5 c 128,-1,30
 325 49 325 49 233 -70.5 c 128,-1,31
 141 -190 141 -190 111 -235 c 0,32,33
 81 -280 81 -280 53 -280 c 0,34,35
 39 -280 39 -280 25 -265.5 c 128,-1,36
 11 -251 11 -251 11 -230.5 c 0,37,38
 11 -210 11 -210 14 -192.5 c 0,39,40
 17 -175 17 -175 33 -147 c 128,-1,41
 49 -119 49 -119 75 -86.5 c 128,-1,42
 101 -54 101 -54 121.5 -29.5 c 128,-1,43
 142 -5 142 -5 168.5 24 c 128,-1,44
 195 53 195 53 198.5 57.5 c 0,45,46
 202 62 202 62 202 65 c 128,-1,47
 202 68 202 68 199.5 68 c 0,48,49
 197 68 197 68 153.5 44 c 128,-1,50
 110 20 110 20 82.5 20 c 0,51,52
 55 20 55 20 41.5 47 c 128,-1,53
 28 74 28 74 28 91 c 0,0,1
EndSplineSet
EndChar

StartChar: z
Encoding: 122 122 51
Width: 329
Flags: HMW
HStem: -23 21G<75.5 102> 200 109<154 212.5> 200 178<154 246.5>
LayerCount: 2
Fore
SplineSet
259 323.5 m 128,-1,1
 307 338 307 338 326.5 338 c 128,-1,2
 346 338 346 338 364 328 c 128,-1,3
 382 318 382 318 382 300 c 128,-1,4
 382 282 382 282 360 261 c 128,-1,5
 338 240 338 240 303 212 c 128,-1,6
 268 184 268 184 239 161.5 c 128,-1,7
 210 139 210 139 207 135.5 c 128,-1,8
 204 132 204 132 204 127 c 128,-1,9
 204 122 204 122 212 122 c 1,10,11
 257 129 257 129 264 129 c 0,12,13
 292 129 292 129 323 110 c 128,-1,14
 354 91 354 91 354 64 c 0,15,16
 354 50 354 50 342.5 40 c 128,-1,17
 331 30 331 30 300.5 28 c 128,-1,18
 270 26 270 26 185 1.5 c 128,-1,19
 100 -23 100 -23 85 -23 c 128,-1,20
 70 -23 70 -23 45 -5 c 128,-1,21
 20 13 20 13 20 27 c 0,22,23
 20 50 20 50 79 93.5 c 128,-1,24
 138 137 138 137 165 151.5 c 128,-1,25
 192 166 192 166 218.5 185 c 128,-1,26
 245 204 245 204 245 210 c 128,-1,27
 245 216 245 216 242.5 216 c 128,-1,28
 240 216 240 216 213 208 c 128,-1,29
 186 200 186 200 165 200 c 128,-1,30
 144 200 144 200 123.5 216 c 128,-1,31
 103 232 103 232 103 260.5 c 128,-1,32
 103 289 103 289 156.5 333.5 c 128,-1,33
 210 378 210 378 243 378 c 0,34,35
 255 378 255 378 255 365 c 0,36,37
 255 358 255 358 242 349 c 1,38,39
 193 320 193 320 193 314.5 c 128,-1,40
 193 309 193 309 202 309 c 128,-1,0
 211 309 211 309 259 323.5 c 128,-1,1
EndSplineSet
EndChar

StartChar: eight
Encoding: 56 56 53
Width: 699
Flags: HMW
HStem: -46 224<112 119 112 250.5> 563 196<582 629>
VStem: -62 151<45.5 212> 119 163<428.5 567.5> 645 125<527 691>
LayerCount: 2
Fore
SplineSet
228 336 m 128,-1,1
 284 360 284 360 295 362 c 128,-1,2
 306 364 306 364 311 365 c 1,3,-1
 212 380 l 1,4,5
 177 388 177 388 154 414.5 c 0,6,7
 119 454.826086957 119 454.826086957 119 503 c 0,8,9
 119 564 119 564 201.5 625 c 128,-1,10
 284 686 284 686 399 722.5 c 128,-1,11
 514 759 514 759 611 759 c 0,12,13
 770 759 770 759 770 665 c 0,14,15
 770 574.746987952 770 574.746987952 680.5 502.5 c 0,16,17
 604.362204724 441.039370079 604.362204724 441.039370079 502 396 c 1,18,19
 553 392 553 392 568 385 c 1,20,21
 651.100671141 372.838926174 651.100671141 372.838926174 678.5 329 c 0,22,23
 700 294.6 700 294.6 700 260 c 0,24,25
 700 188 700 188 606.5 115 c 128,-1,26
 513 42 513 42 381.5 -2 c 128,-1,27
 250 -46 250 -46 147.5 -46 c 128,-1,28
 45 -46 45 -46 -8.5 -11.5 c 128,-1,29
 -62 23 -62 23 -62 97 c 0,30,31
 -62 142 -62 142 -11.5 191.5 c 128,-1,32
 39 241 39 241 105.5 276.5 c 128,-1,0
 172 312 172 312 228 336 c 128,-1,1
457 344 m 1,33,-1
 385 354 l 1,34,35
 361 348 361 348 354 348 c 1,36,37
 89 225 89 225 89 198 c 0,38,39
 89 178 89 178 119 178 c 1,40,41
 222 185 222 185 312.5 212.5 c 128,-1,42
 403 240 403 240 448.5 268 c 128,-1,43
 494 296 494 296 498 315 c 1,44,45
 494 344 494 344 457 344 c 1,33,-1
282 442 m 1,46,47
 282 410 282 410 411 402 c 1,48,49
 645 493 645 493 645 552 c 0,50,51
 645 563 645 563 622 563 c 0,52,53
 559 563 559 563 421 516 c 128,-1,54
 283 469 283 469 282 442 c 1,46,47
EndSplineSet
EndChar

StartChar: three
Encoding: 51 51 54
Width: 679
Flags: HMW
HStem: -49 196<142.5 185.5 135.5 336> 532 227<483.5 523 394 567.5>
VStem: 15 101<39.5 173> 15 121<39.5 225>
LayerCount: 2
Fore
SplineSet
659 182 m 0,0,1
 659 148 659 148 623 107.5 c 128,-1,2
 587 67 587 67 528.5 32.5 c 128,-1,3
 470 -2 470 -2 385.5 -25.5 c 128,-1,4
 301 -49 301 -49 213 -49 c 0,5,6
 15 -49 15 -49 15 79 c 0,7,8
 15 135 15 135 50 191 c 128,-1,9
 85 247 85 247 109 247 c 1,10,11
 121 246 121 246 128.5 237.5 c 128,-1,12
 136 229 136 229 136 219 c 128,-1,13
 136 209 136 209 126 191 c 128,-1,14
 116 173 116 173 116 165 c 0,15,16
 116 147 116 147 145 147 c 0,17,18
 207 147 207 147 334 207 c 128,-1,19
 461 267 461 267 461 297 c 1,20,21
 458 304 458 304 433 304 c 128,-1,22
 408 304 408 304 376.5 299 c 128,-1,23
 345 294 345 294 328 294 c 0,24,25
 277 294 277 294 277 324 c 0,26,27
 277 333 277 333 286.5 340 c 128,-1,28
 296 347 296 347 322 358.5 c 128,-1,29
 348 370 348 370 365.5 379 c 128,-1,30
 383 388 383 388 453.5 421 c 128,-1,31
 524 454 524 454 561 476 c 128,-1,32
 598 498 598 498 598 512 c 1,33,34
 591 532 591 532 560 532 c 0,35,36
 493 532 493 532 419 507 c 128,-1,37
 345 482 345 482 296 457.5 c 128,-1,38
 247 433 247 433 239 433 c 0,39,40
 200 434 200 434 161.5 476.5 c 128,-1,41
 123 519 123 519 123 561 c 128,-1,42
 123 603 123 603 176 650.5 c 128,-1,43
 229 698 229 698 312.5 728.5 c 128,-1,44
 396 759 396 759 479 759 c 0,45,46
 555.461538462 759 555.461538462 759 637.5 719.5 c 0,47,48
 678 700 678 700 704.5 665.5 c 128,-1,49
 731 631 731 631 731 589 c 128,-1,50
 731 547 731 547 692 503.5 c 128,-1,51
 653 460 653 460 600.5 430 c 0,52,53
 487.470588235 365.411764706 487.470588235 365.411764706 443 358 c 1,54,-1
 438 356 l 2,55,56
 438 355 438 355 439 354 c 1,57,58
 439 346 439 346 453 344 c 0,59,60
 538 336 538 336 598.5 290 c 128,-1,61
 659 244 659 244 659 182 c 0,0,1
EndSplineSet
EndChar

StartChar: seven
Encoding: 55 55 55
Width: 661
Flags: HMW
HStem: -45 21G<170 200> 465 216<131 321> 747 20G<266 308.5>
LayerCount: 2
Fore
SplineSet
200 -45 m 1,0,1
 152 -45 152 -45 111 -13.5 c 128,-1,2
 70 18 70 18 70 61.5 c 128,-1,3
 70 105 70 105 135 183 c 128,-1,4
 200 261 200 261 277.5 331 c 128,-1,5
 355 401 355 401 420 459 c 128,-1,6
 485 517 485 517 485 522 c 0,7,8
 485 525 485 525 480 525 c 128,-1,9
 475 525 475 525 417 510 c 0,10,11
 243 465 243 465 166 465 c 0,12,13
 115 465 115 465 86 491.5 c 128,-1,14
 57 518 57 518 57 559.5 c 128,-1,15
 57 601 57 601 153 684 c 128,-1,16
 249 767 249 767 301 767 c 0,17,18
 322 767 322 767 322 751 c 0,19,20
 322 738 322 738 315 731 c 128,-1,21
 308 724 308 724 296 715.5 c 0,22,23
 264 692.833333333 264 692.833333333 264 688 c 0,24,25
 264 681 264 681 291.5 681 c 128,-1,26
 319 681 319 681 422.5 702.5 c 128,-1,27
 526 724 526 724 571 724 c 128,-1,28
 616 724 616 724 652 716 c 128,-1,29
 688 708 688 708 717 684.5 c 128,-1,30
 746 661 746 661 746 626 c 0,31,32
 746 606 746 606 728 588 c 128,-1,33
 710 570 710 570 691.5 559.5 c 128,-1,34
 673 549 673 549 641 535 c 0,35,36
 601.573295455 517.857954545 601.573295455 517.857954545 424.5 234 c 0,37,38
 359 129 359 129 293 42.5 c 128,-1,39
 227 -44 227 -44 200 -45 c 1,0,1
EndSplineSet
EndChar

StartChar: two
Encoding: 50 50 56
Width: 660
Flags: HMW
HStem: -28 246<50 447> 16 202<435.5 447 341.5 519> 526 227<456.5 496 367 540.5>
LayerCount: 2
Fore
SplineSet
578 11 m 1,0,-1
 504 16 l 1,1,2
 433 16 433 16 285 -6 c 128,-1,3
 137 -28 137 -28 84.5 -28 c 128,-1,4
 32 -28 32 -28 -9 3.5 c 128,-1,5
 -50 35 -50 35 -50 78 c 128,-1,6
 -50 121 -50 121 27.5 181 c 128,-1,7
 105 241 105 241 202 293 c 128,-1,8
 299 345 299 345 412 407.5 c 128,-1,9
 525 470 525 470 571 506 c 1,10,11
 564 526 564 526 533 526 c 0,12,13
 466 526 466 526 392 501 c 128,-1,14
 318 476 318 476 269 451.5 c 128,-1,15
 220 427 220 427 212 427 c 0,16,17
 173 428 173 428 134.5 470.5 c 128,-1,18
 96 513 96 513 96 555 c 128,-1,19
 96 597 96 597 149 644.5 c 128,-1,20
 202 692 202 692 285.5 722.5 c 128,-1,21
 369 753 369 753 452 753 c 0,22,23
 528.461538462 753 528.461538462 753 610.5 713.5 c 0,24,25
 651 694 651 694 677.5 659.5 c 128,-1,26
 704 625 704 625 704 588 c 128,-1,27
 704 551 704 551 675 515.5 c 128,-1,28
 646 480 646 480 605 451.5 c 0,29,30
 514.514652015 388.601648352 514.514652015 388.601648352 452 359.5 c 2,31,-1
 423 346 l 2,32,33
 383 328 383 328 306 276.5 c 128,-1,34
 229 225 229 225 211.5 215.5 c 128,-1,35
 194 206 194 206 194 200 c 0,36,37
 194 196 194 196 208 196 c 0,38,39
 226 196 226 196 236.5 199.5 c 128,-1,40
 247 203 247 203 248 203 c 0,41,42
 318 218 318 218 370.5 218 c 128,-1,43
 423 218 423 218 474 197.5 c 128,-1,44
 525 177 525 177 556 147.5 c 128,-1,45
 587 118 587 118 605 88 c 128,-1,46
 623 58 623 58 623 37 c 0,47,48
 623 11 623 11 578 11 c 1,0,-1
EndSplineSet
EndChar

StartChar: six
Encoding: 54 54 57
Width: 755
Flags: HMW
HStem: -64 228<205.5 312 205.5 354.5> 357 43 540 209<584.5 633.5 430 663>
VStem: 2 183<190.5 221.5 190.5 277> 520 219<155.5 315 155.5 337>
LayerCount: 2
Fore
SplineSet
663 540 m 1,0,1
 553 540 553 540 460 501 c 128,-1,2
 367 462 367 462 300 400 c 1,3,4
 308 400 308 400 416 397.5 c 128,-1,5
 524 395 524 395 573 388 c 0,6,7
 661 375 661 375 700 328.5 c 128,-1,8
 739 282 739 282 739 231 c 0,9,10
 739 159 739 159 661 89 c 128,-1,11
 583 19 583 19 468.5 -22.5 c 128,-1,12
 354 -64 354 -64 238.5 -64 c 128,-1,13
 123 -64 123 -64 62.5 -4 c 128,-1,14
 2 56 2 56 2 156 c 0,15,16
 2 228 2 228 31.5 310 c 128,-1,17
 61 392 61 392 116.5 469.5 c 128,-1,18
 172 547 172 547 243.5 610 c 128,-1,19
 315 673 315 673 407 711 c 128,-1,20
 499 749 499 749 582.5 749 c 128,-1,21
 666 749 666 749 718.5 716.5 c 128,-1,22
 771 684 771 684 771 608 c 0,23,24
 771 538 771 538 695 538 c 0,25,26
 677 538 677 538 663 540 c 1,0,1
334.5 356 m 1,27,-1
 259 357 l 1,28,29
 185 271 185 271 185 202 c 0,30,31
 185 164 185 164 216 164 c 0,32,33
 283 164 283 164 343.5 182.5 c 128,-1,34
 404 201 404 201 440.5 227 c 128,-1,35
 477 253 477 253 498.5 277 c 128,-1,36
 520 301 520 301 520 314 c 2,37,-1
 520 315 l 2,38,39
 520 356 520 356 334.5 356 c 1,27,-1
EndSplineSet
EndChar

StartChar: five
Encoding: 53 53 58
Width: 742
Flags: HMW
HStem: -49 219 548 198<635 678.5>
VStem: 124 157<456 671.5>
LayerCount: 2
Fore
SplineSet
141 199 m 1,0,1
 170 170 170 170 277 170 c 1,2,3
 428.243902439 181.414634146 428.243902439 181.414634146 467.5 231.5 c 0,4,5
 482 250 482 250 485.5 258 c 128,-1,6
 489 266 489 266 493 286 c 2,7,-1
 497 306 l 1,8,9
 496 325 496 325 457 325 c 0,10,11
 325 325 325 325 224.5 406.5 c 128,-1,12
 124 488 124 488 124 600 c 0,13,14
 124 670.340206186 124 670.340206186 221.5 701.5 c 0,15,16
 321.950542185 733.602750595 321.950542185 733.602750595 417.475271092 738.801375298 c 0,17,18
 549.75 746 549.75 746 676 746 c 0,19,20
 751 746 751 746 794.5 723.5 c 128,-1,21
 838 701 838 701 838 655 c 0,22,23
 838 619 838 619 765 530 c 128,-1,24
 692 441 692 441 658 441 c 0,25,26
 651 441 651 441 645.5 447.5 c 128,-1,27
 640 454 640 454 640.5 464 c 128,-1,28
 641 474 641 474 666.5 500.5 c 128,-1,29
 692 527 692 527 693 540 c 0,30,31
 693 548 693 548 672 548 c 0,32,33
 566 548 566 548 425 535 c 128,-1,34
 284 522 284 522 281 494 c 1,35,36
 281 456.111111111 281 456.111111111 333 433 c 0,37,38
 388.653061224 408.265306122 388.653061224 408.265306122 439.826530612 398.632653061 c 0,39,40
 520.129213483 383.516853933 520.129213483 383.516853933 574 376 c 0,41,42
 695 359 695 359 695 251 c 0,43,44
 695 177 695 177 625 106.5 c 128,-1,45
 555 36 555 36 445.5 -6.5 c 128,-1,46
 336 -49 336 -49 236 -49 c 0,47,48
 33 -49 33 -49 33 77 c 1,49,50
 40 158 40 158 141 199 c 1,0,1
EndSplineSet
EndChar

StartChar: nine
Encoding: 57 57 59
Width: 790
Flags: HMW
HStem: -63 196<164 287.5 157 430> 260 66<241.5 417.5> 538 212<532 642.5>
VStem: 43 95<25.5 159> 92 65 92 208<384 402 356.5 530.5> 680 137<471.5 497.5>
LayerCount: 2
Fore
SplineSet
166 133 m 0,0,1
 334 133 334 133 459 205.5 c 128,-1,2
 584 278 584 278 644 376 c 1,3,4
 570 325 570 325 476 292.5 c 128,-1,5
 382 260 382 260 294 260 c 128,-1,6
 206 260 206 260 149 307 c 128,-1,7
 92 354 92 354 92 455 c 0,8,9
 92 527 92 527 166 597 c 128,-1,10
 240 667 240 667 349 708.5 c 128,-1,11
 458 750 458 750 559 750 c 0,12,13
 681 750 681 750 749 666 c 128,-1,14
 817 582 817 582 817 456 c 0,15,16
 817 366 817 366 780.5 276.5 c 128,-1,17
 744 187 744 187 674.5 110 c 128,-1,18
 605 33 605 33 489.5 -15 c 128,-1,19
 374 -63 374 -63 231 -63 c 0,20,21
 43 -63 43 -63 43 65 c 0,22,23
 43 121 43 121 76 177 c 128,-1,24
 109 233 109 233 132 233 c 1,25,26
 143 232 143 232 150 223.5 c 128,-1,27
 157 215 157 215 157 205 c 128,-1,28
 157 195 157 195 147.5 177 c 128,-1,29
 138 159 138 159 138 151 c 0,30,31
 138 133 138 133 166 133 c 0,0,1
300 371 m 0,32,33
 300 326 300 326 391.5 326 c 0,34,35
 439 326 439 326 515 351 c 128,-1,36
 591 376 591 376 668 424 c 1,37,38
 680 454 680 454 680 480 c 0,39,40
 680 538 680 538 623 538 c 0,41,42
 496 538 496 538 398 480.5 c 128,-1,43
 300 423 300 423 300 371 c 0,32,33
EndSplineSet
EndChar

StartChar: zero
Encoding: 48 48 60
Width: 695
Flags: HMW
HStem: -56 118<290.5 313> 613 136<567.5 578.5 456.5 661>
VStem: 684 95<545 596.5>
LayerCount: 2
Fore
SplineSet
669 692 m 1,0,-1
 675 692 l 1,1,2
 698 708 698 708 724.5 708 c 128,-1,3
 751 708 751 708 765 685 c 128,-1,4
 779 662 779 662 779 634 c 0,5,6
 779 581 779 581 743 494.5 c 128,-1,7
 707 408 707 408 644 314 c 128,-1,8
 581 220 581 220 506 136 c 128,-1,9
 431 52 431 52 343.5 -2 c 128,-1,10
 256 -56 256 -56 185 -56 c 128,-1,11
 114 -56 114 -56 60 22 c 128,-1,12
 6 100 6 100 6 210.5 c 128,-1,13
 6 321 6 321 63.5 424 c 128,-1,14
 121 527 121 527 206 596.5 c 128,-1,15
 291 666 291 666 386 707.5 c 128,-1,16
 481 749 481 749 555.5 749 c 128,-1,17
 630 749 630 749 669 692 c 1,0,-1
684 588 m 0,18,19
 684 602.545454545 684 602.545454545 661 613 c 1,20,21
 571 613 571 613 477 530.5 c 128,-1,22
 383 448 383 448 323.5 328.5 c 128,-1,23
 264 209 264 209 264 105 c 2,24,-1
 264 102 l 1,25,26
 270 62 270 62 300 62 c 0,27,28
 350 62 350 62 443 162.5 c 128,-1,29
 536 263 536 263 610 391 c 128,-1,30
 684 519 684 519 684 588 c 0,18,19
EndSplineSet
EndChar

StartChar: four
Encoding: 52 52 61
Width: 740
Flags: HMW
HStem: -92 21G<374 409.5> 109 167<88.5 334.5> 720 20G<352 417.5>
VStem: 295 224<597 636>
LayerCount: 2
Fore
SplineSet
308 292 m 1,0,1
 309 276 309 276 317 276 c 0,2,3
 347 276 347 276 516.5 422 c 128,-1,4
 686 568 686 568 810 715 c 1,5,6
 825 730 825 730 841 730 c 0,7,8
 872 730 872 730 877 695 c 1,9,10
 875.046979866 665.704697987 875.046979866 665.704697987 845 622 c 0,11,12
 834 606 834 606 817.5 583 c 128,-1,13
 801 560 801 560 795 551 c 0,14,15
 569 217 569 217 496 84 c 0,16,17
 473 43 473 43 451 -7 c 128,-1,18
 429 -57 429 -57 418.5 -74.5 c 128,-1,19
 408 -92 408 -92 395 -92 c 0,20,21
 367 -92 367 -92 345 -56 c 128,-1,22
 323 -20 323 -20 323 11 c 0,23,24
 323 60.3333333333 323 60.3333333333 395.5 157 c 0,25,26
 466 251 466 251 466 269 c 0,27,28
 466 271 466 271 464 271 c 0,29,30
 455 271 455 271 395.5 230.5 c 128,-1,31
 336 190 336 190 258.5 149.5 c 128,-1,32
 181 109 181 109 127.5 109 c 128,-1,33
 74 109 74 109 45 151.5 c 128,-1,34
 16 194 16 194 16 241 c 0,35,36
 16 274 16 274 59.5 333.5 c 128,-1,37
 103 393 103 393 155.5 446.5 c 128,-1,38
 208 500 208 500 251.5 555 c 128,-1,39
 295 610 295 610 295 636 c 1,40,41
 302 654 302 654 310 676 c 128,-1,42
 318 698 318 698 321 705.5 c 128,-1,43
 324 713 324 713 329 723 c 128,-1,44
 334 733 334 733 341 735 c 0,45,46
 358.5 740 358.5 740 385 740 c 0,47,48
 439 740 439 740 479 707 c 128,-1,49
 519 674 519 674 519 611 c 0,50,51
 519 577 519 577 466.5 497.5 c 128,-1,52
 414 418 414 418 361 355 c 2,53,-1
 308 292 l 1,0,1
EndSplineSet
EndChar

StartChar: aacute
Encoding: 225 225 62
Width: 402
Flags: HMW
HStem: -23 111<214 297> -8 21G<70 120.5> 474 20G<561 607.5>
VStem: 38 168<96.5 112> 237 212 412 237<352 449>
LayerCount: 2
Fore
SplineSet
319 40 m 0,0,1
 319 34.75 319 34.75 326 33 c 1,2,3
 333.258064516 33 333.258064516 33 374.629032258 61.5 c 128,-1,4
 416 90 416 90 421.5 93 c 128,-1,5
 427 96 427 96 432 96 c 0,6,7
 446 96 446 96 446 82.5 c 128,-1,8
 446 69 446 69 375.5 23 c 128,-1,9
 305 -23 305 -23 276 -23 c 0,10,11
 264 -23 264 -23 250.5 -13 c 128,-1,12
 237 -3 237 -3 237 10.5 c 128,-1,13
 237 24 237 24 244 40 c 128,-1,14
 251 56 251 56 251 61.5 c 128,-1,15
 251 67 251 67 248 67 c 128,-1,16
 245 67 245 67 242 65 c 0,17,18
 145 -8 145 -8 99 -8 c 0,19,20
 73 -8 73 -8 58 11 c 128,-1,21
 43 30 43 30 40.5 49 c 2,22,-1
 38 68 l 1,23,24
 38 101 38 101 63.5 144.5 c 128,-1,25
 89 188 89 188 130.5 227.5 c 128,-1,26
 172 267 172 267 232.5 294 c 128,-1,27
 293 321 293 321 356 321 c 0,28,29
 390 321 390 321 419.5 303 c 128,-1,30
 449 285 449 285 449 261 c 128,-1,31
 449 237 449 237 402 232 c 1,32,33
 367 224 367 224 286.5 174.5 c 128,-1,34
 206 125 206 125 206 99 c 0,35,36
 206 88 206 88 217 88 c 0,37,38
 237 88 237 88 311.5 145 c 128,-1,39
 386 202 386 202 401 202 c 128,-1,40
 416 202 416 202 416 184 c 0,41,42
 416 171.071428571 416 171.071428571 406.5 159.535714286 c 128,-1,43
 397 148 397 148 393 143 c 0,44,45
 385 133 385 133 352 98.5 c 128,-1,46
 319 64 319 64 319 40 c 0,0,1
644 467 m 0,47,48
 649 454 649 454 649 446 c 0,49,50
 649 422 649 422 617 407 c 128,-1,51
 585 392 585 392 553 389 c 2,52,-1
 521 386 l 1,53,54
 495.597938144 382.371134021 495.597938144 382.371134021 439 352.5 c 2,55,-1
 421 343 l 1,56,57
 412 348 412 348 412 356 c 0,58,59
 412 388 412 388 479 441 c 128,-1,60
 546 494 546 494 589 494 c 128,-1,61
 632 494 632 494 644 467 c 0,47,48
EndSplineSet
EndChar

StartChar: acute
Encoding: 180 180 63
Width: 402
Flags: HMW
HStem: 343 21G<149 149> 474 20G<289 335.5>
VStem: 140 237<352 449>
LayerCount: 2
Fore
SplineSet
372 467 m 0,0,1
 377 454 377 454 377 446 c 0,2,3
 377 422 377 422 345 407 c 128,-1,4
 313 392 313 392 281 389 c 2,5,-1
 249 386 l 1,6,7
 223.597938144 382.371134021 223.597938144 382.371134021 167 352.5 c 2,8,-1
 149 343 l 1,9,10
 140 348 140 348 140 356 c 0,11,12
 140 388 140 388 207 441 c 128,-1,13
 274 494 274 494 317 494 c 128,-1,14
 360 494 360 494 372 467 c 0,0,1
EndSplineSet
EndChar

StartChar: eacute
Encoding: 233 233 64
Width: 358
Flags: HMW
HStem: -17 64<82.5 225.5> 555 20G<528 574.5>
VStem: 41 138<54 68.5 54 80.5> 99 101<204.5 214.5 200 265.5> 155 45<161 214.5> 155 157<161 174> 379 89 379 237<433 530>
LayerCount: 2
Fore
SplineSet
229 194 m 1,0,-1
 278 199 l 1,1,2
 312 199 312 199 312 165 c 0,3,4
 312 147 312 147 279 125 c 128,-1,5
 246 103 246 103 212.5 84.5 c 128,-1,6
 179 66 179 66 179 56 c 0,7,8
 179 49 179 49 195 47 c 1,9,10
 230 47 230 47 328 103 c 128,-1,11
 426 159 426 159 433 159 c 0,12,13
 447 159 447 159 447 145 c 1,14,15
 446 135 446 135 383.5 95.5 c 128,-1,16
 321 56 321 56 237.5 19.5 c 128,-1,17
 154 -17 154 -17 110 -17 c 0,18,19
 41 -17 41 -17 41 56 c 0,20,21
 41 77 41 77 69.5 102 c 128,-1,22
 98 127 98 127 126.5 145 c 128,-1,23
 155 163 155 163 155 167.5 c 128,-1,24
 155 172 155 172 141 178 c 0,25,26
 99 196 99 196 99 226 c 0,27,28
 99 282 99 282 192.5 332.5 c 128,-1,29
 286 383 286 383 366 383 c 0,30,31
 410 383 410 383 439 366.5 c 128,-1,32
 468 350 468 350 468 316.5 c 128,-1,33
 468 283 468 283 421.5 254 c 128,-1,34
 375 225 375 225 355 225 c 0,35,36
 347 225 347 225 340.5 229 c 128,-1,37
 334 233 334 233 334 238 c 128,-1,38
 334 243 334 243 361.5 254.5 c 128,-1,39
 389 266 389 266 389 276 c 0,40,41
 389 281 389 281 374.5 281 c 128,-1,42
 360 281 360 281 280 249.5 c 128,-1,43
 200 218 200 218 200 205 c 0,44,45
 200 194 200 194 229 194 c 1,0,-1
611 548 m 0,46,47
 616 535 616 535 616 527 c 0,48,49
 616 503 616 503 584 488 c 128,-1,50
 552 473 552 473 520 470 c 2,51,-1
 488 467 l 1,52,53
 462.597938144 463.371134021 462.597938144 463.371134021 406 433.5 c 2,54,-1
 388 424 l 1,55,56
 379 428 379 428 379 437 c 0,57,58
 379 469 379 469 446 522 c 128,-1,59
 513 575 513 575 556 575 c 128,-1,60
 599 575 599 575 611 548 c 0,46,47
EndSplineSet
EndChar

StartChar: oacute
Encoding: 243 243 65
Width: 334
Flags: HMW
HStem: -22 68<92 187> 179 31<361 382> 489 20G<482 528.5>
VStem: 33 130<60 96 60 152.5> 333 40 333 237<367 464>
LayerCount: 2
Fore
SplineSet
338 237 m 0,0,1
 338 210 338 210 370 210 c 0,2,3
 400 210 400 210 436 225 c 128,-1,4
 472 240 472 240 475 240 c 128,-1,5
 478 240 478 240 481.5 235 c 128,-1,6
 485 230 485 230 485 225 c 0,7,8
 485 214 485 214 438.5 196.5 c 128,-1,9
 392 179 392 179 371 179 c 128,-1,10
 350 179 350 179 341.5 179.5 c 128,-1,11
 333 180 333 180 328 169 c 0,12,13
 253.566666667 30.2833333333 253.566666667 30.2833333333 181 -6 c 0,14,15
 149 -22 149 -22 113.5 -22 c 128,-1,16
 78 -22 78 -22 55.5 1.5 c 128,-1,17
 33 25 33 25 33 76 c 0,18,19
 33 147 33 147 79.5 208.5 c 128,-1,20
 126 270 126 270 185 301 c 128,-1,21
 244 332 244 332 292 332 c 1,22,23
 373 323 373 323 373 283 c 0,24,25
 373 272 373 272 367.5 263.5 c 128,-1,26
 362 255 362 255 358.5 253.5 c 128,-1,27
 355 252 355 252 350.5 251 c 0,28,29
 338 248.222222222 338 248.222222222 338 237 c 0,0,1
193.5 130 m 128,-1,31
 163 93 163 93 163 69.5 c 128,-1,32
 163 46 163 46 176 46 c 0,33,34
 196 46 196 46 249.5 107.5 c 128,-1,35
 303 169 303 169 303 209 c 0,36,37
 303 215 303 215 295.5 215 c 128,-1,38
 288 215 288 215 256 191 c 128,-1,30
 224 167 224 167 193.5 130 c 128,-1,31
565 482 m 0,39,40
 570 469 570 469 570 461 c 0,41,42
 570 437 570 437 538 422 c 128,-1,43
 506 407 506 407 474 404 c 2,44,-1
 442 401 l 1,45,46
 416.597938144 397.371134021 416.597938144 397.371134021 360 367.5 c 2,47,-1
 342 358 l 1,48,49
 333 362 333 362 333 371 c 0,50,51
 333 403 333 403 400 456 c 128,-1,52
 467 509 467 509 510 509 c 128,-1,53
 553 509 553 509 565 482 c 0,39,40
EndSplineSet
EndChar

StartChar: uacute
Encoding: 250 250 66
Width: 453
Flags: HMW
HStem: -18 133<221.5 334> 458 20G<514 560.5>
VStem: 34 180<50 138.5> 365 237<336 433>
LayerCount: 2
Fore
SplineSet
526 151 m 0,0,1
 540 151 540 151 540 136 c 128,-1,2
 540 121 540 121 496 83.5 c 128,-1,3
 452 46 452 46 391.5 14 c 128,-1,4
 331 -18 331 -18 292 -18 c 0,5,6
 243 -18 243 -18 243 35 c 0,7,8
 243 48 243 48 253 63.5 c 128,-1,9
 263 79 263 79 263 81 c 0,10,11
 263 87 263 87 256 87 c 128,-1,12
 249 87 249 87 246.5 86 c 128,-1,13
 244 85 244 85 212 65.5 c 0,14,15
 120.923076923 10 120.923076923 10 95.9615384615 10 c 128,-1,16
 71 10 71 10 52.5 26.5 c 128,-1,17
 34 43 34 43 34 64 c 0,18,19
 34 106 34 106 64 150 c 128,-1,20
 94 194 94 194 133 224 c 128,-1,21
 172 254 172 254 205.5 273 c 128,-1,22
 239 292 239 292 251 292 c 128,-1,23
 263 292 263 292 281 275 c 128,-1,24
 299 258 299 258 299 242.5 c 128,-1,25
 299 227 299 227 288 218 c 0,26,27
 214 153 214 153 214 128 c 0,28,29
 214 115 214 115 226 115 c 0,30,31
 255 115 255 115 309 162.5 c 128,-1,32
 363 210 363 210 397 249 c 1,33,34
 424 277 424 277 444 277 c 128,-1,35
 464 277 464 277 483.5 262.5 c 128,-1,36
 503 248 503 248 503 236.5 c 128,-1,37
 503 225 503 225 498 216.5 c 128,-1,38
 493 208 493 208 458 163.5 c 128,-1,39
 423 119 423 119 413.5 107 c 128,-1,40
 404 95 404 95 404 87 c 128,-1,41
 404 79 404 79 408 79 c 128,-1,42
 412 79 412 79 415.5 79.5 c 128,-1,43
 419 80 419 80 440.5 95 c 128,-1,44
 462 110 462 110 485.5 127.5 c 0,45,46
 517.057142857 151 517.057142857 151 526 151 c 0,0,1
597 451 m 0,47,48
 602 438 602 438 602 430 c 0,49,50
 602 406 602 406 570 391 c 128,-1,51
 538 376 538 376 506 373 c 2,52,-1
 474 370 l 1,53,54
 448.597938144 366.371134021 448.597938144 366.371134021 392 336.5 c 2,55,-1
 374 327 l 1,56,57
 365 332 365 332 365 340 c 0,58,59
 365 372 365 372 432 425 c 128,-1,60
 499 478 499 478 542 478 c 128,-1,61
 585 478 585 478 597 451 c 0,47,48
EndSplineSet
EndChar

StartChar: yacute
Encoding: 253 253 67
Width: 366
Flags: HMW
HStem: -280 21G<46 58.5> 474 20G<513 559.5>
VStem: 364 237<352 449>
LayerCount: 2
Fore
SplineSet
28 91 m 0,0,1
 28 133 28 133 80.5 189 c 128,-1,2
 133 245 133 245 187.5 281.5 c 128,-1,3
 242 318 242 318 256 318 c 128,-1,4
 270 318 270 318 277.5 298 c 128,-1,5
 285 278 285 278 285 263.5 c 128,-1,6
 285 249 285 249 283.5 244 c 128,-1,7
 282 239 282 239 280.5 237 c 128,-1,8
 279 235 279 235 275.5 232 c 128,-1,9
 272 229 272 229 268.5 225.5 c 128,-1,10
 265 222 265 222 235 187.5 c 128,-1,11
 205 153 205 153 201.5 147.5 c 128,-1,12
 198 142 198 142 198 133.5 c 128,-1,13
 198 125 198 125 205 125 c 128,-1,14
 212 125 212 125 217 129 c 0,15,16
 254 152 254 152 386 260 c 1,17,18
 413 279 413 279 422 279 c 128,-1,19
 431 279 431 279 440.5 270.5 c 128,-1,20
 450 262 450 262 450 257 c 0,21,22
 450 228 450 228 387.5 138.5 c 128,-1,23
 325 49 325 49 233 -70.5 c 128,-1,24
 141 -190 141 -190 111 -235 c 128,-1,25
 81 -280 81 -280 53 -280 c 0,26,27
 39 -280 39 -280 25 -265.5 c 128,-1,28
 11 -251 11 -251 11 -230.5 c 128,-1,29
 11 -210 11 -210 14 -192.5 c 128,-1,30
 17 -175 17 -175 33 -147 c 128,-1,31
 49 -119 49 -119 75 -86.5 c 128,-1,32
 101 -54 101 -54 121.5 -29.5 c 128,-1,33
 142 -5 142 -5 168.5 24 c 128,-1,34
 195 53 195 53 198.5 57.5 c 128,-1,35
 202 62 202 62 202 65 c 128,-1,36
 202 68 202 68 199.5 68 c 128,-1,37
 197 68 197 68 153.5 44 c 128,-1,38
 110 20 110 20 82.5 20 c 128,-1,39
 55 20 55 20 41.5 47 c 128,-1,40
 28 74 28 74 28 91 c 0,0,1
596 467 m 0,41,42
 601 454 601 454 601 446 c 0,43,44
 601 422 601 422 569 407 c 128,-1,45
 537 392 537 392 505 389 c 2,46,-1
 473 386 l 1,47,48
 447.597938144 382.371134021 447.597938144 382.371134021 391 352.5 c 2,49,-1
 373 343 l 1,50,51
 364 348 364 348 364 356 c 0,52,53
 364 388 364 388 431 441 c 128,-1,54
 498 494 498 494 541 494 c 128,-1,55
 584 494 584 494 596 467 c 0,41,42
EndSplineSet
EndChar

StartChar: grave
Encoding: 96 96 68
Width: 402
Flags: HMW
HStem: 325 21G<267 267> 486 20G<82.5 136.5>
VStem: 60 218<336 461>
LayerCount: 2
Fore
SplineSet
104 506 m 0,0,1
 152 506 152 506 215 443 c 128,-1,2
 278 380 278 380 278 336 c 1,3,4
 277 330 277 330 267 325 c 1,5,6
 206 375 206 375 176 385 c 1,7,8
 141.306122449 391.93877551 141.306122449 391.93877551 113.153061224 406.469387755 c 0,9,10
 60 433.903225806 60 433.903225806 60 461 c 0,11,12
 60 477.590909091 60 477.590909091 72.5 491.795454545 c 128,-1,13
 85 506 85 506 104 506 c 0,0,1
EndSplineSet
EndChar

StartChar: agrave
Encoding: 224 224 69
Width: 402
Flags: HMW
HStem: -23 111<214 297> -23 225<268.5 405.5> -8 21G<70 120.5> 497 20G<257.5 311.5>
VStem: 38 168<96.5 112> 235 214<251 472>
LayerCount: 2
Fore
SplineSet
319 40 m 0,0,1
 319 34.75 319 34.75 326 33 c 1,2,3
 333.258064516 33 333.258064516 33 374.629032258 61.5 c 128,-1,4
 416 90 416 90 421.5 93 c 128,-1,5
 427 96 427 96 432 96 c 0,6,7
 446 96 446 96 446 82.5 c 128,-1,8
 446 69 446 69 375.5 23 c 128,-1,9
 305 -23 305 -23 276 -23 c 0,10,11
 264 -23 264 -23 250.5 -13 c 128,-1,12
 237 -3 237 -3 237 10.5 c 128,-1,13
 237 24 237 24 244 40 c 128,-1,14
 251 56 251 56 251 61.5 c 128,-1,15
 251 67 251 67 248 67 c 128,-1,16
 245 67 245 67 242 65 c 0,17,18
 145 -8 145 -8 99 -8 c 0,19,20
 73 -8 73 -8 58 11 c 128,-1,21
 43 30 43 30 40.5 49 c 2,22,-1
 38 68 l 1,23,24
 38 101 38 101 63.5 144.5 c 128,-1,25
 89 188 89 188 130.5 227.5 c 128,-1,26
 172 267 172 267 232.5 294 c 128,-1,27
 293 321 293 321 356 321 c 0,28,29
 390 321 390 321 419.5 303 c 128,-1,30
 449 285 449 285 449 261 c 128,-1,31
 449 237 449 237 402 232 c 1,32,33
 367 224 367 224 286.5 174.5 c 128,-1,34
 206 125 206 125 206 99 c 0,35,36
 206 88 206 88 217 88 c 0,37,38
 237 88 237 88 311.5 145 c 128,-1,39
 386 202 386 202 401 202 c 128,-1,40
 416 202 416 202 416 184 c 0,41,42
 416 171.071428571 416 171.071428571 406.5 159.535714286 c 128,-1,43
 397 148 397 148 393 143 c 0,44,45
 385 133 385 133 352 98.5 c 128,-1,46
 319 64 319 64 319 40 c 0,0,1
279 517 m 0,47,48
 327 517 327 517 390 454 c 128,-1,49
 453 391 453 391 453 347 c 1,50,51
 452 341 452 341 442 336 c 1,52,53
 381 386 381 386 351 396 c 1,54,55
 316.306122449 402.93877551 316.306122449 402.93877551 288.153061224 417.469387755 c 0,56,57
 235 444.903225806 235 444.903225806 235 472 c 0,58,59
 235 488.590909091 235 488.590909091 247.5 502.795454545 c 128,-1,60
 260 517 260 517 279 517 c 0,47,48
EndSplineSet
EndChar

StartChar: dotlessi
Encoding: 305 305 70
Width: 250
Flags: HMW
HStem: -26 21G<48 91.5> 266 20G<250 271.5>
LayerCount: 2
Fore
SplineSet
147 32 m 128,-1,1
 89 -26 89 -26 65 -26 c 128,-1,2
 41 -26 41 -26 26 -11.5 c 128,-1,3
 11 3 11 3 11 25 c 0,4,5
 11 95 11 95 94.5 184 c 128,-1,6
 178 273 178 273 250 286 c 1,7,8
 295 286 295 286 295 233 c 0,9,10
 295 216 295 216 250 153 c 128,-1,0
 205 90 205 90 147 32 c 128,-1,1
EndSplineSet
EndChar

StartChar: iacute
Encoding: 237 237 71
Width: 228
Flags: HMW
HStem: -26 21G<48 91.5> 468 20G<453 499.5>
VStem: 295 246<216.5 443>
LayerCount: 2
Fore
SplineSet
26 -11.5 m 128,-1,1
 41 -26 41 -26 65 -26 c 128,-1,2
 89 -26 89 -26 147 32 c 128,-1,3
 205 90 205 90 250 153 c 128,-1,4
 295 216 295 216 295 233 c 0,5,6
 295 286 295 286 250 286 c 1,7,8
 178 273 178 273 94.5 184 c 128,-1,9
 11 95 11 95 11 25 c 0,10,0
 11 3 11 3 26 -11.5 c 128,-1,1
536 461 m 0,11,12
 541 448 541 448 541 440 c 0,13,14
 541 416 541 416 509 401 c 128,-1,15
 477 386 477 386 445 383 c 2,16,-1
 413 380 l 1,17,18
 387.597938144 376.371134021 387.597938144 376.371134021 331 346.5 c 2,19,-1
 313 337 l 1,20,21
 304 342 304 342 304 350 c 0,22,23
 304 382 304 382 371 435 c 128,-1,24
 438 488 438 488 481 488 c 128,-1,25
 524 488 524 488 536 461 c 0,11,12
EndSplineSet
EndChar

StartChar: egrave
Encoding: 232 232 72
Width: 358
Flags: HMW
HStem: -17 64<82.5 225.5> -17 216<82.5 287> 567 20G<263.5 317.5>
VStem: 41 138<54 68.5 54 80.5> 99 101<204.5 214.5 200 265.5> 155 45<161 214.5> 155 157<161 174> 241 227<290.5 542>
LayerCount: 2
Fore
SplineSet
229 194 m 1,0,-1
 278 199 l 1,1,2
 312 199 312 199 312 165 c 0,3,4
 312 147 312 147 279 125 c 128,-1,5
 246 103 246 103 212.5 84.5 c 128,-1,6
 179 66 179 66 179 56 c 0,7,8
 179 49 179 49 195 47 c 1,9,10
 230 47 230 47 328 103 c 128,-1,11
 426 159 426 159 433 159 c 0,12,13
 447 159 447 159 447 145 c 1,14,15
 446 135 446 135 383.5 95.5 c 128,-1,16
 321 56 321 56 237.5 19.5 c 128,-1,17
 154 -17 154 -17 110 -17 c 0,18,19
 41 -17 41 -17 41 56 c 0,20,21
 41 77 41 77 69.5 102 c 128,-1,22
 98 127 98 127 126.5 145 c 128,-1,23
 155 163 155 163 155 167.5 c 128,-1,24
 155 172 155 172 141 178 c 0,25,26
 99 196 99 196 99 226 c 0,27,28
 99 282 99 282 192.5 332.5 c 128,-1,29
 286 383 286 383 366 383 c 0,30,31
 410 383 410 383 439 366.5 c 128,-1,32
 468 350 468 350 468 316.5 c 128,-1,33
 468 283 468 283 421.5 254 c 128,-1,34
 375 225 375 225 355 225 c 0,35,36
 347 225 347 225 340.5 229 c 128,-1,37
 334 233 334 233 334 238 c 128,-1,38
 334 243 334 243 361.5 254.5 c 128,-1,39
 389 266 389 266 389 276 c 0,40,41
 389 281 389 281 374.5 281 c 128,-1,42
 360 281 360 281 280 249.5 c 128,-1,43
 200 218 200 218 200 205 c 0,44,45
 200 194 200 194 229 194 c 1,0,-1
285 587 m 0,46,47
 333 587 333 587 396 524 c 128,-1,48
 459 461 459 461 459 417 c 1,49,50
 458 411 458 411 448 406 c 1,51,52
 387 456 387 456 357 466 c 1,53,54
 322.306122449 472.93877551 322.306122449 472.93877551 294.153061224 487.469387755 c 0,55,56
 241 514.903225806 241 514.903225806 241 542 c 0,57,58
 241 558.590909091 241 558.590909091 253.5 572.795454545 c 128,-1,59
 266 587 266 587 285 587 c 0,46,47
EndSplineSet
EndChar

StartChar: ograve
Encoding: 242 242 73
Width: 334
Flags: HMW
HStem: -22 68<92 187> 179 31<361 382> 519 20G<194.5 248.5>
VStem: 33 130<60 96 60 152.5> 172 218<369 494>
LayerCount: 2
Fore
SplineSet
338 237 m 0,0,1
 338 210 338 210 370 210 c 0,2,3
 400 210 400 210 436 225 c 128,-1,4
 472 240 472 240 475 240 c 128,-1,5
 478 240 478 240 481.5 235 c 128,-1,6
 485 230 485 230 485 225 c 0,7,8
 485 214 485 214 438.5 196.5 c 128,-1,9
 392 179 392 179 371 179 c 128,-1,10
 350 179 350 179 341.5 179.5 c 128,-1,11
 333 180 333 180 328 169 c 0,12,13
 253.566666667 30.2833333333 253.566666667 30.2833333333 181 -6 c 0,14,15
 149 -22 149 -22 113.5 -22 c 128,-1,16
 78 -22 78 -22 55.5 1.5 c 128,-1,17
 33 25 33 25 33 76 c 0,18,19
 33 147 33 147 79.5 208.5 c 128,-1,20
 126 270 126 270 185 301 c 128,-1,21
 244 332 244 332 292 332 c 1,22,23
 373 323 373 323 373 283 c 0,24,25
 373 272 373 272 367.5 263.5 c 128,-1,26
 362 255 362 255 358.5 253.5 c 128,-1,27
 355 252 355 252 350.5 251 c 0,28,29
 338 248.222222222 338 248.222222222 338 237 c 0,0,1
193.5 130 m 128,-1,31
 163 93 163 93 163 69.5 c 128,-1,32
 163 46 163 46 176 46 c 0,33,34
 196 46 196 46 249.5 107.5 c 128,-1,35
 303 169 303 169 303 209 c 0,36,37
 303 215 303 215 295.5 215 c 128,-1,38
 288 215 288 215 256 191 c 128,-1,30
 224 167 224 167 193.5 130 c 128,-1,31
216 539 m 0,39,40
 264 539 264 539 327 476 c 128,-1,41
 390 413 390 413 390 369 c 1,42,43
 389 363 389 363 379 358 c 1,44,45
 318 408 318 408 288 418 c 1,46,47
 253.306122449 424.93877551 253.306122449 424.93877551 225.153061224 439.469387755 c 0,48,49
 172 466.903225806 172 466.903225806 172 494 c 0,50,51
 172 510.590909091 172 510.590909091 184.5 524.795454545 c 128,-1,52
 197 539 197 539 216 539 c 0,39,40
EndSplineSet
EndChar

StartChar: ugrave
Encoding: 249 249 74
Width: 453
Flags: HMW
HStem: -18 133<221.5 334> 469 20G<213.5 267.5>
VStem: 34 180<50 138.5> 191 218<319 444> 243 166
LayerCount: 2
Fore
SplineSet
526 151 m 0,0,1
 540 151 540 151 540 136 c 128,-1,2
 540 121 540 121 496 83.5 c 128,-1,3
 452 46 452 46 391.5 14 c 128,-1,4
 331 -18 331 -18 292 -18 c 0,5,6
 243 -18 243 -18 243 35 c 0,7,8
 243 48 243 48 253 63.5 c 128,-1,9
 263 79 263 79 263 81 c 0,10,11
 263 87 263 87 256 87 c 128,-1,12
 249 87 249 87 246.5 86 c 128,-1,13
 244 85 244 85 212 65.5 c 0,14,15
 120.923076923 10 120.923076923 10 95.9615384615 10 c 128,-1,16
 71 10 71 10 52.5 26.5 c 128,-1,17
 34 43 34 43 34 64 c 0,18,19
 34 106 34 106 64 150 c 128,-1,20
 94 194 94 194 133 224 c 128,-1,21
 172 254 172 254 205.5 273 c 128,-1,22
 239 292 239 292 251 292 c 128,-1,23
 263 292 263 292 281 275 c 128,-1,24
 299 258 299 258 299 242.5 c 128,-1,25
 299 227 299 227 288 218 c 0,26,27
 214 153 214 153 214 128 c 0,28,29
 214 115 214 115 226 115 c 0,30,31
 255 115 255 115 309 162.5 c 128,-1,32
 363 210 363 210 397 249 c 1,33,34
 424 277 424 277 444 277 c 128,-1,35
 464 277 464 277 483.5 262.5 c 128,-1,36
 503 248 503 248 503 236.5 c 128,-1,37
 503 225 503 225 498 216.5 c 128,-1,38
 493 208 493 208 458 163.5 c 128,-1,39
 423 119 423 119 413.5 107 c 128,-1,40
 404 95 404 95 404 87 c 128,-1,41
 404 79 404 79 408 79 c 128,-1,42
 412 79 412 79 415.5 79.5 c 128,-1,43
 419 80 419 80 440.5 95 c 128,-1,44
 462 110 462 110 485.5 127.5 c 0,45,46
 517.057142857 151 517.057142857 151 526 151 c 0,0,1
235 489 m 0,47,48
 283 489 283 489 346 426 c 128,-1,49
 409 363 409 363 409 319 c 1,50,51
 408 313 408 313 398 308 c 1,52,53
 337 358 337 358 307 368 c 1,54,55
 272.306122449 374.93877551 272.306122449 374.93877551 244.153061224 389.469387755 c 0,56,57
 191 416.903225806 191 416.903225806 191 444 c 0,58,59
 191 460.590909091 191 460.590909091 203.5 474.795454545 c 128,-1,60
 216 489 216 489 235 489 c 0,47,48
EndSplineSet
EndChar

StartChar: Yacute
Encoding: 221 221 75
Width: 544
Flags: HMW
HStem: -368 21G<99.5 130.5> 683 187
VStem: 713 237<728 825>
LayerCount: 2
Fore
SplineSet
535 483 m 1,0,1
 572 525 572 525 572 570 c 0,2,3
 572 683 572 683 459 683 c 0,4,5
 404 683 404 683 338 656.5 c 128,-1,6
 272 630 272 630 227.5 595 c 128,-1,7
 183 560 183 560 183 534 c 0,8,9
 183 523 183 523 190.5 515.5 c 128,-1,10
 198 508 198 508 205.5 508 c 128,-1,11
 213 508 213 508 232.5 518.5 c 128,-1,12
 252 529 252 529 272 540.5 c 0,13,14
 329.647058824 573.647058824 329.647058824 573.647058824 334.823529412 577.823529412 c 128,-1,15
 340 582 340 582 345.5 582 c 128,-1,16
 351 582 351 582 351 580 c 0,17,18
 351 555.2 351 555.2 179 396.1 c 128,-1,19
 7 237 7 237 -10 198 c 0,20,21
 -24 168 -24 168 -24 132 c 128,-1,22
 -24 96 -24 96 0.5 62 c 128,-1,23
 25 28 25 28 69 28 c 0,24,25
 152 28 152 28 404 196 c 0,26,27
 440 220 440 220 453 229 c 128,-1,28
 466 238 466 238 470 238 c 128,-1,29
 474 238 474 238 474 236 c 0,30,31
 474 232 474 232 468 225 c 0,32,33
 435 194 435 194 289 31.5 c 128,-1,34
 143 -131 143 -131 113 -172 c 0,35,36
 60 -244 60 -244 60 -288 c 0,37,38
 60 -310 60 -310 77 -339 c 128,-1,39
 94 -368 94 -368 116 -368 c 0,40,41
 129 -368 129 -368 142.5 -350.5 c 128,-1,42
 156 -333 156 -333 187 -283 c 128,-1,43
 218 -233 218 -233 245.5 -195.5 c 128,-1,44
 273 -158 273 -158 326.5 -92.5 c 128,-1,45
 380 -27 380 -27 440.5 43 c 128,-1,46
 501 113 501 113 572.5 195 c 128,-1,47
 644 277 644 277 697 337 c 128,-1,48
 750 397 750 397 797.5 451 c 128,-1,49
 845 505 845 505 850.5 511 c 128,-1,50
 856 517 856 517 875.5 539 c 128,-1,51
 895 561 895 561 908 576 c 0,52,53
 943 616.384615385 943 616.384615385 943 638 c 0,54,55
 943 673 943 673 913 673 c 0,56,57
 895 673 895 673 880 658 c 0,58,59
 788 561 788 561 646 448.5 c 128,-1,60
 504 336 504 336 415.5 275.5 c 128,-1,61
 327 215 327 215 310 205 c 128,-1,62
 293 195 293 195 287 195 c 128,-1,63
 281 195 281 195 281 204 c 1,64,-1
 282 211 l 1,65,66
 284 214 284 214 379.5 312 c 128,-1,67
 475 410 475 410 535 483 c 1,0,1
945 843 m 0,68,69
 950 830 950 830 950 822 c 0,70,71
 950 798 950 798 918 783 c 128,-1,72
 886 768 886 768 854 765 c 2,73,-1
 822 762 l 1,74,75
 796.597938144 758.371134021 796.597938144 758.371134021 740 728.5 c 2,76,-1
 722 719 l 1,77,78
 713 724 713 724 713 732 c 0,79,80
 713 764 713 764 780 817 c 128,-1,81
 847 870 847 870 890 870 c 128,-1,82
 933 870 933 870 945 843 c 0,68,69
EndSplineSet
EndChar

StartChar: fi
Encoding: 64257 64257 76
Width: 495
Flags: HMW
HStem: -281 107<-177 8.5> -26 195<266.5 358.5> 688 20G<569.5 592>
VStem: 201 48<-20 87.5>
LayerCount: 2
Fore
SplineSet
414 32 m 128,-1,1
 356 -26 356 -26 332 -26 c 128,-1,2
 308 -26 308 -26 293 -11.5 c 128,-1,3
 278 3 278 3 278 25 c 0,4,5
 278 92 278 92 356 177 c 1,6,-1
 241 113 l 1,7,8
 249 93 249 93 249 64 c 0,9,10
 249 5 249 5 200.5 -60 c 128,-1,11
 152 -125 152 -125 85 -172 c 128,-1,12
 18 -219 18 -219 -51 -250 c 128,-1,13
 -120 -281 -120 -281 -161 -281 c 0,14,15
 -184 -281 -184 -281 -197 -263.5 c 128,-1,16
 -210 -246 -210 -246 -210 -220 c 128,-1,17
 -210 -194 -210 -194 -198 -169 c 0,18,19
 -167 -98 -167 -98 137 229 c 0,20,21
 156 249 156 249 321 441.5 c 128,-1,22
 486 634 486 634 494 643.5 c 128,-1,23
 502 653 502 653 515 665.5 c 128,-1,24
 528 678 528 678 549.5 693 c 128,-1,25
 571 708 571 708 584 708 c 0,26,27
 603 708 603 708 603 677 c 0,28,29
 603 620 603 620 564 542 c 0,30,31
 551 517 551 517 410.5 351 c 128,-1,32
 270 185 270 185 267 181.5 c 128,-1,33
 264 178 264 178 264 173.5 c 128,-1,34
 264 169 264 169 268 169 c 0,35,36
 291 169 291 169 336.5 198.5 c 128,-1,37
 382 228 382 228 432.5 257 c 128,-1,38
 483 286 483 286 517 286 c 0,39,40
 562 286 562 286 562 233 c 0,41,42
 562 216 562 216 517 153 c 128,-1,0
 472 90 472 90 414 32 c 128,-1,1
194 94 m 0,43,44
 185 94 185 94 82 -27 c 128,-1,45
 -21 -148 -21 -148 -21 -165 c 0,46,47
 -21 -174 -21 -174 -7 -174 c 128,-1,48
 7 -174 7 -174 39 -152.5 c 128,-1,49
 71 -131 71 -131 107.5 -97 c 128,-1,50
 144 -63 144 -63 172.5 -13.5 c 128,-1,51
 201 36 201 36 201 84 c 0,52,53
 201 94 201 94 194 94 c 0,43,44
580 318 m 1,54,55
 563 318 563 318 553 330 c 128,-1,56
 543 342 543 342 541.5 353.5 c 2,57,-1
 540 365 l 1,58,59
 545 413 545 413 583 438 c 128,-1,60
 621 463 621 463 649 463 c 0,61,62
 690 463 690 463 690 422 c 0,63,64
 690 396 690 396 659 359.5 c 128,-1,65
 628 323 628 323 580 318 c 1,54,55
EndSplineSet
EndChar

StartChar: fl
Encoding: 64258 64258 77
Width: 668
Flags: HMW
HStem: -281 107<-177 8.5> -4 62<429.5 563.5> -4 173<266.5 516> 515 80<894.5 914.5> 688 20G<569.5 592>
VStem: 201 48<-20 87.5> 368 152<67 90 67 106.5> 917 76<490.5 512.5>
LayerCount: 2
Fore
SplineSet
597 213 m 1,0,1
 520 109 520 109 520 71 c 0,2,3
 520 58 520 58 533 58 c 0,4,5
 568 58 568 58 666 114 c 128,-1,6
 764 170 764 170 771 170 c 0,7,8
 785 170 785 170 785 158 c 2,9,-1
 785 156 l 1,10,11
 784 150 784 150 729 112 c 128,-1,12
 674 74 674 74 592 35 c 128,-1,13
 510 -4 510 -4 455 -4 c 0,14,15
 368 -4 368 -4 368 97 c 0,16,17
 368 123 368 123 379 158 c 1,18,19
 313.1875 133.625 313.1875 133.625 262 119 c 2,20,-1
 241 113 l 1,21,22
 249 93 249 93 249 64 c 0,23,24
 249 5 249 5 200.5 -60 c 128,-1,25
 152 -125 152 -125 85 -172 c 128,-1,26
 18 -219 18 -219 -51 -250 c 128,-1,27
 -120 -281 -120 -281 -161 -281 c 0,28,29
 -184 -281 -184 -281 -197 -263.5 c 128,-1,30
 -210 -246 -210 -246 -210 -220 c 128,-1,31
 -210 -194 -210 -194 -198 -169 c 0,32,33
 -167 -98 -167 -98 137 229 c 0,34,35
 156 249 156 249 321 441.5 c 128,-1,36
 486 634 486 634 494 643.5 c 128,-1,37
 502 653 502 653 515 665.5 c 128,-1,38
 528 678 528 678 549.5 693 c 128,-1,39
 571 708 571 708 584 708 c 0,40,41
 603 708 603 708 603 677 c 0,42,43
 603 620 603 620 564 542 c 0,44,45
 551 517 551 517 410.5 351 c 128,-1,46
 270 185 270 185 267 181.5 c 128,-1,47
 264 178 264 178 264 173.5 c 128,-1,48
 264 169 264 169 268 169 c 0,49,50
 288 169 288 169 396 200 c 1,51,52
 439 289 439 289 533 381.5 c 128,-1,53
 627 474 627 474 734 534.5 c 128,-1,54
 841 595 841 595 917 595 c 0,55,56
 957 595 957 595 975 572 c 128,-1,57
 993 549 993 549 993 529 c 0,58,59
 993 489 993 489 943.5 436 c 128,-1,60
 894 383 894 383 827 337.5 c 128,-1,61
 760 292 760 292 695.5 257.5 c 128,-1,62
 631 223 631 223 597 213 c 1,0,1
194 94 m 0,63,64
 185 94 185 94 82 -27 c 128,-1,65
 -21 -148 -21 -148 -21 -165 c 0,66,67
 -21 -174 -21 -174 -7 -174 c 128,-1,68
 7 -174 7 -174 39 -152.5 c 128,-1,69
 71 -131 71 -131 107.5 -97 c 128,-1,70
 144 -63 144 -63 172.5 -13.5 c 128,-1,71
 201 36 201 36 201 84 c 0,72,73
 201 94 201 94 194 94 c 0,63,64
913 515 m 0,74,75
 897 515 897 515 836.5 463 c 128,-1,76
 776 411 776 411 724 358.5 c 2,77,-1
 672 306 l 2,78,79
 664 298 664 298 664 293.5 c 128,-1,80
 664 289 664 289 673 289 c 0,81,82
 713 289 713 289 815 384 c 128,-1,83
 917 479 917 479 917 511 c 0,84,85
 917 515 917 515 913 515 c 0,74,75
EndSplineSet
EndChar

StartChar: acircumflex
Encoding: 226 226 78
Width: 402
Flags: HMW
HStem: -23 111<214 297> -23 225<268.5 405.5> -8 21G<70 120.5> 306 194<497.5 503.5 430.5 525.5>
VStem: 38 168<96.5 112> 237 212
LayerCount: 2
Fore
SplineSet
319 40 m 0,0,1
 319 34.75 319 34.75 326 33 c 1,2,3
 333.258064516 33 333.258064516 33 374.629032258 61.5 c 128,-1,4
 416 90 416 90 421.5 93 c 128,-1,5
 427 96 427 96 432 96 c 0,6,7
 446 96 446 96 446 82.5 c 128,-1,8
 446 69 446 69 375.5 23 c 128,-1,9
 305 -23 305 -23 276 -23 c 0,10,11
 264 -23 264 -23 250.5 -13 c 128,-1,12
 237 -3 237 -3 237 10.5 c 128,-1,13
 237 24 237 24 244 40 c 128,-1,14
 251 56 251 56 251 61.5 c 128,-1,15
 251 67 251 67 248 67 c 128,-1,16
 245 67 245 67 242 65 c 0,17,18
 145 -8 145 -8 99 -8 c 0,19,20
 73 -8 73 -8 58 11 c 128,-1,21
 43 30 43 30 40.5 49 c 2,22,-1
 38 68 l 1,23,24
 38 101 38 101 63.5 144.5 c 128,-1,25
 89 188 89 188 130.5 227.5 c 128,-1,26
 172 267 172 267 232.5 294 c 128,-1,27
 293 321 293 321 356 321 c 0,28,29
 390 321 390 321 419.5 303 c 128,-1,30
 449 285 449 285 449 261 c 128,-1,31
 449 237 449 237 402 232 c 1,32,33
 367 224 367 224 286.5 174.5 c 128,-1,34
 206 125 206 125 206 99 c 0,35,36
 206 88 206 88 217 88 c 0,37,38
 237 88 237 88 311.5 145 c 128,-1,39
 386 202 386 202 401 202 c 128,-1,40
 416 202 416 202 416 184 c 0,41,42
 416 171.071428571 416 171.071428571 406.5 159.535714286 c 128,-1,43
 397 148 397 148 393 143 c 0,44,45
 385 133 385 133 352 98.5 c 128,-1,46
 319 64 319 64 319 40 c 0,0,1
518 306 m 0,47,48
 476 306 476 306 454 409 c 1,49,50
 439 405 439 405 386 394.5 c 128,-1,51
 333 384 333 384 312 373 c 1,52,53
 301 369 301 369 291.5 369 c 128,-1,54
 282 369 282 369 282 378 c 0,55,56
 282 414 282 414 345 457 c 128,-1,57
 408 500 408 500 493 500 c 0,58,59
 508 500 508 500 523.5 449 c 128,-1,60
 539 398 539 398 539 352 c 128,-1,61
 539 306 539 306 518 306 c 0,47,48
EndSplineSet
EndChar

StartChar: circumflex
Encoding: 710 710 79
Width: 402
Flags: HMW
HStem: 306 194<304.5 310.5 237.5 332.5>
LayerCount: 2
Fore
SplineSet
325 306 m 0,0,1
 283 306 283 306 261 409 c 1,2,3
 246 405 246 405 193 394.5 c 128,-1,4
 140 384 140 384 119 373 c 1,5,6
 108 369 108 369 98.5 369 c 0,7,8
 89 369 89 369 89 378 c 0,9,10
 89 414 89 414 152 457 c 128,-1,11
 215 500 215 500 300 500 c 0,12,13
 315 500 315 500 330.5 449 c 128,-1,14
 346 398 346 398 346 352 c 0,15,16
 346 306 346 306 325 306 c 0,0,1
EndSplineSet
EndChar

StartChar: idieresis
Encoding: 239 239 80
Width: 228
Flags: HMW
HStem: -26 21G<48 91.5> 335 145<212 316.5>
LayerCount: 2
Fore
SplineSet
26 -11.5 m 128,-1,1
 41 -26 41 -26 65 -26 c 128,-1,2
 89 -26 89 -26 147 32 c 128,-1,3
 205 90 205 90 250 153 c 128,-1,4
 295 216 295 216 295 233 c 0,5,6
 295 286 295 286 250 286 c 1,7,8
 178 273 178 273 94.5 184 c 128,-1,9
 11 95 11 95 11 25 c 0,10,0
 11 3 11 3 26 -11.5 c 128,-1,1
231 335 m 1,11,12
 214 335 214 335 204 346.5 c 128,-1,13
 194 358 194 358 192.5 370 c 2,14,-1
 191 382 l 1,15,16
 196 430 196 430 234 455 c 128,-1,17
 272 480 272 480 300 480 c 0,18,19
 341 480 341 480 341 439 c 0,20,21
 341 413 341 413 310 376.5 c 128,-1,22
 279 340 279 340 231 335 c 1,11,12
382 327 m 1,23,24
 365 327 365 327 355 338.5 c 128,-1,25
 345 350 345 350 343.5 362 c 2,26,-1
 342 374 l 1,27,28
 347 422 347 422 385 447 c 128,-1,29
 423 472 423 472 451 472 c 0,30,31
 492 472 492 472 492 431 c 0,32,33
 492 405 492 405 461 368.5 c 128,-1,34
 430 332 430 332 382 327 c 1,23,24
EndSplineSet
EndChar

StartChar: dieresis
Encoding: 168 168 81
Width: 228
Flags: HMW
HStem: 327 21G<210 229> 335 145<59 163.5>
LayerCount: 2
Fore
SplineSet
78 335 m 1,0,1
 61 335 61 335 51 346.5 c 128,-1,2
 41 358 41 358 39.5 370 c 2,3,-1
 38 382 l 1,4,5
 43 430 43 430 81 455 c 128,-1,6
 119 480 119 480 147 480 c 0,7,8
 188 480 188 480 188 439 c 0,9,10
 188 413 188 413 157 376.5 c 128,-1,11
 126 340 126 340 78 335 c 1,0,1
229 327 m 1,12,13
 212 327 212 327 202 338.5 c 128,-1,14
 192 350 192 350 190.5 362 c 2,15,-1
 189 374 l 1,16,17
 194 422 194 422 232 447 c 128,-1,18
 270 472 270 472 298 472 c 0,19,20
 339 472 339 472 339 431 c 0,21,22
 339 405 339 405 308 368.5 c 128,-1,23
 277 332 277 332 229 327 c 1,12,13
EndSplineSet
EndChar

StartChar: adieresis
Encoding: 228 228 82
Width: 402
Flags: HMW
HStem: -23 111<214 297> -23 225<268.5 405.5> -8 21G<70 120.5> 355 145<314 418.5>
VStem: 38 168<96.5 112> 237 212
LayerCount: 2
Fore
SplineSet
319 40 m 0,0,1
 319 34.75 319 34.75 326 33 c 1,2,3
 333.258064516 33 333.258064516 33 374.629032258 61.5 c 128,-1,4
 416 90 416 90 421.5 93 c 128,-1,5
 427 96 427 96 432 96 c 0,6,7
 446 96 446 96 446 82.5 c 128,-1,8
 446 69 446 69 375.5 23 c 128,-1,9
 305 -23 305 -23 276 -23 c 0,10,11
 264 -23 264 -23 250.5 -13 c 128,-1,12
 237 -3 237 -3 237 10.5 c 128,-1,13
 237 24 237 24 244 40 c 128,-1,14
 251 56 251 56 251 61.5 c 128,-1,15
 251 67 251 67 248 67 c 128,-1,16
 245 67 245 67 242 65 c 0,17,18
 145 -8 145 -8 99 -8 c 0,19,20
 73 -8 73 -8 58 11 c 128,-1,21
 43 30 43 30 40.5 49 c 2,22,-1
 38 68 l 1,23,24
 38 101 38 101 63.5 144.5 c 128,-1,25
 89 188 89 188 130.5 227.5 c 128,-1,26
 172 267 172 267 232.5 294 c 128,-1,27
 293 321 293 321 356 321 c 0,28,29
 390 321 390 321 419.5 303 c 128,-1,30
 449 285 449 285 449 261 c 128,-1,31
 449 237 449 237 402 232 c 1,32,33
 367 224 367 224 286.5 174.5 c 128,-1,34
 206 125 206 125 206 99 c 0,35,36
 206 88 206 88 217 88 c 0,37,38
 237 88 237 88 311.5 145 c 128,-1,39
 386 202 386 202 401 202 c 128,-1,40
 416 202 416 202 416 184 c 0,41,42
 416 171.071428571 416 171.071428571 406.5 159.535714286 c 128,-1,43
 397 148 397 148 393 143 c 0,44,45
 385 133 385 133 352 98.5 c 128,-1,46
 319 64 319 64 319 40 c 0,0,1
333 355 m 1,47,48
 316 355 316 355 306 366.5 c 128,-1,49
 296 378 296 378 294.5 390 c 2,50,-1
 293 402 l 1,51,52
 298 450 298 450 336 475 c 128,-1,53
 374 500 374 500 402 500 c 0,54,55
 443 500 443 500 443 459 c 0,56,57
 443 433 443 433 412 396.5 c 128,-1,58
 381 360 381 360 333 355 c 1,47,48
484 347 m 1,59,60
 467 347 467 347 457 358.5 c 128,-1,61
 447 370 447 370 445.5 382 c 2,62,-1
 444 394 l 1,63,64
 449 442 449 442 487 467 c 128,-1,65
 525 492 525 492 553 492 c 0,66,67
 594 492 594 492 594 451 c 0,68,69
 594 425 594 425 563 388.5 c 128,-1,70
 532 352 532 352 484 347 c 1,59,60
EndSplineSet
EndChar

StartChar: ecircumflex
Encoding: 234 234 83
Width: 358
Flags: HMW
HStem: -17 64<82.5 225.5> -17 216<82.5 287> 367 194<481.5 487.5 414.5 509.5>
VStem: 41 138<54 68.5 54 80.5> 99 101<204.5 214.5 200 265.5> 155 45<161 214.5> 155 157<161 174>
LayerCount: 2
Fore
SplineSet
229 194 m 1,0,-1
 278 199 l 1,1,2
 312 199 312 199 312 165 c 0,3,4
 312 147 312 147 279 125 c 128,-1,5
 246 103 246 103 212.5 84.5 c 128,-1,6
 179 66 179 66 179 56 c 0,7,8
 179 49 179 49 195 47 c 1,9,10
 230 47 230 47 328 103 c 128,-1,11
 426 159 426 159 433 159 c 0,12,13
 447 159 447 159 447 145 c 1,14,15
 446 135 446 135 383.5 95.5 c 128,-1,16
 321 56 321 56 237.5 19.5 c 128,-1,17
 154 -17 154 -17 110 -17 c 0,18,19
 41 -17 41 -17 41 56 c 0,20,21
 41 77 41 77 69.5 102 c 128,-1,22
 98 127 98 127 126.5 145 c 128,-1,23
 155 163 155 163 155 167.5 c 128,-1,24
 155 172 155 172 141 178 c 0,25,26
 99 196 99 196 99 226 c 0,27,28
 99 282 99 282 192.5 332.5 c 128,-1,29
 286 383 286 383 366 383 c 0,30,31
 410 383 410 383 439 366.5 c 128,-1,32
 468 350 468 350 468 316.5 c 128,-1,33
 468 283 468 283 421.5 254 c 128,-1,34
 375 225 375 225 355 225 c 0,35,36
 347 225 347 225 340.5 229 c 128,-1,37
 334 233 334 233 334 238 c 128,-1,38
 334 243 334 243 361.5 254.5 c 128,-1,39
 389 266 389 266 389 276 c 0,40,41
 389 281 389 281 374.5 281 c 128,-1,42
 360 281 360 281 280 249.5 c 128,-1,43
 200 218 200 218 200 205 c 0,44,45
 200 194 200 194 229 194 c 1,0,-1
502 367 m 0,46,47
 460 367 460 367 438 470 c 1,48,49
 423 466 423 466 370 455.5 c 128,-1,50
 317 445 317 445 296 434 c 1,51,52
 285 430 285 430 275.5 430 c 128,-1,53
 266 430 266 430 266 439 c 0,54,55
 266 475 266 475 329 518 c 128,-1,56
 392 561 392 561 477 561 c 0,57,58
 492 561 492 561 507.5 510 c 128,-1,59
 523 459 523 459 523 413 c 128,-1,60
 523 367 523 367 502 367 c 0,46,47
EndSplineSet
EndChar

StartChar: atilde
Encoding: 227 227 84
Width: 402
Flags: HMW
HStem: -23 111<214 297> -23 225<268.5 405.5> -8 21G<70 120.5> 353 77<496.5 501.5> 353 133<370 501.5>
VStem: 38 168<96.5 112> 237 212
LayerCount: 2
Fore
SplineSet
561 443.5 m 128,-1,1
 568 436 568 436 567.5 430 c 128,-1,2
 567 424 567 424 565 419 c 128,-1,3
 563 414 563 414 554 401 c 128,-1,4
 545 388 545 388 534 378.5 c 0,5,6
 504.473684211 353 504.473684211 353 459 353 c 1,7,8
 433 357 433 357 396 385.5 c 128,-1,9
 359 414 359 414 347.5 415 c 128,-1,10
 336 416 336 416 328.5 409.5 c 128,-1,11
 321 403 321 403 314 403.5 c 128,-1,12
 307 404 307 404 300.5 410 c 128,-1,13
 294 416 294 416 294 424 c 2,14,-1
 294 425 l 1,15,16
 307 451 307 451 334 468.5 c 128,-1,17
 361 486 361 486 386 486 c 128,-1,18
 411 486 411 486 454 458 c 128,-1,19
 497 430 497 430 512.5 430 c 128,-1,20
 528 430 528 430 535 441 c 128,-1,21
 542 452 542 452 548 451.5 c 128,-1,0
 554 451 554 451 561 443.5 c 128,-1,1
319 40 m 0,22,23
 319 34.75 319 34.75 326 33 c 1,24,25
 333.258064516 33 333.258064516 33 374.629032258 61.5 c 128,-1,26
 416 90 416 90 421.5 93 c 128,-1,27
 427 96 427 96 432 96 c 0,28,29
 446 96 446 96 446 82.5 c 128,-1,30
 446 69 446 69 375.5 23 c 128,-1,31
 305 -23 305 -23 276 -23 c 0,32,33
 264 -23 264 -23 250.5 -13 c 128,-1,34
 237 -3 237 -3 237 10.5 c 128,-1,35
 237 24 237 24 244 40 c 128,-1,36
 251 56 251 56 251 61.5 c 128,-1,37
 251 67 251 67 248 67 c 128,-1,38
 245 67 245 67 242 65 c 0,39,40
 145 -8 145 -8 99 -8 c 0,41,42
 73 -8 73 -8 58 11 c 128,-1,43
 43 30 43 30 40.5 49 c 2,44,-1
 38 68 l 1,45,46
 38 101 38 101 63.5 144.5 c 128,-1,47
 89 188 89 188 130.5 227.5 c 128,-1,48
 172 267 172 267 232.5 294 c 128,-1,49
 293 321 293 321 356 321 c 0,50,51
 390 321 390 321 419.5 303 c 128,-1,52
 449 285 449 285 449 261 c 128,-1,53
 449 237 449 237 402 232 c 1,54,55
 367 224 367 224 286.5 174.5 c 128,-1,56
 206 125 206 125 206 99 c 0,57,58
 206 88 206 88 217 88 c 0,59,60
 237 88 237 88 311.5 145 c 128,-1,61
 386 202 386 202 401 202 c 128,-1,62
 416 202 416 202 416 184 c 0,63,64
 416 171.071428571 416 171.071428571 406.5 159.535714286 c 128,-1,65
 397 148 397 148 393 143 c 0,66,67
 385 133 385 133 352 98.5 c 128,-1,68
 319 64 319 64 319 40 c 0,22,23
EndSplineSet
EndChar

StartChar: tilde
Encoding: 732 732 85
Width: 402
Flags: HMW
HStem: 353 77<264.5 269.5> 353 133<138 269.5>
LayerCount: 2
Fore
SplineSet
329 443.5 m 128,-1,1
 336 436 336 436 335.5 430 c 128,-1,2
 335 424 335 424 333 419 c 128,-1,3
 331 414 331 414 322 401 c 128,-1,4
 313 388 313 388 302 378.5 c 0,5,6
 272.473684211 353 272.473684211 353 227 353 c 1,7,8
 201 357 201 357 164 385.5 c 128,-1,9
 127 414 127 414 115.5 415 c 128,-1,10
 104 416 104 416 96.5 409.5 c 128,-1,11
 89 403 89 403 82 403.5 c 128,-1,12
 75 404 75 404 68.5 410 c 128,-1,13
 62 416 62 416 62 424 c 2,14,-1
 62 425 l 1,15,16
 75 451 75 451 102 468.5 c 128,-1,17
 129 486 129 486 154 486 c 128,-1,18
 179 486 179 486 222 458 c 128,-1,19
 265 430 265 430 280.5 430 c 128,-1,20
 296 430 296 430 303 441 c 128,-1,21
 310 452 310 452 316 451.5 c 128,-1,0
 322 451 322 451 329 443.5 c 128,-1,1
EndSplineSet
EndChar

StartChar: otilde
Encoding: 245 245 86
Width: 334
Flags: HMW
HStem: -22 68<92 187> 179 31<361 382> 356 77<420.5 425.5> 356 133<294 425.5>
VStem: 33 130<60 96 60 152.5> 303 182<179.5 228>
LayerCount: 2
Fore
SplineSet
338 237 m 0,0,1
 338 210 338 210 370 210 c 0,2,3
 400 210 400 210 436 225 c 128,-1,4
 472 240 472 240 475 240 c 128,-1,5
 478 240 478 240 481.5 235 c 128,-1,6
 485 230 485 230 485 225 c 0,7,8
 485 214 485 214 438.5 196.5 c 128,-1,9
 392 179 392 179 371 179 c 128,-1,10
 350 179 350 179 341.5 179.5 c 128,-1,11
 333 180 333 180 328 169 c 0,12,13
 253.566666667 30.2833333333 253.566666667 30.2833333333 181 -6 c 0,14,15
 149 -22 149 -22 113.5 -22 c 128,-1,16
 78 -22 78 -22 55.5 1.5 c 128,-1,17
 33 25 33 25 33 76 c 0,18,19
 33 147 33 147 79.5 208.5 c 128,-1,20
 126 270 126 270 185 301 c 128,-1,21
 244 332 244 332 292 332 c 1,22,23
 373 323 373 323 373 283 c 0,24,25
 373 272 373 272 367.5 263.5 c 128,-1,26
 362 255 362 255 358.5 253.5 c 128,-1,27
 355 252 355 252 350.5 251 c 0,28,29
 338 248.222222222 338 248.222222222 338 237 c 0,0,1
193.5 130 m 128,-1,31
 163 93 163 93 163 69.5 c 128,-1,32
 163 46 163 46 176 46 c 0,33,34
 196 46 196 46 249.5 107.5 c 128,-1,35
 303 169 303 169 303 209 c 0,36,37
 303 215 303 215 295.5 215 c 128,-1,38
 288 215 288 215 256 191 c 128,-1,30
 224 167 224 167 193.5 130 c 128,-1,31
485 446.5 m 128,-1,40
 492 439 492 439 491.5 433 c 128,-1,41
 491 427 491 427 489 422 c 128,-1,42
 487 417 487 417 478 404 c 128,-1,43
 469 391 469 391 458 381.5 c 0,44,45
 428.473684211 356 428.473684211 356 383 356 c 1,46,47
 357 360 357 360 320 388.5 c 128,-1,48
 283 417 283 417 271.5 418 c 128,-1,49
 260 419 260 419 252.5 412.5 c 128,-1,50
 245 406 245 406 238 406.5 c 128,-1,51
 231 407 231 407 224.5 413 c 128,-1,52
 218 419 218 419 218 427 c 2,53,-1
 218 428 l 1,54,55
 231 454 231 454 258 471.5 c 128,-1,56
 285 489 285 489 310 489 c 128,-1,57
 335 489 335 489 378 461 c 128,-1,58
 421 433 421 433 436.5 433 c 128,-1,59
 452 433 452 433 459 444 c 128,-1,60
 466 455 466 455 472 454.5 c 128,-1,39
 478 454 478 454 485 446.5 c 128,-1,40
EndSplineSet
EndChar

StartChar: odieresis
Encoding: 246 246 87
Width: 334
Flags: HMW
HStem: -22 68<92 187> 179 31<361 382> 377 145<227 331.5>
VStem: 33 130<60 96 60 152.5>
LayerCount: 2
Fore
SplineSet
338 237 m 0,0,1
 338 210 338 210 370 210 c 0,2,3
 400 210 400 210 436 225 c 128,-1,4
 472 240 472 240 475 240 c 128,-1,5
 478 240 478 240 481.5 235 c 128,-1,6
 485 230 485 230 485 225 c 0,7,8
 485 214 485 214 438.5 196.5 c 128,-1,9
 392 179 392 179 371 179 c 128,-1,10
 350 179 350 179 341.5 179.5 c 128,-1,11
 333 180 333 180 328 169 c 0,12,13
 253.566666667 30.2833333333 253.566666667 30.2833333333 181 -6 c 0,14,15
 149 -22 149 -22 113.5 -22 c 128,-1,16
 78 -22 78 -22 55.5 1.5 c 128,-1,17
 33 25 33 25 33 76 c 0,18,19
 33 147 33 147 79.5 208.5 c 128,-1,20
 126 270 126 270 185 301 c 128,-1,21
 244 332 244 332 292 332 c 1,22,23
 373 323 373 323 373 283 c 0,24,25
 373 272 373 272 367.5 263.5 c 128,-1,26
 362 255 362 255 358.5 253.5 c 128,-1,27
 355 252 355 252 350.5 251 c 0,28,29
 338 248.222222222 338 248.222222222 338 237 c 0,0,1
193.5 130 m 128,-1,31
 163 93 163 93 163 69.5 c 128,-1,32
 163 46 163 46 176 46 c 0,33,34
 196 46 196 46 249.5 107.5 c 128,-1,35
 303 169 303 169 303 209 c 0,36,37
 303 215 303 215 295.5 215 c 128,-1,38
 288 215 288 215 256 191 c 128,-1,30
 224 167 224 167 193.5 130 c 128,-1,31
246 377 m 1,39,40
 229 377 229 377 219 388.5 c 128,-1,41
 209 400 209 400 207.5 412 c 2,42,-1
 206 424 l 1,43,44
 211 472 211 472 249 497 c 128,-1,45
 287 522 287 522 315 522 c 0,46,47
 356 522 356 522 356 481 c 0,48,49
 356 455 356 455 325 418.5 c 128,-1,50
 294 382 294 382 246 377 c 1,39,40
397 369 m 1,51,52
 380 369 380 369 370 380.5 c 128,-1,53
 360 392 360 392 358.5 404 c 2,54,-1
 357 416 l 1,55,56
 362 464 362 464 400 489 c 128,-1,57
 438 514 438 514 466 514 c 0,58,59
 507 514 507 514 507 473 c 0,60,61
 507 447 507 447 476 410.5 c 128,-1,62
 445 374 445 374 397 369 c 1,51,52
EndSplineSet
EndChar

StartChar: ocircumflex
Encoding: 244 244 88
Width: 334
Flags: HMW
HStem: -22 68<92 187> 179 31<361 382> 324 194<396.5 402.5 329.5 424.5>
VStem: 33 130<60 96 60 152.5>
LayerCount: 2
Fore
SplineSet
338 237 m 0,0,1
 338 210 338 210 370 210 c 0,2,3
 400 210 400 210 436 225 c 128,-1,4
 472 240 472 240 475 240 c 128,-1,5
 478 240 478 240 481.5 235 c 128,-1,6
 485 230 485 230 485 225 c 0,7,8
 485 214 485 214 438.5 196.5 c 128,-1,9
 392 179 392 179 371 179 c 128,-1,10
 350 179 350 179 341.5 179.5 c 128,-1,11
 333 180 333 180 328 169 c 0,12,13
 253.566666667 30.2833333333 253.566666667 30.2833333333 181 -6 c 0,14,15
 149 -22 149 -22 113.5 -22 c 128,-1,16
 78 -22 78 -22 55.5 1.5 c 128,-1,17
 33 25 33 25 33 76 c 0,18,19
 33 147 33 147 79.5 208.5 c 128,-1,20
 126 270 126 270 185 301 c 128,-1,21
 244 332 244 332 292 332 c 1,22,23
 373 323 373 323 373 283 c 0,24,25
 373 272 373 272 367.5 263.5 c 128,-1,26
 362 255 362 255 358.5 253.5 c 128,-1,27
 355 252 355 252 350.5 251 c 0,28,29
 338 248.222222222 338 248.222222222 338 237 c 0,0,1
193.5 130 m 128,-1,31
 163 93 163 93 163 69.5 c 128,-1,32
 163 46 163 46 176 46 c 0,33,34
 196 46 196 46 249.5 107.5 c 128,-1,35
 303 169 303 169 303 209 c 0,36,37
 303 215 303 215 295.5 215 c 128,-1,38
 288 215 288 215 256 191 c 128,-1,30
 224 167 224 167 193.5 130 c 128,-1,31
417 324 m 0,39,40
 375 324 375 324 353 427 c 1,41,42
 338 423 338 423 285 412.5 c 128,-1,43
 232 402 232 402 211 391 c 1,44,45
 200 387 200 387 190.5 387 c 128,-1,46
 181 387 181 387 181 396 c 0,47,48
 181 432 181 432 244 475 c 128,-1,49
 307 518 307 518 392 518 c 0,50,51
 407 518 407 518 422.5 467 c 128,-1,52
 438 416 438 416 438 370 c 128,-1,53
 438 324 438 324 417 324 c 0,39,40
EndSplineSet
EndChar

StartChar: ccedilla
Encoding: 231 231 89
Width: 359
Flags: HMW
HStem: -127 179<90.5 231.5> -17 69<119 231.5> 141 182<311 335.5> 228 95<334 359.5>
VStem: 36 159<63.5 88.5 63.5 120>
LayerCount: 2
Fore
SplineSet
458 158 m 1,0,1
 457 148 457 148 393 105.5 c 128,-1,2
 329 63 329 63 245 23 c 128,-1,3
 161 -17 161 -17 119 -17 c 1,4,5
 119 -27 119 -27 140 -40.5 c 0,6,7
 161 -54 161 -54 161 -77 c 0,8,9
 161 -100 161 -100 146.5 -113.5 c 128,-1,10
 132 -127 132 -127 96 -127 c 0,11,12
 60 -127 60 -127 31 -110 c 1,13,14
 22 -106 22 -106 14.5 -88 c 128,-1,15
 7 -70 7 -70 7 -58 c 0,16,17
 7 -42 7 -42 22 -42 c 0,18,19
 33 -42 33 -42 54 -51 c 0,20,21
 75 -60 75 -60 92.5 -60 c 0,22,23
 110 -60 110 -60 110 -55.5 c 0,24,25
 110 -51 110 -51 92.5 -35 c 128,-1,26
 75 -19 75 -19 75 -7 c 2,27,-1
 75 -4 l 1,28,29
 36 18 36 18 36 57 c 0,30,31
 36 117 36 117 89.5 180.5 c 128,-1,32
 143 244 143 244 213.5 283.5 c 128,-1,33
 284 323 284 323 333.5 323 c 0,34,35
 383 323 383 323 408 310.5 c 128,-1,36
 433 298 433 298 433 264 c 0,37,38
 433 230 433 230 389.5 185.5 c 128,-1,39
 346 141 346 141 315 141 c 0,40,41
 295 141 295 141 295 153 c 0,42,43
 295 161 295 161 305 167 c 0,44,45
 316 173 316 173 340 195 c 128,-1,46
 364 217 364 217 364 225 c 0,47,48
 364 228 364 228 358 228 c 0,49,50
 323 228 323 228 259 164 c 128,-1,51
 195 100 195 100 195 68 c 0,52,53
 195 52 195 52 212.5 52 c 0,54,55
 230 52 230 52 269 72.5 c 128,-1,56
 308 93 308 93 365 128 c 128,-1,57
 422 163 422 163 430.5 167.5 c 0,58,59
 439 172 439 172 444 172 c 0,60,61
 458 172 458 172 458 158 c 1,0,1
EndSplineSet
EndChar

StartChar: cedilla
Encoding: 184 184 90
Width: 330
Flags: HMW
HStem: -127 21G<148.5 182.5> -10 20G<138 138>
VStem: 133 86<-92.5 -4>
LayerCount: 2
Fore
SplineSet
179 -3 m 1,0,-1
 177 -15 l 1,1,2
 177 -27 177 -27 198 -40.5 c 128,-1,3
 219 -54 219 -54 219 -77 c 128,-1,4
 219 -100 219 -100 204.5 -113.5 c 128,-1,5
 190 -127 190 -127 154 -127 c 128,-1,6
 118 -127 118 -127 89 -110 c 1,7,8
 80 -106 80 -106 72.5 -88 c 128,-1,9
 65 -70 65 -70 65 -58 c 0,10,11
 65 -42 65 -42 80 -42 c 0,12,13
 91 -42 91 -42 112 -51 c 128,-1,14
 133 -60 133 -60 150.5 -60 c 128,-1,15
 168 -60 168 -60 168 -55.5 c 128,-1,16
 168 -51 168 -51 150.5 -35 c 128,-1,17
 133 -19 133 -19 133 -9.5 c 128,-1,18
 133 0 133 0 138 10 c 1,19,-1
 179 -3 l 1,0,-1
EndSplineSet
EndChar

StartChar: Ccedilla
Encoding: 199 199 91
Width: 492
Flags: HMW
HStem: -131 199<135.5 301> -9 227 547 140<653.5 704 535.5 705>
VStem: 47 173 47 206<139 166 79.5 360.5>
LayerCount: 2
Fore
SplineSet
514 218 m 0,0,1
 538 218 538 218 538 195 c 0,2,3
 538 181 538 181 505.5 148 c 128,-1,4
 473 115 473 115 426 79.5 c 128,-1,5
 379 44 379 44 315 17.5 c 128,-1,6
 251 -9 251 -9 198 -9 c 0,7,8
 192 -9 192 -9 172 -7 c 1,9,10
 175 -13 175 -13 195 -27 c 1,11,12
 220 -43 220 -43 220 -70.5 c 128,-1,13
 220 -98 220 -98 203 -114.5 c 128,-1,14
 186 -131 186 -131 142.5 -131 c 128,-1,15
 99 -131 99 -131 64 -110 c 0,16,17
 54 -105 54 -105 45 -83.5 c 128,-1,18
 36 -62 36 -62 36 -48 c 0,19,20
 36 -29 36 -29 54 -29 c 0,21,22
 68 -29 68 -29 95.5 -39.5 c 128,-1,23
 123 -50 123 -50 141 -50 c 128,-1,24
 159 -50 159 -50 159 -44.5 c 128,-1,25
 159 -39 159 -39 138.5 -20 c 128,-1,26
 118 -1 118 -1 117 12 c 1,27,28
 47 54 47 54 47 186 c 0,29,30
 47 286 47 286 89 371.5 c 128,-1,31
 131 457 131 457 196 513.5 c 128,-1,32
 261 570 261 570 341.5 610.5 c 0,33,34
 493.555555556 687 493.555555556 687 639 687 c 0,35,36
 813 687 813 687 813 596 c 0,37,38
 813 539 813 539 753 474 c 128,-1,39
 693 409 693 409 655 409 c 0,40,41
 629 409 629 409 629 424 c 0,42,43
 629 442 629 442 643 458 c 1,44,45
 692 507 692 507 702.5 521 c 128,-1,46
 713 535 713 535 713 541 c 128,-1,47
 713 547 713 547 702 547 c 0,48,49
 666 547 666 547 591 497 c 128,-1,50
 516 447 516 447 441 377 c 128,-1,51
 366 307 366 307 309.5 225 c 128,-1,52
 253 143 253 143 253 87 c 0,53,54
 253 68 253 68 274 68 c 0,55,56
 305 68 305 68 405.5 143 c 128,-1,57
 506 218 506 218 514 218 c 0,0,1
EndSplineSet
EndChar

StartChar: Adieresis
Encoding: 196 196 92
Width: 560
Flags: HMW
HStem: -11 21G<389.5 423.5> 0 108<86 262.5> 474 216<635.5 651.5> 563 127<614 667 497 670.5> 730 145<563 667.5>
VStem: -1 231<118 182.5 118 293.5> 346 240<26 116.5> 621 141<482.5 640.5>
LayerCount: 2
Fore
SplineSet
725.5 671 m 128,-1,1
 762 652 762 652 762 612 c 128,-1,2
 762 572 762 572 712.5 523 c 128,-1,3
 663 474 663 474 642 474 c 128,-1,4
 621 474 621 474 621 487 c 0,5,6
 621 503 621 503 647.5 528.5 c 128,-1,7
 674 554 674 554 674 560 c 0,8,9
 674 563 674 563 669 563 c 0,10,11
 616 563 616 563 509.5 478 c 128,-1,12
 403 393 403 393 316.5 286.5 c 128,-1,13
 230 180 230 180 230 125 c 0,14,15
 230 108 230 108 242 108 c 0,16,17
 270 108 270 108 390 218 c 128,-1,18
 510 328 510 328 616 439 c 1,19,20
 626 441 626 441 633 441 c 128,-1,21
 640 441 640 441 649 435.5 c 128,-1,22
 658 430 658 430 662 424 c 128,-1,23
 666 418 666 418 665 409.5 c 128,-1,24
 664 401 664 401 652 373 c 128,-1,25
 640 345 640 345 624.5 315.5 c 128,-1,26
 609 286 609 286 586.5 248 c 128,-1,27
 564 210 564 210 548.5 185.5 c 128,-1,28
 533 161 533 161 514.5 131.5 c 0,29,30
 494 98.8108108108 494 98.8108108108 494 93.4054054054 c 128,-1,31
 494 88 494 88 497.5 88 c 128,-1,32
 501 88 501 88 503 89 c 128,-1,33
 505 90 505 90 514 96.5 c 128,-1,34
 523 103 523 103 535 111 c 128,-1,35
 547 119 547 119 553 124 c 128,-1,36
 559 129 559 129 566.5 129 c 128,-1,37
 574 129 574 129 580 124 c 128,-1,38
 586 119 586 119 586 112 c 0,39,40
 586 80 586 80 512 34.5 c 128,-1,41
 438 -11 438 -11 409.5 -11 c 128,-1,42
 381 -11 381 -11 363.5 4 c 128,-1,43
 346 19 346 19 346 40.5 c 128,-1,44
 346 62 346 62 358 93.5 c 2,45,-1
 370 125 l 1,46,47
 370 128 370 128 368 128 c 128,-1,48
 366 128 366 128 361 125 c 0,49,50
 204 0 204 0 127 0 c 0,51,52
 68 0 68 0 33.5 46 c 128,-1,53
 -1 92 -1 92 -1 164 c 128,-1,54
 -1 236 -1 236 39 317 c 128,-1,55
 79 398 79 398 145.5 463.5 c 128,-1,56
 212 529 212 529 293 581 c 128,-1,57
 374 633 374 633 462 661.5 c 128,-1,58
 550 690 550 690 619.5 690 c 128,-1,0
 689 690 689 690 725.5 671 c 128,-1,1
582 730 m 1,59,60
 565 730 565 730 555 742 c 128,-1,61
 545 754 545 754 543.5 765.5 c 2,62,-1
 542 777 l 1,63,64
 547 825 547 825 585 850 c 128,-1,65
 623 875 623 875 651 875 c 0,66,67
 692 875 692 875 692 834 c 0,68,69
 692 808 692 808 661 771.5 c 128,-1,70
 630 735 630 735 582 730 c 1,59,60
733 722 m 1,71,72
 716 722 716 722 706 734 c 128,-1,73
 696 746 696 746 694.5 757.5 c 2,74,-1
 693 769 l 1,75,76
 698 817 698 817 736 842 c 128,-1,77
 774 867 774 867 802 867 c 0,78,79
 843 867 843 867 843 826 c 0,80,81
 843 800 843 800 812 763.5 c 128,-1,82
 781 727 781 727 733 722 c 1,71,72
EndSplineSet
EndChar

StartChar: aring
Encoding: 229 229 93
Width: 402
Flags: HMW
HStem: -23 111<214 297> -23 225<268.5 405.5> -8 21G<70 120.5> 360 136<402.5 519.5> 453 43<468 482>
VStem: 38 168<96.5 112> 237 212 365 177<386.5 457> 489 53<429 445>
LayerCount: 2
Fore
SplineSet
498 496 m 0,0,1
 517 496 517 496 528 486 c 128,-1,2
 539 476 539 476 540.5 466.5 c 2,3,-1
 542 457 l 1,4,5
 542 411 542 411 500 385.5 c 128,-1,6
 458 360 458 360 423 360 c 0,7,8
 365 360 365 360 365 397 c 0,9,10
 365 429 365 429 406 462.5 c 128,-1,11
 447 496 447 496 498 496 c 0,0,1
448 403 m 1,12,13
 489 416 489 416 489 442 c 0,14,15
 489 453 489 453 476 453 c 128,-1,16
 463 453 463 453 448.5 439 c 128,-1,17
 434 425 434 425 434 413 c 0,18,19
 434 403 434 403 448 403 c 1,12,13
319 40 m 0,20,21
 319 34.75 319 34.75 326 33 c 1,22,23
 333.258064516 33 333.258064516 33 374.629032258 61.5 c 128,-1,24
 416 90 416 90 421.5 93 c 128,-1,25
 427 96 427 96 432 96 c 0,26,27
 446 96 446 96 446 82.5 c 128,-1,28
 446 69 446 69 375.5 23 c 128,-1,29
 305 -23 305 -23 276 -23 c 0,30,31
 264 -23 264 -23 250.5 -13 c 128,-1,32
 237 -3 237 -3 237 10.5 c 128,-1,33
 237 24 237 24 244 40 c 128,-1,34
 251 56 251 56 251 61.5 c 128,-1,35
 251 67 251 67 248 67 c 128,-1,36
 245 67 245 67 242 65 c 0,37,38
 145 -8 145 -8 99 -8 c 0,39,40
 73 -8 73 -8 58 11 c 128,-1,41
 43 30 43 30 40.5 49 c 2,42,-1
 38 68 l 1,43,44
 38 101 38 101 63.5 144.5 c 128,-1,45
 89 188 89 188 130.5 227.5 c 128,-1,46
 172 267 172 267 232.5 294 c 128,-1,47
 293 321 293 321 356 321 c 0,48,49
 390 321 390 321 419.5 303 c 128,-1,50
 449 285 449 285 449 261 c 128,-1,51
 449 237 449 237 402 232 c 1,52,53
 367 224 367 224 286.5 174.5 c 128,-1,54
 206 125 206 125 206 99 c 0,55,56
 206 88 206 88 217 88 c 0,57,58
 237 88 237 88 311.5 145 c 128,-1,59
 386 202 386 202 401 202 c 128,-1,60
 416 202 416 202 416 184 c 0,61,62
 416 171.071428571 416 171.071428571 406.5 159.535714286 c 128,-1,63
 397 148 397 148 393 143 c 0,64,65
 385 133 385 133 352 98.5 c 128,-1,66
 319 64 319 64 319 40 c 0,20,21
EndSplineSet
EndChar

StartChar: ring
Encoding: 730 730 94
Width: 402
Flags: HMW
HStem: 360 136<170.5 287.5> 453 43<236 250>
VStem: 133 177<386.5 457> 257 53<429 445>
LayerCount: 2
Fore
SplineSet
266 496 m 0,0,1
 285 496 285 496 296 486 c 128,-1,2
 307 476 307 476 308.5 466.5 c 2,3,-1
 310 457 l 1,4,5
 310 411 310 411 268 385.5 c 128,-1,6
 226 360 226 360 191 360 c 0,7,8
 133 360 133 360 133 397 c 0,9,10
 133 429 133 429 174 462.5 c 128,-1,11
 215 496 215 496 266 496 c 0,0,1
216 403 m 1,12,13
 257 416 257 416 257 442 c 0,14,15
 257 453 257 453 244 453 c 0,16,17
 231 453 231 453 216.5 439 c 128,-1,18
 202 425 202 425 202 413 c 0,19,20
 202 403 202 403 216 403 c 1,12,13
EndSplineSet
EndChar

StartChar: Aring
Encoding: 197 197 95
Width: 560
Flags: HMW
HStem: -11 21G<389.5 423.5> 0 108<86 262.5> 474 216<635.5 651.5> 563 127<614 667 497 670.5> 719 136<722.5 839.5> 812 43<788 802>
VStem: -1 231<118 182.5 118 293.5> 346 240<26 116.5> 621 141<482.5 640.5> 685 77 809 53<788 804>
LayerCount: 2
Fore
SplineSet
725.5 671 m 128,-1,1
 762 652 762 652 762 612 c 128,-1,2
 762 572 762 572 712.5 523 c 128,-1,3
 663 474 663 474 642 474 c 128,-1,4
 621 474 621 474 621 487 c 0,5,6
 621 503 621 503 647.5 528.5 c 128,-1,7
 674 554 674 554 674 560 c 0,8,9
 674 563 674 563 669 563 c 0,10,11
 616 563 616 563 509.5 478 c 128,-1,12
 403 393 403 393 316.5 286.5 c 128,-1,13
 230 180 230 180 230 125 c 0,14,15
 230 108 230 108 242 108 c 0,16,17
 270 108 270 108 390 218 c 128,-1,18
 510 328 510 328 616 439 c 1,19,20
 626 441 626 441 633 441 c 128,-1,21
 640 441 640 441 649 435.5 c 128,-1,22
 658 430 658 430 662 424 c 128,-1,23
 666 418 666 418 665 409.5 c 128,-1,24
 664 401 664 401 652 373 c 128,-1,25
 640 345 640 345 624.5 315.5 c 128,-1,26
 609 286 609 286 586.5 248 c 128,-1,27
 564 210 564 210 548.5 185.5 c 128,-1,28
 533 161 533 161 514.5 131.5 c 0,29,30
 494 98.8108108108 494 98.8108108108 494 93.4054054054 c 128,-1,31
 494 88 494 88 497.5 88 c 128,-1,32
 501 88 501 88 503 89 c 128,-1,33
 505 90 505 90 514 96.5 c 128,-1,34
 523 103 523 103 535 111 c 128,-1,35
 547 119 547 119 553 124 c 128,-1,36
 559 129 559 129 566.5 129 c 128,-1,37
 574 129 574 129 580 124 c 128,-1,38
 586 119 586 119 586 112 c 0,39,40
 586 80 586 80 512 34.5 c 128,-1,41
 438 -11 438 -11 409.5 -11 c 128,-1,42
 381 -11 381 -11 363.5 4 c 128,-1,43
 346 19 346 19 346 40.5 c 128,-1,44
 346 62 346 62 358 93.5 c 2,45,-1
 370 125 l 1,46,47
 370 128 370 128 368 128 c 128,-1,48
 366 128 366 128 361 125 c 0,49,50
 204 0 204 0 127 0 c 0,51,52
 68 0 68 0 33.5 46 c 128,-1,53
 -1 92 -1 92 -1 164 c 128,-1,54
 -1 236 -1 236 39 317 c 128,-1,55
 79 398 79 398 145.5 463.5 c 128,-1,56
 212 529 212 529 293 581 c 128,-1,57
 374 633 374 633 462 661.5 c 128,-1,58
 550 690 550 690 619.5 690 c 128,-1,0
 689 690 689 690 725.5 671 c 128,-1,1
818 855 m 0,59,60
 837 855 837 855 848 845.5 c 128,-1,61
 859 836 859 836 860.5 826 c 2,62,-1
 862 816 l 1,63,64
 862 770 862 770 820 744.5 c 128,-1,65
 778 719 778 719 743 719 c 0,66,67
 685 719 685 719 685 756 c 0,68,69
 685 788 685 788 726 821.5 c 128,-1,70
 767 855 767 855 818 855 c 0,59,60
768 762 m 1,71,72
 809 775 809 775 809 801 c 0,73,74
 809 812 809 812 796 812 c 128,-1,75
 783 812 783 812 768.5 798 c 128,-1,76
 754 784 754 784 754 772 c 0,77,78
 754 762 754 762 768 762 c 1,71,72
EndSplineSet
EndChar

StartChar: caron
Encoding: 711 711 96
Width: 402
Flags: HMW
HStem: 283 21G 457 20G<304.5 324.5>
LayerCount: 2
Fore
SplineSet
71 438 m 0,0,1
 71 447 71 447 77.5 453.5 c 128,-1,2
 84 460 84 460 97 460 c 128,-1,3
 110 460 110 460 127.5 444.5 c 128,-1,4
 145 429 145 429 154 417 c 128,-1,5
 163 405 163 405 177 383 c 1,6,7
 199 383 199 383 252.5 430 c 128,-1,8
 306 477 306 477 320 477 c 0,9,10
 330 477 330 477 330 457 c 0,11,12
 330 417 330 417 286.5 363.5 c 128,-1,13
 243 310 243 310 168 283 c 1,14,15
 148 285 148 285 109.5 343 c 128,-1,16
 71 401 71 401 71 438 c 0,0,1
EndSplineSet
EndChar

StartChar: scaron
Encoding: 353 353 97
Width: 321
Flags: HMW
HStem: -14 195<103 247> 147 202<183 346> 252 97<333.5 346 268 356> 546 20G<493.5 513.5>
VStem: 95 85<195 200.5 186 259.5> 95 224<63.5 259.5>
LayerCount: 2
Fore
SplineSet
206 147 m 0,0,1
 164 147 164 147 129.5 166 c 128,-1,2
 95 185 95 185 95 224 c 0,3,4
 95 275 95 275 167 312 c 128,-1,5
 239 349 239 349 316 349 c 0,6,7
 364 349 364 349 394 331.5 c 128,-1,8
 424 314 424 314 423.5 279.5 c 128,-1,9
 423 245 423 245 371.5 217.5 c 128,-1,10
 320 190 320 190 303 190 c 128,-1,11
 286 190 286 190 286 197 c 128,-1,12
 286 204 286 204 292.5 207.5 c 128,-1,13
 299 211 299 211 321 221 c 128,-1,14
 343 231 343 231 353 237.5 c 128,-1,15
 363 244 363 244 363 248 c 128,-1,16
 363 252 363 252 354 252 c 0,17,18
 321 252 321 252 250.5 228.5 c 128,-1,19
 180 205 180 205 180 190 c 0,20,21
 180 181 180 181 220 181 c 0,22,23
 319 181 319 181 319 102 c 0,24,25
 319 67 319 67 277 38.5 c 128,-1,26
 235 10 235 10 191 -2 c 128,-1,27
 147 -14 147 -14 120.5 -14 c 128,-1,28
 94 -14 94 -14 62 10 c 128,-1,29
 30 34 30 34 30 58 c 128,-1,30
 30 82 30 82 93 93 c 0,31,32
 121 97 121 97 167 111.5 c 128,-1,33
 213 126 213 126 213 139 c 0,34,35
 213 147 213 147 206 147 c 0,0,1
260 527 m 0,36,37
 260 536 260 536 266.5 542.5 c 128,-1,38
 273 549 273 549 286 549 c 128,-1,39
 299 549 299 549 316.5 533.5 c 128,-1,40
 334 518 334 518 343 506 c 128,-1,41
 352 494 352 494 366 472 c 1,42,43
 388 472 388 472 441.5 519 c 128,-1,44
 495 566 495 566 509 566 c 0,45,46
 519 566 519 566 519 546 c 0,47,48
 519 506 519 506 475.5 452.5 c 128,-1,49
 432 399 432 399 357 372 c 1,50,51
 337 374 337 374 298.5 432 c 128,-1,52
 260 490 260 490 260 527 c 0,36,37
EndSplineSet
EndChar

StartChar: zcaron
Encoding: 382 382 98
Width: 329
Flags: HMW
HStem: -23 21G<75.5 102> 29 100 200 109<154 212.5> 535 20G<424.5 444.5>
LayerCount: 2
Fore
SplineSet
364 328 m 128,-1,1
 346 338 346 338 326.5 338 c 128,-1,2
 307 338 307 338 259 323.5 c 128,-1,3
 211 309 211 309 202 309 c 128,-1,4
 193 309 193 309 193 314.5 c 128,-1,5
 193 320 193 320 242 349 c 1,6,7
 255 358 255 358 255 365 c 0,8,9
 255 378 255 378 243 378 c 0,10,11
 210 378 210 378 156.5 333.5 c 128,-1,12
 103 289 103 289 103 260.5 c 128,-1,13
 103 232 103 232 123.5 216 c 128,-1,14
 144 200 144 200 165 200 c 128,-1,15
 186 200 186 200 213 208 c 128,-1,16
 240 216 240 216 242.5 216 c 128,-1,17
 245 216 245 216 245 210 c 128,-1,18
 245 204 245 204 218.5 185 c 128,-1,19
 192 166 192 166 165 151.5 c 128,-1,20
 138 137 138 137 79 93.5 c 128,-1,21
 20 50 20 50 20 27 c 0,22,23
 20 13 20 13 45 -5 c 128,-1,24
 70 -23 70 -23 85 -23 c 128,-1,25
 100 -23 100 -23 185 1.5 c 128,-1,26
 270 26 270 26 300.5 28 c 0,27,28
 354 31.5081967213 354 31.5081967213 354 64 c 0,29,30
 354 91 354 91 323 110 c 128,-1,31
 292 129 292 129 264 129 c 0,32,33
 258 129 258 129 212 122 c 1,34,35
 204 122 204 122 204 127 c 128,-1,36
 204 132 204 132 207 135.5 c 128,-1,37
 210 139 210 139 239 161.5 c 0,38,39
 327.270072993 229.98540146 327.270072993 229.98540146 354.635036496 255.99270073 c 128,-1,40
 382 282 382 282 382 300 c 128,-1,0
 382 318 382 318 364 328 c 128,-1,1
191 516 m 0,41,42
 191 525 191 525 197.5 531.5 c 128,-1,43
 204 538 204 538 214 538 c 0,44,45
 248 538 248 538 297 461 c 1,46,47
 319 461 319 461 372.5 508 c 128,-1,48
 426 555 426 555 440 555 c 0,49,50
 450 555 450 555 450 535 c 0,51,52
 450 495 450 495 406.5 441.5 c 128,-1,53
 363 388 363 388 288 361 c 1,54,55
 268 363 268 363 229.5 421 c 128,-1,56
 191 479 191 479 191 516 c 0,41,42
EndSplineSet
EndChar

StartChar: Ntilde
Encoding: 209 209 99
Width: 545
Flags: HMW
HStem: -12 21G<292 355.5> 790 77<968.5 973.5> 790 133<842 973.5>
LayerCount: 2
Fore
SplineSet
570 324 m 0,0,1
 567 324 567 324 567 329.5 c 128,-1,2
 567 335 567 335 595.5 396.5 c 0,3,4
 682 583.157894737 682 583.157894737 682 641 c 0,5,6
 682 670 682 670 664 710 c 128,-1,7
 646 750 646 750 615 750 c 128,-1,8
 584 750 584 750 534 709 c 128,-1,9
 484 668 484 668 436 615 c 0,10,11
 275.662269129 437.960422164 275.662269129 437.960422164 202 369 c 1,12,13
 -17 147 -17 147 -38 147 c 0,14,15
 -42 147 -42 147 -42 154.5 c 128,-1,16
 -42 162 -42 162 -12.5 220 c 128,-1,17
 17 278 17 278 17 293 c 0,18,19
 17 312 17 312 -5 312 c 0,20,21
 -38 312 -38 312 -77 223 c 128,-1,22
 -116 134 -116 134 -116 86 c 128,-1,23
 -116 38 -116 38 -81 36 c 1,24,25
 -39.2352941176 36 -39.2352941176 36 39 106 c 0,26,27
 127.684065934 185.348901099 127.684065934 185.348901099 181.342032967 245.174450549 c 128,-1,28
 235 305 235 305 262 335.5 c 0,29,30
 293.5 371.083333333 293.5 371.083333333 368 458 c 0,31,32
 378 470 378 470 386.5 470 c 128,-1,33
 395 470 395 470 395 464 c 0,34,35
 395 455 395 455 382 442 c 0,36,37
 329 390 329 390 271 266.5 c 128,-1,38
 213 143 213 143 213 113 c 128,-1,39
 213 83 213 83 248 35.5 c 128,-1,40
 283 -12 283 -12 316 -12 c 0,41,42
 349.875 -12 349.875 -12 404.5 34 c 0,43,44
 485.957446809 102.595744681 485.957446809 102.595744681 592 220 c 0,45,46
 620 251 620 251 665.5 301 c 128,-1,47
 711 351 711 351 745 388 c 128,-1,48
 779 425 779 425 823 468.5 c 128,-1,49
 867 512 867 512 901.5 543.5 c 128,-1,50
 936 575 936 575 970 604.5 c 0,51,52
 1020.62882096 648.427947598 1020.62882096 648.427947598 1063.5 681.5 c 2,53,-1
 1081 695 l 2,54,55
 1090 703 1090 703 1090 712.5 c 128,-1,56
 1090 722 1090 722 1074.5 732.5 c 128,-1,57
 1059 743 1059 743 1044 743 c 128,-1,58
 1029 743 1029 743 1003 732 c 1,59,60
 922.645919339 701.644013973 922.645919339 701.644013973 694 452 c 0,61,62
 596 345 596 345 587 334.5 c 128,-1,63
 578 324 578 324 570 324 c 0,0,1
1033 880.5 m 128,-1,65
 1040 873 1040 873 1039.5 867 c 128,-1,66
 1039 861 1039 861 1037 856 c 128,-1,67
 1035 851 1035 851 1026 838 c 128,-1,68
 1017 825 1017 825 1006 815.5 c 0,69,70
 976.473684211 790 976.473684211 790 931 790 c 1,71,72
 905 794 905 794 868 822.5 c 128,-1,73
 831 851 831 851 819.5 852 c 128,-1,74
 808 853 808 853 800.5 846.5 c 128,-1,75
 793 840 793 840 786 840.5 c 128,-1,76
 779 841 779 841 772.5 847 c 128,-1,77
 766 853 766 853 766 861 c 2,78,-1
 766 862 l 1,79,80
 779 888 779 888 806 905.5 c 128,-1,81
 833 923 833 923 858 923 c 128,-1,82
 883 923 883 923 926 895 c 128,-1,83
 969 867 969 867 984.5 867 c 128,-1,84
 1000 867 1000 867 1007 878 c 128,-1,85
 1014 889 1014 889 1020 888.5 c 128,-1,64
 1026 888 1026 888 1033 880.5 c 128,-1,65
EndSplineSet
EndChar

StartChar: Eacute
Encoding: 201 201 100
Width: 573
Flags: HMW
HStem: -49 227<162.5 247 162.5 276> 563 196<657 688 586 706.5> 939 20G<875 921.5>
VStem: -21 159<97 212> 685 170<478 691> 726 237<817 914>
LayerCount: 2
Fore
SplineSet
688 759 m 0,0,1
 855 758 855 758 855 665 c 0,2,3
 855 625 855 625 824 575.5 c 128,-1,4
 793 526 793 526 757.5 494.5 c 128,-1,5
 722 463 722 463 705 463 c 0,6,7
 698 463 698 463 691.5 469.5 c 128,-1,8
 685 476 685 476 685 486.5 c 128,-1,9
 685 497 685 497 704.5 519 c 128,-1,10
 724 541 724 541 724 552 c 128,-1,11
 724 563 724 563 699 563 c 0,12,13
 634 563 634 563 488.5 509.5 c 128,-1,14
 343 456 343 456 342 429 c 1,15,16
 343 422 343 422 368.5 422 c 128,-1,17
 394 422 394 422 426.5 427 c 128,-1,18
 459 432 459 432 476 432 c 0,19,20
 521 432 521 432 521 408 c 0,21,22
 521 394.714285714 521 394.714285714 506 386.857142857 c 128,-1,23
 491 379 491 379 480.5 374.5 c 128,-1,24
 470 370 470 370 451 362.5 c 128,-1,25
 432 355 432 355 419.5 349 c 128,-1,26
 407 343 407 343 383 332.5 c 2,27,-1
 343 315 l 2,28,29
 303 297.5 303 297.5 273.5 282.75 c 128,-1,30
 244 268 244 268 223.5 258 c 128,-1,31
 203 248 203 248 189 240 c 128,-1,32
 175 232 175 232 162.5 223.5 c 0,33,34
 138 206.84 138 206.84 138 198 c 0,35,36
 138 178 138 178 170 178 c 0,37,38
 238 178 238 178 319 203 c 128,-1,39
 400 228 400 228 456.5 252.5 c 128,-1,40
 513 277 513 277 521 277 c 0,41,42
 556 276 556 276 579.5 242 c 128,-1,43
 603 208 603 208 603 174 c 0,44,45
 603 126 603 126 537 73 c 128,-1,46
 471 20 471 20 372.5 -14.5 c 128,-1,47
 274 -49 274 -49 188 -49 c 128,-1,48
 102 -49 102 -49 46 -13.5 c 128,-1,49
 -10 22 -10 22 -21 97 c 1,50,51
 -21 142 -21 142 29 192 c 128,-1,52
 79 242 79 242 145 278.5 c 128,-1,53
 211 315 211 315 267 340 c 128,-1,54
 323 365 323 365 343 368 c 1,55,56
 349 370 349 370 349 372 c 0,57,58
 349 380 349 380 337 382 c 0,59,60
 272 389 272 389 268 390 c 0,61,62
 214 402 214 402 192 437.5 c 128,-1,63
 170 473 170 473 170 503 c 0,64,65
 170 564 170 564 257 625 c 128,-1,66
 344 686 344 686 465 722.5 c 128,-1,67
 586 759 586 759 688 759 c 0,0,1
958 932 m 0,68,69
 963 919 963 919 963 911 c 0,70,71
 963 887 963 887 931 872 c 128,-1,72
 899 857 899 857 867 854 c 2,73,-1
 835 851 l 1,74,75
 809.597938144 847.371134021 809.597938144 847.371134021 753 817.5 c 2,76,-1
 735 808 l 1,77,78
 726 812 726 812 726 821 c 0,79,80
 726 853 726 853 793 906 c 128,-1,81
 860 959 860 959 903 959 c 128,-1,82
 946 959 946 959 958 932 c 0,68,69
EndSplineSet
EndChar

StartChar: Odieresis
Encoding: 214 214 101
Width: 554
Flags: HMW
HStem: -19 108<301.5 309> 540 172<594.5 617> 587 125<568.5 774> 769 145<643 747.5>
VStem: 36 245<112.5 180 112.5 319> 780 103<578 581.5 551.5 660>
LayerCount: 2
Fore
SplineSet
786 660 m 1,0,1
 812 675 812 675 835.5 675 c 128,-1,2
 859 675 859 675 871 659 c 128,-1,3
 883 643 883 643 883 615.5 c 128,-1,4
 883 588 883 588 849 526 c 128,-1,5
 815 464 815 464 760 393 c 128,-1,6
 705 322 705 322 630 248.5 c 128,-1,7
 555 175 555 175 478 115.5 c 128,-1,8
 401 56 401 56 319.5 18.5 c 128,-1,9
 238 -19 238 -19 177.5 -19 c 128,-1,10
 117 -19 117 -19 76.5 27 c 128,-1,11
 36 73 36 73 36 163 c 128,-1,12
 36 253 36 253 81.5 339.5 c 128,-1,13
 127 426 127 426 199 491.5 c 128,-1,14
 271 557 271 557 357 608 c 128,-1,15
 443 659 443 659 527.5 685.5 c 128,-1,16
 612 712 612 712 681 712 c 128,-1,17
 750 712 750 712 780 660 c 1,18,-1
 786 660 l 1,0,1
281 125 m 0,19,20
 281 89 281 89 311 89 c 0,21,22
 363 89 363 89 477 186 c 128,-1,23
 591 283 591 283 685 402 c 128,-1,24
 779 521 779 521 780 578 c 0,25,26
 780 587 780 587 772 587 c 0,27,28
 751 587 751 587 691 519 c 128,-1,29
 631 451 631 451 623 427 c 0,30,31
 622 426 622 426 619.5 422 c 128,-1,32
 617 418 617 418 614.5 414.5 c 0,33,34
 607.714285714 405 607.714285714 405 593.857142857 405 c 128,-1,35
 580 405 580 405 571 413.5 c 128,-1,36
 562 422 562 422 562 435 c 128,-1,37
 562 448 562 448 590.5 491 c 128,-1,38
 619 534 619 534 619 537 c 128,-1,39
 619 540 619 540 616 540 c 0,40,41
 594 540 594 540 512.5 460.5 c 128,-1,42
 431 381 431 381 356 278.5 c 128,-1,43
 281 176 281 176 281 125 c 0,19,20
662 769 m 1,44,45
 645 769 645 769 635 780.5 c 128,-1,46
 625 792 625 792 623.5 804 c 2,47,-1
 622 816 l 1,48,49
 627 864 627 864 665 889 c 128,-1,50
 703 914 703 914 731 914 c 0,51,52
 772 914 772 914 772 873 c 0,53,54
 772 847 772 847 741 810.5 c 128,-1,55
 710 774 710 774 662 769 c 1,44,45
813 761 m 1,56,57
 796 761 796 761 786 772.5 c 128,-1,58
 776 784 776 784 774.5 796 c 2,59,-1
 773 808 l 1,60,61
 778 856 778 856 816 881 c 128,-1,62
 854 906 854 906 882 906 c 0,63,64
 923 906 923 906 923 865 c 0,65,66
 923 839 923 839 892 802.5 c 128,-1,67
 861 766 861 766 813 761 c 1,56,57
EndSplineSet
EndChar

StartChar: Udieresis
Encoding: 220 220 102
Width: 660
Flags: HMW
HStem: -21 21G<406 464.5> 757 145<691 795.5>
LayerCount: 2
Fore
SplineSet
628 692 m 128,-1,1
 603 714 603 714 564.5 714 c 128,-1,2
 526 714 526 714 462 696 c 128,-1,3
 398 678 398 678 345 648 c 128,-1,4
 292 618 292 618 292 589 c 1,5,6
 295 575 295 575 308 575 c 128,-1,7
 321 575 321 575 364.5 599 c 128,-1,8
 408 623 408 623 416.5 623 c 128,-1,9
 425 623 425 623 425 619.5 c 128,-1,10
 425 616 425 616 417 608.5 c 128,-1,11
 409 601 409 601 354 556 c 128,-1,12
 299 511 299 511 241 459.5 c 128,-1,13
 183 408 183 408 122.5 348.5 c 128,-1,14
 62 289 62 289 23 229.5 c 128,-1,15
 -16 170 -16 170 -16 128 c 128,-1,16
 -16 86 -16 86 5 51 c 128,-1,17
 26 16 26 16 64.5 16 c 128,-1,18
 103 16 103 16 189.5 73 c 128,-1,19
 276 130 276 130 351.5 187 c 128,-1,20
 427 244 427 244 439 244 c 0,21,22
 442 244 442 244 442 239.5 c 128,-1,23
 442 235 442 235 435 228 c 1,24,25
 350 117 350 117 347 58 c 1,26,27
 356 -21 356 -21 428 -21 c 0,28,29
 464 -21 464 -21 522 3.5 c 128,-1,30
 580 28 580 28 625 62 c 128,-1,31
 670 96 670 96 670 121 c 0,32,33
 670 132 670 132 656.5 132 c 128,-1,34
 643 132 643 132 593.5 100 c 128,-1,35
 544 68 544 68 539 65.5 c 128,-1,36
 534 63 534 63 528.5 63 c 128,-1,37
 523 63 523 63 523 68.5 c 128,-1,38
 523 74 523 74 533.5 93 c 128,-1,39
 544 112 544 112 614 196 c 128,-1,40
 684 280 684 280 750.5 356 c 128,-1,41
 817 432 817 432 894 518 c 128,-1,42
 971 604 971 604 972 605 c 0,43,44
 999 638 999 638 999 656.5 c 0,45,46
 999 692 999 692 961 692 c 0,47,48
 938 692 938 692 922 678 c 128,-1,49
 906 664 906 664 801.5 585 c 128,-1,50
 697 506 697 506 591.5 427 c 128,-1,51
 486 348 486 348 482 344.5 c 128,-1,52
 478 341 478 341 473 341 c 0,53,54
 464 341 464 341 464 351 c 0,55,56
 464 355 464 355 465.5 356.5 c 128,-1,57
 467 358 467 358 585 490 c 1,58,59
 653 568 653 568 653 637 c 0,60,0
 653 670 653 670 628 692 c 128,-1,1
710 757 m 1,61,62
 693 757 693 757 683 768.5 c 128,-1,63
 673 780 673 780 671.5 792 c 2,64,-1
 670 804 l 1,65,66
 675 852 675 852 713 877 c 128,-1,67
 751 902 751 902 779 902 c 0,68,69
 820 902 820 902 820 861 c 0,70,71
 820 835 820 835 789 798.5 c 128,-1,72
 758 762 758 762 710 757 c 1,61,62
861 749 m 1,73,74
 844 749 844 749 834 760.5 c 128,-1,75
 824 772 824 772 822.5 784 c 2,76,-1
 821 796 l 1,77,78
 826 844 826 844 864 869 c 128,-1,79
 902 894 902 894 930 894 c 0,80,81
 971 894 971 894 971 853 c 0,82,83
 971 827 971 827 940 790.5 c 128,-1,84
 909 754 909 754 861 749 c 1,73,74
EndSplineSet
EndChar

StartChar: edieresis
Encoding: 235 235 103
Width: 358
Flags: HMW
HStem: -17 64<82.5 225.5> -17 216<82.5 287> 416 145<256 360.5>
VStem: 41 138<54 68.5 54 80.5> 99 101<204.5 214.5 200 265.5> 155 45<161 214.5>
LayerCount: 2
Fore
SplineSet
229 194 m 1,0,-1
 278 199 l 1,1,2
 312 199 312 199 312 165 c 0,3,4
 312 147 312 147 279 125 c 128,-1,5
 246 103 246 103 212.5 84.5 c 128,-1,6
 179 66 179 66 179 56 c 0,7,8
 179 49 179 49 195 47 c 1,9,10
 230 47 230 47 328 103 c 128,-1,11
 426 159 426 159 433 159 c 0,12,13
 447 159 447 159 447 145 c 1,14,15
 446 135 446 135 383.5 95.5 c 128,-1,16
 321 56 321 56 237.5 19.5 c 128,-1,17
 154 -17 154 -17 110 -17 c 0,18,19
 41 -17 41 -17 41 56 c 0,20,21
 41 77 41 77 69.5 102 c 128,-1,22
 98 127 98 127 126.5 145 c 128,-1,23
 155 163 155 163 155 167.5 c 128,-1,24
 155 172 155 172 141 178 c 0,25,26
 99 196 99 196 99 226 c 0,27,28
 99 282 99 282 192.5 332.5 c 128,-1,29
 286 383 286 383 366 383 c 0,30,31
 410 383 410 383 439 366.5 c 128,-1,32
 468 350 468 350 468 316.5 c 128,-1,33
 468 283 468 283 421.5 254 c 128,-1,34
 375 225 375 225 355 225 c 0,35,36
 347 225 347 225 340.5 229 c 128,-1,37
 334 233 334 233 334 238 c 128,-1,38
 334 243 334 243 361.5 254.5 c 128,-1,39
 389 266 389 266 389 276 c 0,40,41
 389 281 389 281 374.5 281 c 128,-1,42
 360 281 360 281 280 249.5 c 128,-1,43
 200 218 200 218 200 205 c 0,44,45
 200 194 200 194 229 194 c 1,0,-1
275 416 m 1,46,47
 258 416 258 416 248 428 c 128,-1,48
 238 440 238 440 236.5 451.5 c 2,49,-1
 235 463 l 1,50,51
 240 511 240 511 278 536 c 128,-1,52
 316 561 316 561 344 561 c 0,53,54
 385 561 385 561 385 520 c 0,55,56
 385 494 385 494 354 457.5 c 128,-1,57
 323 421 323 421 275 416 c 1,46,47
426 408 m 1,58,59
 409 408 409 408 399 420 c 128,-1,60
 389 432 389 432 387.5 443.5 c 2,61,-1
 386 455 l 1,62,63
 391 503 391 503 429 528 c 128,-1,64
 467 553 467 553 495 553 c 0,65,66
 536 553 536 553 536 512 c 0,67,68
 536 486 536 486 505 449.5 c 128,-1,69
 474 413 474 413 426 408 c 1,58,59
EndSplineSet
EndChar

StartChar: igrave
Encoding: 236 236 104
Width: 250
Flags: HMW
HStem: -26 21G<48 91.5> 486 20G<155.5 209.5>
VStem: 133 218<336 461>
LayerCount: 2
Fore
SplineSet
147 32 m 128,-1,1
 89 -26 89 -26 65 -26 c 128,-1,2
 41 -26 41 -26 26 -11.5 c 128,-1,3
 11 3 11 3 11 25 c 0,4,5
 11 95 11 95 94.5 184 c 128,-1,6
 178 273 178 273 250 286 c 1,7,8
 295 286 295 286 295 233 c 0,9,10
 295 216 295 216 250 153 c 128,-1,0
 205 90 205 90 147 32 c 128,-1,1
177 506 m 0,11,12
 225 506 225 506 288 443 c 128,-1,13
 351 380 351 380 351 336 c 1,14,15
 350 330 350 330 340 325 c 1,16,17
 279 375 279 375 249 385 c 1,18,19
 214.306122449 391.93877551 214.306122449 391.93877551 186.153061224 406.469387755 c 0,20,21
 133 433.903225806 133 433.903225806 133 461 c 0,22,23
 133 477.590909091 133 477.590909091 145.5 491.795454545 c 128,-1,24
 158 506 158 506 177 506 c 0,11,12
EndSplineSet
EndChar

StartChar: icircumflex
Encoding: 238 238 105
Width: 250
Flags: HMW
HStem: -26 21G<48 91.5> 290 194<364.5 370.5 297.5 392.5>
LayerCount: 2
Fore
SplineSet
26 -11.5 m 128,-1,1
 41 -26 41 -26 65 -26 c 128,-1,2
 89 -26 89 -26 147 32 c 128,-1,3
 205 90 205 90 250 153 c 128,-1,4
 295 216 295 216 295 233 c 0,5,6
 295 286 295 286 250 286 c 1,7,8
 178 273 178 273 94.5 184 c 128,-1,9
 11 95 11 95 11 25 c 0,10,0
 11 3 11 3 26 -11.5 c 128,-1,1
385 290 m 0,11,12
 343 290 343 290 321 393 c 1,13,14
 306 389 306 389 253 378.5 c 128,-1,15
 200 368 200 368 179 357 c 1,16,17
 168 353 168 353 158.5 353 c 128,-1,18
 149 353 149 353 149 362 c 0,19,20
 149 398 149 398 212 441 c 128,-1,21
 275 484 275 484 360 484 c 0,22,23
 375 484 375 484 390.5 433 c 128,-1,24
 406 382 406 382 406 336 c 128,-1,25
 406 290 406 290 385 290 c 0,11,12
EndSplineSet
EndChar

StartChar: ntilde
Encoding: 241 241 106
Width: 456
Flags: HMW
HStem: -27 21G<305 354> 339 77<539.5 544.5> 339 133<413 544.5>
VStem: 250 148<50 56.5> 250 204<28.5 49 28.5 56.5>
LayerCount: 2
Fore
SplineSet
409 45 m 1,0,-1
 440 57 l 1,1,2
 454 57 454 57 454 46 c 0,3,4
 454 20 454 20 411.5 -3.5 c 128,-1,5
 369 -27 369 -27 330.5 -27 c 128,-1,6
 292 -27 292 -27 271 -10.5 c 128,-1,7
 250 6 250 6 250 40 c 128,-1,8
 250 74 250 74 289 124 c 0,9,10
 294 129 294 129 294 132.5 c 128,-1,11
 294 136 294 136 290 136 c 128,-1,12
 286 136 286 136 283 134 c 128,-1,13
 280 132 280 132 240.5 107 c 0,14,15
 143.85106383 45.829787234 143.85106383 45.829787234 103 22 c 0,16,17
 86 13 86 13 71 13 c 128,-1,18
 56 13 56 13 38 32 c 128,-1,19
 20 51 20 51 20 70 c 0,20,21
 20 110 20 110 133 216.5 c 128,-1,22
 246 323 246 323 286 323 c 1,23,24
 301 321 301 321 312 306 c 128,-1,25
 323 291 323 291 323 270.5 c 128,-1,26
 323 250 323 250 308 226 c 0,27,28
 286.333333333 191.333333333 286.333333333 191.333333333 272.666666667 177.666666667 c 128,-1,29
 259 164 259 164 259 160.5 c 128,-1,30
 259 157 259 157 262 157 c 128,-1,31
 265 157 265 157 270.5 160.5 c 128,-1,32
 276 164 276 164 365.5 222.5 c 128,-1,33
 455 281 455 281 466 287.5 c 128,-1,34
 477 294 477 294 490 294 c 128,-1,35
 503 294 503 294 524 281.5 c 128,-1,36
 545 269 545 269 545 248 c 128,-1,37
 545 227 545 227 508.5 186 c 128,-1,38
 472 145 472 145 435 107 c 128,-1,39
 398 69 398 69 398 53 c 0,40,41
 398 45 398 45 409 45 c 1,0,-1
604 429.5 m 128,-1,43
 611 422 611 422 610.5 416 c 128,-1,44
 610 410 610 410 608 405 c 128,-1,45
 606 400 606 400 597 387 c 128,-1,46
 588 374 588 374 577 364.5 c 0,47,48
 547.473684211 339 547.473684211 339 502 339 c 1,49,50
 476 343 476 343 439 371.5 c 128,-1,51
 402 400 402 400 390.5 401 c 128,-1,52
 379 402 379 402 371.5 395.5 c 128,-1,53
 364 389 364 389 357 389.5 c 128,-1,54
 350 390 350 390 343.5 396 c 128,-1,55
 337 402 337 402 337 410 c 2,56,-1
 337 411 l 1,57,58
 350 437 350 437 377 454.5 c 128,-1,59
 404 472 404 472 429 472 c 128,-1,60
 454 472 454 472 497 444 c 128,-1,61
 540 416 540 416 555.5 416 c 128,-1,62
 571 416 571 416 578 427 c 128,-1,63
 585 438 585 438 591 437.5 c 128,-1,42
 597 437 597 437 604 429.5 c 128,-1,43
EndSplineSet
EndChar

StartChar: asterisk
Encoding: 42 42 107
Width: 478
Flags: HMW
HStem: 262 21G<235.5 238> 351 207<412.5 430.5>
VStem: 225 193<277.5 288>
LayerCount: 2
Fore
SplineSet
193 485 m 0,0,1
 193 490 193 490 194 497 c 128,-1,2
 195 504 195 504 206.5 515.5 c 128,-1,3
 218 527 218 527 238 527 c 0,4,5
 277 527 277 527 321 473 c 1,6,7
 380 558 380 558 427 558 c 0,8,9
 441 558 441 558 456.5 545 c 128,-1,10
 472 532 472 532 472 517 c 0,11,12
 472 492 472 492 432 450 c 1,13,14
 460 446 460 446 472 437 c 128,-1,15
 484 428 484 428 487 406 c 1,16,17
 485 351 485 351 398 351 c 1,18,19
 418 309 418 309 418 288.5 c 128,-1,20
 418 268 418 268 405 268 c 1,21,22
 407 273 407 273 368.5 306 c 128,-1,23
 330 339 330 339 313 351 c 1,24,25
 291.666666667 329.666666667 291.666666667 329.666666667 249.5 276.5 c 2,26,-1
 238 262 l 1,27,28
 225 262 225 262 225 283 c 128,-1,29
 225 304 225 304 258 370 c 1,30,31
 131 401 131 401 131 430 c 0,32,33
 131 434 131 434 135 438 c 1,34,35
 179 435 179 435 219 434 c 1,36,37
 193 465 193 465 193 485 c 0,0,1
EndSplineSet
EndChar

StartChar: dollar
Encoding: 36 36 108
Width: 751
Flags: HMW
HStem: -130 21G<208 217.5> -36 208 329 54 513 188<626 646> 825 20G<623.5 634.5>
LayerCount: 2
Fore
SplineSet
48 200 m 1,0,1
 76 172 76 172 178 172 c 1,2,3
 261 178 261 178 325 198 c 1,4,5
 335.5 224.25 335.5 224.25 382 325 c 1,6,7
 341 326 341 326 231 329 c 0,8,9
 176 330 176 330 140 360.5 c 128,-1,10
 104 391 104 391 104 442.5 c 128,-1,11
 104 494 104 494 174.5 550 c 128,-1,12
 245 606 245 606 346 644 c 128,-1,13
 447 682 447 682 548 695 c 1,14,15
 598 805 598 805 601 811 c 0,16,17
 616 845 616 845 630 845 c 0,18,19
 637 845 637 845 643.5 838 c 128,-1,20
 650 831 650 831 650 821 c 128,-1,21
 650 811 650 811 602 700 c 1,22,23
 610 701 610 701 627 701 c 0,24,25
 701 701 701 701 744.5 678 c 128,-1,26
 788 655 788 655 788 607 c 0,27,28
 788 576 788 576 726.5 493.5 c 128,-1,29
 665 411 665 411 634 411 c 0,30,31
 627 411 627 411 621.5 417 c 128,-1,32
 616 423 616 423 616 433 c 128,-1,33
 616 443 616 443 638 467.5 c 128,-1,34
 660 492 660 492 660 504 c 0,35,36
 660 513 660 513 628.5 513 c 128,-1,37
 597 513 597 513 507 484 c 1,38,39
 494.75 457.75 494.75 457.75 480.875 425.375 c 128,-1,40
 467 393 467 393 462 382 c 1,41,42
 500 381 500 381 547 374.5 c 128,-1,43
 594 368 594 368 621 353.5 c 128,-1,44
 648 339 648 339 660 320 c 0,45,46
 680 288.333333333 680 288.333333333 680 255 c 0,47,48
 680 199 680 199 619 141.5 c 128,-1,49
 558 84 558 84 467 42 c 128,-1,50
 376 0 376 0 278 -21 c 1,51,52
 240 -103 240 -103 232 -116.5 c 128,-1,53
 224 -130 224 -130 215 -130 c 128,-1,54
 206 -130 206 -130 200.5 -119.5 c 128,-1,55
 195 -109 195 -109 195 -99.5 c 0,56,57
 195 -88.1538461538 195 -88.1538461538 222 -30 c 1,58,59
 183 -36 183 -36 147 -36 c 0,60,61
 59 -36 59 -36 7 -3.5 c 128,-1,62
 -45 29 -45 29 -45 96 c 128,-1,63
 -45 163 -45 163 48 200 c 1,0,1
449 325 m 2,64,-1
 436 325 l 1,65,66
 427 306 427 306 412 271.5 c 128,-1,67
 397 237 397 237 390 223 c 1,68,69
 434 244 434 244 459.5 267.5 c 128,-1,70
 485 291 485 291 489 307 c 1,71,72
 487 325 487 325 449 325 c 2,64,-1
343 399 m 0,73,74
 343 386 343 386 408 383 c 1,75,76
 419 409 419 409 443 461 c 1,77,78
 343 422 343 422 343 399 c 0,73,74
EndSplineSet
EndChar

StartChar: percent
Encoding: 37 37 109
Width: 885
Flags: HMW
HStem: -38 21G<217 232> -1 59<651.5 663> 292 59<260.5 272> 334 68<790.5 796 734.5 837> 627 68<399.5 405 343.5 446> 705 20G<718 734.5>
VStem: 118 129<371 503> 458 47<593.5 619> 509 129<78 210> 849 47<300.5 326>
LayerCount: 2
Fore
SplineSet
205 12 m 0,0,1
 670 673 670 673 683 691 c 0,2,3
 707 725 707 725 728 725 c 0,4,5
 739 725 739 725 748 718 c 128,-1,6
 757 711 757 711 757 700 c 0,7,8
 757 680 757 680 526.5 352.5 c 128,-1,9
 296 25 296 25 257 -22 c 0,10,11
 244 -38 244 -38 229 -38 c 128,-1,12
 214 -38 214 -38 206.5 -27.5 c 128,-1,13
 199 -17 199 -17 199 -6.5 c 128,-1,14
 199 4 199 4 205 12 c 0,0,1
450 667 m 1,15,-1
 453 667 l 1,16,17
 465 675 465 675 478 675 c 128,-1,18
 491 675 491 675 498 663.5 c 128,-1,19
 505 652 505 652 505 638 c 0,20,21
 505 592 505 592 459 510.5 c 128,-1,22
 413 429 413 429 340 360.5 c 128,-1,23
 267 292 267 292 206 292 c 0,24,25
 172 292 172 292 145 331 c 128,-1,26
 118 370 118 370 118 434 c 128,-1,27
 118 498 118 498 166.5 562.5 c 128,-1,28
 215 627 215 627 278.5 661 c 128,-1,29
 342 695 342 695 395 695 c 0,30,31
 431 695 431 695 450 667 c 1,15,-1
458 615 m 0,32,33
 458 623 458 623 446 627 c 1,34,35
 378 627 378 627 312.5 540.5 c 128,-1,36
 247 454 247 454 247 373 c 2,37,-1
 247 371 l 1,38,39
 250 351 250 351 265 351 c 0,40,41
 290 351 290 351 337 401.5 c 128,-1,42
 384 452 384 452 421 516 c 128,-1,43
 458 580 458 580 458 615 c 0,32,33
841 374 m 1,44,-1
 844 374 l 1,45,46
 856 382 856 382 869 382 c 128,-1,47
 882 382 882 382 889 370.5 c 128,-1,48
 896 359 896 359 896 345 c 0,49,50
 896 299 896 299 850 217.5 c 128,-1,51
 804 136 804 136 731 67.5 c 128,-1,52
 658 -1 658 -1 597 -1 c 0,53,54
 563 -1 563 -1 536 38.5 c 128,-1,55
 509 78 509 78 509 141.5 c 128,-1,56
 509 205 509 205 557.5 269.5 c 128,-1,57
 606 334 606 334 669.5 368 c 128,-1,58
 733 402 733 402 786 402 c 0,59,60
 822 402 822 402 841 374 c 1,44,-1
849 322 m 0,61,62
 849 330 849 330 837 334 c 1,63,64
 769 334 769 334 703.5 247.5 c 128,-1,65
 638 161 638 161 638 80 c 2,66,-1
 638 78 l 1,67,68
 641 58 641 58 656 58 c 0,69,70
 681 58 681 58 728 108.5 c 128,-1,71
 775 159 775 159 812 223 c 128,-1,72
 849 287 849 287 849 322 c 0,61,62
EndSplineSet
EndChar

StartChar: perthousand
Encoding: 8240 8240 110
Width: 1280
Flags: HMW
HStem: -38 21G<217 232> -1 59<651.5 663 1018.5 1030> 292 59<260.5 272> 334 68<790.5 796 734.5 837 1157.5 1163> 627 68<399.5 405 343.5 446> 705 20G<718 734.5>
VStem: 118 129<371 503> 458 47<593.5 619> 509 129<78 210> 849 47<300.5 326> 876 129<78 210> 1216 47<300.5 326>
LayerCount: 2
Fore
SplineSet
205 12 m 0,0,1
 670 673 670 673 683 691 c 0,2,3
 707 725 707 725 728 725 c 0,4,5
 739 725 739 725 748 718 c 128,-1,6
 757 711 757 711 757 700 c 0,7,8
 757 680 757 680 526.5 352.5 c 128,-1,9
 296 25 296 25 257 -22 c 0,10,11
 244 -38 244 -38 229 -38 c 128,-1,12
 214 -38 214 -38 206.5 -27.5 c 128,-1,13
 199 -17 199 -17 199 -6.5 c 128,-1,14
 199 4 199 4 205 12 c 0,0,1
450 667 m 1,15,-1
 453 667 l 1,16,17
 465 675 465 675 478 675 c 128,-1,18
 491 675 491 675 498 663.5 c 128,-1,19
 505 652 505 652 505 638 c 0,20,21
 505 592 505 592 459 510.5 c 128,-1,22
 413 429 413 429 340 360.5 c 128,-1,23
 267 292 267 292 206 292 c 0,24,25
 172 292 172 292 145 331 c 128,-1,26
 118 370 118 370 118 434 c 128,-1,27
 118 498 118 498 166.5 562.5 c 128,-1,28
 215 627 215 627 278.5 661 c 128,-1,29
 342 695 342 695 395 695 c 0,30,31
 431 695 431 695 450 667 c 1,15,-1
458 615 m 0,32,33
 458 623 458 623 446 627 c 1,34,35
 378 627 378 627 312.5 540.5 c 128,-1,36
 247 454 247 454 247 373 c 2,37,-1
 247 371 l 1,38,39
 250 351 250 351 265 351 c 0,40,41
 290 351 290 351 337 401.5 c 128,-1,42
 384 452 384 452 421 516 c 128,-1,43
 458 580 458 580 458 615 c 0,32,33
841 374 m 1,44,-1
 844 374 l 1,45,46
 856 382 856 382 869 382 c 128,-1,47
 882 382 882 382 889 370.5 c 128,-1,48
 896 359 896 359 896 345 c 0,49,50
 896 299 896 299 850 217.5 c 128,-1,51
 804 136 804 136 731 67.5 c 128,-1,52
 658 -1 658 -1 597 -1 c 0,53,54
 563 -1 563 -1 536 38.5 c 128,-1,55
 509 78 509 78 509 141.5 c 128,-1,56
 509 205 509 205 557.5 269.5 c 128,-1,57
 606 334 606 334 669.5 368 c 128,-1,58
 733 402 733 402 786 402 c 0,59,60
 822 402 822 402 841 374 c 1,44,-1
849 322 m 0,61,62
 849 330 849 330 837 334 c 1,63,64
 769 334 769 334 703.5 247.5 c 128,-1,65
 638 161 638 161 638 80 c 2,66,-1
 638 78 l 1,67,68
 641 58 641 58 656 58 c 0,69,70
 681 58 681 58 728 108.5 c 128,-1,71
 775 159 775 159 812 223 c 128,-1,72
 849 287 849 287 849 322 c 0,61,62
1208 374 m 1,73,-1
 1211 374 l 1,74,75
 1223 382 1223 382 1236 382 c 128,-1,76
 1249 382 1249 382 1256 370.5 c 128,-1,77
 1263 359 1263 359 1263 345 c 0,78,79
 1263 299 1263 299 1217 217.5 c 128,-1,80
 1171 136 1171 136 1098 67.5 c 128,-1,81
 1025 -1 1025 -1 964 -1 c 0,82,83
 930 -1 930 -1 903 38.5 c 128,-1,84
 876 78 876 78 876 141.5 c 128,-1,85
 876 205 876 205 924.5 269.5 c 128,-1,86
 973 334 973 334 1036.5 368 c 128,-1,87
 1100 402 1100 402 1153 402 c 0,88,89
 1189 402 1189 402 1208 374 c 1,73,-1
1216 322 m 0,90,91
 1216 330 1216 330 1204 334 c 1,92,93
 1136 334 1136 334 1070.5 247.5 c 128,-1,94
 1005 161 1005 161 1005 80 c 2,95,-1
 1005 78 l 1,96,97
 1008 58 1008 58 1023 58 c 0,98,99
 1048 58 1048 58 1095 108.5 c 128,-1,100
 1142 159 1142 159 1179 223 c 128,-1,101
 1216 287 1216 287 1216 322 c 0,90,91
EndSplineSet
EndChar

StartChar: oe
Encoding: 339 339 111
Width: 524
Flags: HMW
HStem: -22 69 -22 221 -17 21G<259.5 324.5> 363 20G<503.5 559.5>
VStem: 33 130<60 88.5 60 152.5>
LayerCount: 2
Fore
SplineSet
395 194 m 1,0,-1
 444 199 l 1,1,2
 478 199 478 199 478 165 c 0,3,4
 478 147 478 147 445 125 c 128,-1,5
 412 103 412 103 378.5 84.5 c 128,-1,6
 345 66 345 66 345 56 c 0,7,8
 345 49 345 49 361 47 c 1,9,10
 396 47 396 47 494 103 c 128,-1,11
 592 159 592 159 599 159 c 0,12,13
 613 159 613 159 613 145 c 1,14,15
 612 135 612 135 549.5 95.5 c 128,-1,16
 487 56 487 56 403.5 19.5 c 128,-1,17
 320 -17 320 -17 276.5 -17 c 128,-1,18
 233 -17 233 -17 215 15 c 1,19,20
 165 -22 165 -22 121.5 -22 c 0,21,22
 33 -22 33 -22 33 76 c 0,23,24
 33 147 33 147 79.5 208.5 c 128,-1,25
 126 270 126 270 185 301 c 128,-1,26
 244 332 244 332 292 332 c 1,27,28
 321 328 321 328 339 321 c 1,29,30
 382 349 382 349 435.5 366 c 128,-1,31
 489 383 489 383 532.5 383 c 128,-1,32
 576 383 576 383 605 366.5 c 128,-1,33
 634 350 634 350 634 316.5 c 128,-1,34
 634 283 634 283 587.5 254 c 128,-1,35
 541 225 541 225 521 225 c 0,36,37
 513 225 513 225 506.5 229 c 128,-1,38
 500 233 500 233 500 238 c 128,-1,39
 500 243 500 243 527.5 254.5 c 128,-1,40
 555 266 555 266 555 276 c 0,41,42
 555 281 555 281 540.5 281 c 128,-1,43
 526 281 526 281 446 249.5 c 128,-1,44
 366 218 366 218 366 205 c 0,45,46
 366 194 366 194 395 194 c 1,0,-1
176 46 m 0,47,48
 194 46 194 46 207 61 c 1,49,50
 211.791231733 92.9415448852 211.791231733 92.9415448852 294.5 146 c 0,51,52
 321 163 321 163 321 167.5 c 128,-1,53
 321 172 321 172 312 176 c 0,54,55
 279.789473684 190.315789474 279.789473684 190.315789474 272 202 c 1,56,57
 234 176 234 176 198.5 136.5 c 128,-1,58
 163 97 163 97 163 65 c 0,59,60
 163 46 163 46 176 46 c 0,47,48
EndSplineSet
EndChar

StartChar: ae
Encoding: 230 230 112
Width: 631
Flags: HMW
HStem: -23 111<214 282.5> -17 21G<371.5 431.5> -8 55 -8 207 363 20G<606 666.5>
VStem: 38 168<96.5 112> 237 215<1 68.5>
LayerCount: 2
Fore
SplineSet
502 194 m 1,0,-1
 551 199 l 1,1,2
 585 199 585 199 585 165 c 0,3,4
 585 147 585 147 551.5 125 c 128,-1,5
 518 103 518 103 485 84.5 c 128,-1,6
 452 66 452 66 452 56 c 0,7,8
 452 49 452 49 468 47 c 1,9,10
 503 47 503 47 601 103 c 128,-1,11
 699 159 699 159 706 159 c 0,12,13
 720 159 720 159 720 145 c 1,14,15
 719 135 719 135 656.5 95.5 c 128,-1,16
 594 56 594 56 510.5 19.5 c 128,-1,17
 427 -17 427 -17 389.5 -17 c 128,-1,18
 352 -17 352 -17 334 -1 c 1,19,20
 292 -23 292 -23 278 -23 c 128,-1,21
 264 -23 264 -23 250.5 -13 c 128,-1,22
 237 -3 237 -3 237 10.5 c 128,-1,23
 237 24 237 24 244 40 c 128,-1,24
 251 56 251 56 251 61.5 c 128,-1,25
 251 67 251 67 248 67 c 128,-1,26
 245 67 245 67 242 65 c 0,27,28
 145 -8 145 -8 99 -8 c 0,29,30
 73 -8 73 -8 58 11 c 128,-1,31
 43 30 43 30 40.5 49 c 2,32,-1
 38 68 l 1,33,34
 38 101 38 101 63.5 144.5 c 128,-1,35
 89 188 89 188 130.5 227.5 c 128,-1,36
 172 267 172 267 232.5 294 c 128,-1,37
 293 321 293 321 356 321 c 0,38,39
 392 321 392 321 420 302 c 1,40,41
 462 337 462 337 525.5 360 c 128,-1,42
 589 383 589 383 636 383 c 128,-1,43
 683 383 683 383 712 366.5 c 128,-1,44
 741 350 741 350 741 316.5 c 128,-1,45
 741 283 741 283 694.5 254 c 128,-1,46
 648 225 648 225 628 225 c 0,47,48
 620 225 620 225 613.5 229 c 128,-1,49
 607 233 607 233 607 238 c 128,-1,50
 607 243 607 243 634.5 254.5 c 128,-1,51
 662 266 662 266 662 276 c 0,52,53
 662 281 662 281 647.5 281 c 128,-1,54
 633 281 633 281 553 249.5 c 128,-1,55
 473 218 473 218 473 205 c 0,56,57
 473 194 473 194 502 194 c 1,0,-1
206 99 m 0,58,59
 206 88 206 88 221 88 c 128,-1,60
 236 88 236 88 315 130.5 c 128,-1,61
 394 173 394 173 411 180 c 1,62,63
 375 197 375 197 372 221 c 1,64,65
 318 197 318 197 262 159 c 128,-1,66
 206 121 206 121 206 99 c 0,58,59
EndSplineSet
EndChar

StartChar: ampersand
Encoding: 38 38 113
Width: 985
Flags: HMW
HStem: -49 81<131.5 399> 136 213<539.5 863> 549 170<621 670.5>
VStem: -13 206<93.5 102.5> 649 170<464 651> 688 131<526.5 651>
LayerCount: 2
Fore
SplineSet
588 137 m 1,0,1
 573 136 573 136 563 136 c 0,2,3
 525 136 525 136 497.5 156.5 c 128,-1,4
 470 177 470 177 470 215 c 0,5,6
 470 245 470 245 531 277 c 128,-1,7
 592 309 592 309 674.5 329 c 128,-1,8
 757 349 757 349 823 349 c 128,-1,9
 889 349 889 349 930 326 c 128,-1,10
 971 303 971 303 971 254 c 0,11,12
 971 229 971 229 899 204.5 c 128,-1,13
 827 180 827 180 754 165.5 c 128,-1,14
 681 151 681 151 681 150 c 0,15,16
 633 98 633 98 563 57 c 128,-1,17
 493 16 493 16 425 -6 c 0,18,19
 292.090909091 -49 292.090909091 -49 213 -49 c 0,20,21
 -13 -49 -13 -49 -13 51 c 0,22,23
 -13 131 -13 131 79 220.5 c 128,-1,24
 171 310 171 310 307 354 c 0,25,26
 313 356 313 356 313 358 c 0,27,28
 313 366 313 366 301 368 c 0,29,30
 236 375 236 375 232 376 c 0,31,32
 177 388 177 388 155.5 412.5 c 128,-1,33
 134 437 134 437 134 463 c 0,34,35
 134 524 134 524 221 585 c 128,-1,36
 308 646 308 646 429 682.5 c 128,-1,37
 550 719 550 719 652 719 c 0,38,39
 819 719 819 719 819 625 c 0,40,41
 819 567 819 567 760 508 c 128,-1,42
 701 449 701 449 669 449 c 0,43,44
 662 449 662 449 655.5 455.5 c 128,-1,45
 649 462 649 462 649 472.5 c 128,-1,46
 649 483 649 483 668.5 505 c 128,-1,47
 688 527 688 527 688 538 c 128,-1,48
 688 549 688 549 663 549 c 0,49,50
 598 549 598 549 452.5 495.5 c 128,-1,51
 307 442 307 442 306 415 c 1,52,53
 307 408 307 408 332.5 408 c 128,-1,54
 358 408 358 408 390.5 413 c 128,-1,55
 423 418 423 418 440 418 c 0,56,57
 485 418 485 418 485 394 c 0,58,59
 485 380.714285714 485 380.714285714 470 372.857142857 c 128,-1,60
 455 365 455 365 444.5 360.5 c 128,-1,61
 434 356 434 356 415 348.5 c 0,62,63
 303.761033369 304.589881593 303.761033369 304.589881593 248.380516685 243.294940797 c 128,-1,64
 193 182 193 182 193 130.5 c 128,-1,65
 193 79 193 79 235 55.5 c 128,-1,66
 277 32 277 32 353.5 32 c 128,-1,67
 430 32 430 32 509 64.5 c 128,-1,68
 588 97 588 97 588 137 c 1,0,1
EndSplineSet
EndChar

StartChar: Eth
Encoding: 208 208 114
Width: 810
Flags: HMW
HStem: -38 217<238.5 397.5 238.5 478.5> -38 250<86.5 478.5> 200 122<301.5 355.5> 285 37<304 315> 349 60 516 193<652.5 687.5 472 777>
VStem: 884 80<423.5 485.5>
LayerCount: 2
Fore
SplineSet
281 399 m 1,0,-1
 349 409 l 1,1,2
 367 409 367 409 367 398 c 0,3,4
 367 380 367 380 313.5 364.5 c 128,-1,5
 260 349 260 349 225 349 c 0,6,7
 169 349 169 349 134.5 383 c 128,-1,8
 100 417 100 417 94 476 c 1,9,10
 94 531 94 531 168 586 c 128,-1,11
 242 641 242 641 358 675 c 128,-1,12
 474 709 474 709 570.5 709 c 128,-1,13
 667 709 667 709 731.5 692 c 128,-1,14
 796 675 796 675 849.5 640 c 128,-1,15
 903 605 903 605 933.5 542.5 c 128,-1,16
 964 480 964 480 964 396 c 0,17,18
 964 294 964 294 851.5 181.5 c 0,19,20
 792 122 792 122 707.5 73.5 c 128,-1,21
 623 25 623 25 494 -6.5 c 128,-1,22
 365 -38 365 -38 214 -38 c 0,23,24
 176.444444444 -38 176.444444444 -38 94 -11.5 c 0,25,26
 52 2 52 2 21 29 c 128,-1,27
 -10 56 -10 56 -10 96.5 c 128,-1,28
 -10 137 -10 137 30.5 174.5 c 128,-1,29
 71 212 71 212 112 212 c 0,30,31
 120 212 120 212 175.5 195.5 c 128,-1,32
 231 179 231 179 298 179 c 128,-1,33
 365 179 365 179 472.5 211.5 c 128,-1,34
 580 244 580 244 669.5 289.5 c 128,-1,35
 759 335 759 335 821.5 385.5 c 128,-1,36
 884 436 884 436 884 469 c 0,37,38
 884 516 884 516 743.5 516 c 128,-1,39
 603 516 603 516 457.5 481.5 c 128,-1,40
 312 447 312 447 278 400 c 0,41,42
 277 399 277 399 278 399 c 2,43,-1
 281 399 l 1,0,-1
479 335 m 1,44,45
 530.4 345.28 530.4 345.28 558 360 c 1,46,47
 577 360 577 360 577 348 c 0,48,49
 577 317 577 317 447 297 c 1,50,51
 412.538461538 258.230769231 412.538461538 258.230769231 385.5 225.5 c 2,52,-1
 376 214 l 2,53,54
 375 214 375 214 371 210 c 0,55,56
 361 200 361 200 350 200 c 128,-1,57
 339 200 339 200 331.5 210 c 128,-1,58
 324 220 324 220 324 231.5 c 128,-1,59
 324 243 324 243 333.5 255 c 128,-1,60
 343 267 343 267 359 287 c 1,61,62
 317 285 317 285 310 285 c 0,63,64
 279 285 279 285 279 303.5 c 128,-1,65
 279 322 279 322 309 322 c 128,-1,66
 339 322 339 322 389 324 c 1,67,68
 487 448 487 448 497 458 c 1,69,70
 522 488 522 488 537.5 488 c 128,-1,71
 553 488 553 488 562 479.5 c 128,-1,72
 571 471 571 471 571 459 c 128,-1,73
 571 447 571 447 553 424.5 c 128,-1,74
 535 402 535 402 479 335 c 1,44,45
EndSplineSet
EndChar

StartChar: sterling
Encoding: 163 163 115
Width: 785
Flags: HMW
HStem: -104 57<-10 29.5 -10 51> 39 220 306 66 466 111 648 54
VStem: -122 105<-16 -15.5 -44 76>
LayerCount: 2
Fore
SplineSet
593 372 m 1,0,1
 639.625550661 373.942731278 639.625550661 373.942731278 667 395 c 1,2,3
 674 395 674 395 678 384 c 128,-1,4
 682 373 682 373 682.5 362 c 2,5,-1
 683 351 l 1,6,7
 680 322 680 322 651.5 314 c 128,-1,8
 623 306 623 306 586 306 c 128,-1,9
 549 306 549 306 539 307 c 1,10,11
 493 252 493 252 490 249 c 1,12,13
 606.852140078 235.13618677 606.852140078 235.13618677 695 192 c 0,14,15
 742 169 742 169 769.5 130 c 128,-1,16
 797 91 797 91 797 41 c 0,17,18
 797 11.3333333333 797 11.3333333333 774 7.5 c 0,19,20
 765 6 765 6 718.5 6 c 128,-1,21
 672 6 672 6 532.5 21.5 c 128,-1,22
 393 37 393 37 291 39 c 1,23,24
 131 -104 131 -104 2 -104 c 0,25,26
 -52 -104 -52 -104 -87 -68.5 c 128,-1,27
 -122 -33 -122 -33 -122 14 c 0,28,29
 -122 118 -122 118 -12.5 188.5 c 128,-1,30
 97 259 97 259 327 259 c 0,31,32
 371 259 371 259 426 255 c 1,33,34
 443 274 443 274 475 314 c 1,35,36
 421 322 421 322 400 330 c 1,37,38
 382 338 382 338 382 377 c 1,39,40
 385 410 385 410 404 410 c 1,41,42
 480 383 480 383 528 376 c 1,43,44
 567 422.5 567 422.5 606 466 c 1,45,46
 560 467 560 467 530 483.5 c 128,-1,47
 500 500 500 500 489 547 c 1,48,49
 489 577 489 577 520 577 c 0,50,51
 664 577 664 577 719 579 c 1,52,53
 857 701 857 701 980 702 c 1,54,55
 1056 695 1056 695 1056 636 c 0,56,57
 1056 552.677419355 1056 552.677419355 987 511.5 c 0,58,59
 910.756756757 466 910.756756757 466 675 466 c 1,60,61
 636 422 636 422 593 372 c 1,0,1
-17 -42 m 0,62,63
 -17 -47 -17 -47 -8 -47 c 0,64,65
 93 -47 93 -47 206 36 c 1,66,67
 119 30 119 30 51 11.5 c 128,-1,68
 -17 -7 -17 -7 -17 -42 c 0,62,63
942 644 m 0,69,70
 942 648 942 648 936 648 c 0,71,72
 875 648 875 648 794 583 c 1,73,74
 873 588 873 588 907.5 602 c 128,-1,75
 942 616 942 616 942 644 c 0,69,70
EndSplineSet
EndChar

StartChar: yen
Encoding: 165 165 116
Width: 544
Flags: HMW
HStem: -301 21G<151.5 182> -134 80 -20 66 -10 21G<118 124> 508 175
LayerCount: 2
Fore
SplineSet
439 46 m 1,0,1
 492.695652174 50.1304347826 492.695652174 50.1304347826 521 69 c 1,2,3
 536 69 536 69 539 36 c 2,4,-1
 540 25 l 1,5,6
 537 -4 537 -4 503 -12 c 128,-1,7
 469 -20 469 -20 402 -20 c 2,8,-1
 383 -20 l 1,9,10
 373 -32 373 -32 355 -54 c 1,11,12
 410.112359551 -49.9176029963 410.112359551 -49.9176029963 440 -28 c 1,13,14
 448 -28 448 -28 453 -41 c 128,-1,15
 458 -54 458 -54 458.5 -67 c 2,16,-1
 459 -80 l 1,17,18
 454.987775061 -118.116136919 454.987775061 -118.116136919 414 -126.5 c 0,19,20
 377.333333333 -134 377.333333333 -134 340.166666667 -134 c 128,-1,21
 303 -134 303 -134 294 -133 c 1,22,23
 267 -171 267 -171 237 -219.5 c 128,-1,24
 207 -268 207 -268 194 -284.5 c 128,-1,25
 181 -301 181 -301 168 -301 c 0,26,27
 146 -301 146 -301 129 -272 c 128,-1,28
 112 -243 112 -243 112 -221 c 0,29,30
 112 -178 112 -178 157 -115 c 1,31,-1
 119 -106 l 1,32,33
 98 -96 98 -96 98 -49 c 1,34,35
 101 -10 101 -10 124 -10 c 1,36,37
 183 -30 183 -30 219 -39 c 1,38,39
 223 -34 223 -34 233 -23 c 128,-1,40
 243 -12 243 -12 248 -6 c 1,41,42
 204 3 204 3 200 4 c 0,43,44
 179 12 179 12 179 51 c 1,45,46
 182 84 182 84 205 84 c 1,47,48
 254 69 254 69 305 58 c 1,49,50
 485 260 485 260 520 292 c 1,51,52
 526 300 526 300 526 302.5 c 128,-1,53
 526 305 526 305 522 305 c 128,-1,54
 518 305 518 305 505 296 c 128,-1,55
 492 287 492 287 456 263 c 128,-1,56
 420 239 420 239 393.5 222 c 128,-1,57
 367 205 367 205 323.5 179 c 128,-1,58
 280 153 280 153 247 136.5 c 0,59,60
 164 95 164 95 120.5 95 c 128,-1,61
 77 95 77 95 52.5 129 c 128,-1,62
 28 163 28 163 28 199 c 128,-1,63
 28 235 28 235 40.5 262.5 c 128,-1,64
 53 290 53 290 98 333.5 c 128,-1,65
 143 377 143 377 191.5 417 c 0,66,67
 322.987467018 525.443271768 322.987467018 525.443271768 349 574 c 0,68,69
 351 578 351 578 351 580 c 128,-1,70
 351 582 351 582 345.5 582 c 128,-1,71
 340 582 340 582 336 579 c 128,-1,72
 332 576 332 576 312 564 c 128,-1,73
 292 552 292 552 272 540.5 c 0,74,75
 215.47826087 508 215.47826087 508 206.739130435 508 c 128,-1,76
 198 508 198 508 190.5 515.5 c 128,-1,77
 183 523 183 523 183 534 c 0,78,79
 183 560 183 560 227.5 595 c 128,-1,80
 272 630 272 630 338 656.5 c 128,-1,81
 404 683 404 683 459 683 c 0,82,83
 572 683 572 683 572 570 c 0,84,85
 572 550 572 550 563 528 c 128,-1,86
 554 506 554 506 544.5 494.5 c 2,87,-1
 535 483 l 2,88,89
 475 410 475 410 405.5 345 c 128,-1,90
 336 280 336 280 334 278 c 1,91,-1
 334 271 l 2,92,93
 334 262 334 262 339.5 262 c 128,-1,94
 345 262 345 262 365 273.5 c 128,-1,95
 385 285 385 285 423 307.5 c 128,-1,96
 461 330 461 330 545 384 c 128,-1,97
 629 438 629 438 719 511 c 128,-1,98
 809 584 809 584 880 658 c 0,99,100
 895 673 895 673 913 673 c 0,101,102
 943 673 943 673 943 638 c 0,103,104
 943 616.384615385 943 616.384615385 908 576 c 0,105,106
 895 561 895 561 875.5 539 c 128,-1,107
 856 517 856 517 848 508 c 128,-1,108
 840 499 840 499 769.5 420.5 c 0,109,110
 551.097902098 177.314685315 551.097902098 177.314685315 439 46 c 1,0,1
EndSplineSet
EndChar

StartChar: cent
Encoding: 162 162 117
Width: 330
Flags: HMW
HStem: 224 21G<201 210.5> 582 95<434 458.5> 777 20G<427.5 438.5>
VStem: 135 159<417.5 442.5 417.5 460.5>
LayerCount: 2
Fore
SplineSet
193.5 234.5 m 128,-1,1
 188 245 188 245 188 255.235294118 c 128,-1,2
 188 265.470588235 188 265.470588235 220 337 c 1,3,-1
 218 337 l 2,4,5
 187 337 187 337 161 359.5 c 128,-1,6
 135 382 135 382 135 411 c 0,7,8
 135 481 135 481 205 553.5 c 128,-1,9
 275 626 275 626 359 659 c 1,10,11
 404 761 404 761 405 763 c 0,12,13
 420 797 420 797 434 797 c 0,14,15
 441 797 441 797 447.5 790 c 128,-1,16
 454 783 454 783 454 772 c 128,-1,17
 454 761 454 761 419 676 c 1,18,19
 425 677 425 677 453.5 677 c 128,-1,20
 482 677 482 677 507 664.5 c 128,-1,21
 532 652 532 652 532 618 c 128,-1,22
 532 584 532 584 488.5 539.5 c 128,-1,23
 445 495 445 495 414 495 c 0,24,25
 394 495 394 495 394 507 c 0,26,27
 394 515 394 515 404 521 c 0,28,29
 415 527 415 527 439 549 c 128,-1,30
 463 571 463 571 463 579 c 0,31,32
 463 582 463 582 457 582 c 0,33,34
 422 582 422 582 358 518 c 128,-1,35
 294 454 294 454 294 422 c 0,36,37
 294 406 294 406 311.5 406 c 128,-1,38
 329 406 329 406 368 426.5 c 128,-1,39
 407 447 407 447 464 482 c 128,-1,40
 521 517 521 517 529.5 521.5 c 128,-1,41
 538 526 538 526 543 526 c 0,42,43
 557 526 557 526 557 512 c 1,44,45
 556 504 556 504 510.5 472.5 c 128,-1,46
 465 441 465 441 397 404 c 128,-1,47
 329 367 329 367 278 350 c 1,48,49
 241 266 241 266 227 240 c 1,50,51
 217 224 217 224 208 224 c 128,-1,0
 199 224 199 224 193.5 234.5 c 128,-1,1
EndSplineSet
EndChar

StartChar: section
Encoding: 167 167 118
Width: 321
Flags: HMW
HStem: -14 21G<103 140.5> 343 97<463.5 476 402.5 486>
VStem: 95 215<202 291.5>
LayerCount: 2
Fore
SplineSet
95 224 m 0,0,1
 95 260 95 260 133.5 290 c 128,-1,2
 172 320 172 320 228 336 c 1,3,4
 243 379 243 379 310.5 409.5 c 128,-1,5
 378 440 378 440 436 440 c 0,6,7
 554 440 554 440 554 369 c 1,8,9
 553 336 553 336 501.5 308.5 c 128,-1,10
 450 281 450 281 433 281 c 128,-1,11
 416 281 416 281 416 288 c 128,-1,12
 416 295 416 295 422.5 298.5 c 128,-1,13
 429 302 429 302 451 312 c 128,-1,14
 473 322 473 322 483 328.5 c 128,-1,15
 493 335 493 335 493 339 c 128,-1,16
 493 343 493 343 484 343 c 0,17,18
 451 343 451 343 380.5 319.5 c 128,-1,19
 310 296 310 296 310 281 c 0,20,21
 310 272 310 272 350 272 c 0,22,23
 449 272 449 272 449 193 c 0,24,25
 449 157 449 157 410 130.5 c 128,-1,26
 371 104 371 104 317 89 c 1,27,28
 306 44 306 44 235.5 15 c 128,-1,29
 165 -14 165 -14 120 -14 c 0,30,31
 94 -14 94 -14 62 10 c 128,-1,32
 30 34 30 34 30 58 c 128,-1,33
 30 82 30 82 93 93 c 1,34,35
 154 101 154 101 198 124 c 1,36,-1
 170 150 l 1,37,38
 95 166 95 166 95 224 c 0,0,1
180 190 m 0,39,40
 180 183 180 183 205 181 c 1,41,-1
 223 184 l 2,42,43
 251 188 251 188 297 202.5 c 128,-1,44
 343 217 343 217 343 230 c 0,45,46
 343 238 343 238 336 238 c 0,47,48
 314 238 314 238 297 242 c 1,49,50
 253 230 253 230 216.5 215 c 128,-1,51
 180 200 180 200 180 190 c 0,39,40
EndSplineSet
EndChar

StartChar: AE
Encoding: 198 198 119
Width: 972
Flags: HMW
HStem: -49 157 -49 227<561.5 646 561.5 675> 0 108<86 271> 563 196<1056 1087 1032 1105.5>
VStem: -1 231<118 170 118 293.5> 1084 170<478 691> 1123 131<540.5 691>
LayerCount: 2
Fore
SplineSet
1087 759 m 0,0,1
 1254 758 1254 758 1254 665 c 0,2,3
 1254 625 1254 625 1223 575.5 c 128,-1,4
 1192 526 1192 526 1156.5 494.5 c 128,-1,5
 1121 463 1121 463 1104 463 c 0,6,7
 1096 463 1096 463 1090 469.5 c 128,-1,8
 1084 476 1084 476 1084 486.5 c 128,-1,9
 1084 497 1084 497 1103.5 519 c 128,-1,10
 1123 541 1123 541 1123 552 c 128,-1,11
 1123 563 1123 563 1098 563 c 0,12,13
 1033 563 1033 563 887.5 509.5 c 128,-1,14
 742 456 742 456 741 429 c 1,15,16
 742 422 742 422 767.5 422 c 128,-1,17
 793 422 793 422 825.5 427 c 128,-1,18
 858 432 858 432 875 432 c 0,19,20
 920 432 920 432 920 408 c 0,21,22
 920 394.714285714 920 394.714285714 905 386.857142857 c 128,-1,23
 890 379 890 379 879.5 374.5 c 128,-1,24
 869 370 869 370 850 362.5 c 128,-1,25
 831 355 831 355 818.5 349 c 128,-1,26
 806 343 806 343 782 332.5 c 2,27,-1
 742 315 l 2,28,29
 702 297.5 702 297.5 672.5 282.75 c 128,-1,30
 643 268 643 268 622.5 258 c 128,-1,31
 602 248 602 248 588 240 c 128,-1,32
 574 232 574 232 561.5 223.5 c 0,33,34
 537 206.84 537 206.84 537 198 c 0,35,36
 537 178 537 178 569 178 c 0,37,38
 637 178 637 178 718 203 c 128,-1,39
 799 228 799 228 855.5 252.5 c 128,-1,40
 912 277 912 277 920 277 c 0,41,42
 955 276 955 276 978.5 242 c 128,-1,43
 1002 208 1002 208 1002 174 c 0,44,45
 1002 126 1002 126 936 73 c 128,-1,46
 870 20 870 20 771.5 -14.5 c 128,-1,47
 673 -49 673 -49 587 -49 c 128,-1,48
 501 -49 501 -49 445 -13.5 c 128,-1,49
 389 22 389 22 378 97 c 1,50,51
 378 115 378 115 385 132 c 1,52,53
 205 0 205 0 127 0 c 0,54,55
 68 0 68 0 33.5 46 c 128,-1,56
 -1 92 -1 92 -1 164 c 128,-1,57
 -1 236 -1 236 39 317 c 128,-1,58
 79 398 79 398 145.5 463.5 c 128,-1,59
 212 529 212 529 293 581 c 128,-1,60
 374 633 374 633 462 661.5 c 128,-1,61
 550 690 550 690 622 690 c 128,-1,62
 694 690 694 690 729 668 c 1,63,64
 811 709 811 709 908 734 c 128,-1,65
 1005 759 1005 759 1087 759 c 0,0,1
242 108 m 0,66,67
 266 108 266 108 340 152.5 c 128,-1,68
 414 197 414 197 529 263.5 c 128,-1,69
 644 330 644 330 742 368 c 0,70,71
 748 370 748 370 748 372 c 0,72,73
 748 380 748 380 736 382 c 0,74,75
 671 389 671 389 667 390 c 0,76,77
 613 402 613 402 591 437.5 c 128,-1,78
 569 473 569 473 569 503 c 0,79,80
 569 510 569 510 571 522 c 1,81,82
 461 451 461 451 345.5 320.5 c 128,-1,83
 230 190 230 190 230 125 c 0,84,85
 230 108 230 108 242 108 c 0,66,67
EndSplineSet
EndChar

